<svg width="24" height="25" viewBox="0 0 24 25" fill="none" xmlns="http://www.w3.org/2000/svg">
<path d="M8.25 6.25C7.84 6.25 7.5 5.91 7.5 5.5V2.5C7.5 2.09 7.84 1.75 8.25 1.75C8.66 1.75 9 2.09 9 2.5V5.5C9 5.91 8.66 6.25 8.25 6.25Z" fill="#E88FB9"/>
<path d="M15.75 6.25C15.34 6.25 15 5.91 15 5.5V2.5C15 2.09 15.34 1.75 15.75 1.75C16.16 1.75 16.5 2.09 16.5 2.5V5.5C16.5 5.91 16.16 6.25 15.75 6.25Z" fill="#E88FB9"/>
<path d="M12 14.59C12.52 14.59 12.9 14.28 12.9 13.79C12.9 13.29 12.52 13 12 13C11.48 13 11.1 13.29 11.1 13.79C11.1 14.28 11.48 14.59 12 14.59Z" fill="#E88FB9"/>
<path d="M12 17.4996C12.6296 17.4996 13.14 17.0833 13.14 16.5696C13.14 16.056 12.6296 15.6396 12 15.6396C11.3704 15.6396 10.86 16.056 10.86 16.5696C10.86 17.0833 11.3704 17.4996 12 17.4996Z" fill="#E88FB9"/>
<path d="M19.57 5C18.91 4.51 17.96 4.98 17.96 5.81V5.91C17.96 7.08 17.12 8.16 15.95 8.28C14.6 8.42 13.46 7.36 13.46 6.04V5C13.46 4.45 13.01 4 12.46 4H11.54C10.99 4 10.54 4.45 10.54 5V6.04C10.54 6.83 10.13 7.53 9.51 7.92C9.42 7.98 9.32 8.03 9.22 8.08C9.13 8.13 9.03 8.17 8.92 8.2C8.8 8.24 8.67 8.27 8.53 8.28C8.37 8.3 8.21 8.3 8.05 8.28C7.91 8.27 7.78 8.24 7.66 8.2C7.56 8.17 7.46 8.13 7.36 8.08C7.26 8.03 7.16 7.98 7.07 7.92C6.44 7.48 6.04 6.72 6.04 5.91V5.81C6.04 5.04 5.22 4.58 4.57 4.91C4.56 4.92 4.55 4.92 4.54 4.93C4.5 4.95 4.47 4.97 4.43 5C4.4 5.03 4.36 5.05 4.33 5.08C4.05 5.3 3.8 5.55 3.59 5.82C3.48 5.94 3.39 6.07 3.31 6.2C3.3 6.21 3.29 6.22 3.28 6.24C3.19 6.37 3.11 6.52 3.04 6.66C3.02 6.68 3.01 6.69 3.01 6.71C2.95 6.83 2.89 6.95 2.85 7.08C2.82 7.13 2.81 7.17 2.79 7.22C2.73 7.37 2.69 7.52 2.65 7.67C2.61 7.81 2.58 7.96 2.56 8.11C2.54 8.22 2.53 8.33 2.52 8.45C2.51 8.59 2.5 8.73 2.5 8.87V17.63C2.5 20.32 4.68 22.5 7.37 22.5H16.63C19.32 22.5 21.5 20.32 21.5 17.63V8.87C21.5 7.28 20.74 5.89 19.57 5ZM12 18.75C10.45 18.75 9.5 17.98 9.5 16.74C9.5 16.06 9.85 15.47 10.46 15.12C10.02 14.81 9.73 14.35 9.73 13.72C9.73 12.42 10.77 11.75 12 11.75C13.23 11.75 14.26 12.42 14.26 13.72C14.26 14.35 13.98 14.81 13.53 15.12C14.15 15.47 14.5 16.06 14.5 16.74C14.5 17.98 13.54 18.75 12 18.75Z" fill="#E88FB9"/>
</svg>
