<svg width="80" height="80" viewBox="0 0 80 80" fill="none" xmlns="http://www.w3.org/2000/svg">
<rect width="80" height="80" rx="8" fill="#F0E1EA"/>
<path d="M40 18.3334C34.3233 18.3334 29.7083 22.9484 29.7083 28.625C29.7083 34.1934 34.0633 38.7 39.74 38.895C39.9133 38.8734 40.0867 38.8734 40.2167 38.895C40.26 38.895 40.2817 38.895 40.325 38.895C40.3467 38.895 40.3467 38.895 40.3683 38.895C45.915 38.7 50.27 34.1934 50.2917 28.625C50.2917 22.9484 45.6767 18.3334 40 18.3334Z" fill="#E88FB9"/>
<path d="M51.0067 44.68C44.9617 40.65 35.1033 40.65 29.015 44.68C26.2633 46.5 24.7467 48.9916 24.7467 51.6566C24.7467 54.3216 26.2633 56.7916 28.9933 58.6116C32.0267 60.6483 36.0133 61.6666 40 61.6666C43.9867 61.6666 47.9733 60.6483 51.0067 58.6116C53.7367 56.77 55.2533 54.3 55.2533 51.6133C55.2317 48.97 53.7367 46.4783 51.0067 44.68ZM45.0483 49.88L39.5883 55.34C39.3283 55.6 38.9817 55.73 38.635 55.73C38.2883 55.73 37.9417 55.5783 37.6817 55.34L34.9517 52.61C34.4317 52.09 34.4317 51.2233 34.9517 50.7033C35.4717 50.1833 36.3383 50.1833 36.8583 50.7033L38.635 52.48L43.1417 47.9733C43.6617 47.4533 44.5283 47.4533 45.0483 47.9733C45.59 48.4933 45.59 49.36 45.0483 49.88Z" fill="#E88FB9"/>
</svg>
