<svg width="80" height="80" viewBox="0 0 80 80" fill="none" xmlns="http://www.w3.org/2000/svg">
<rect width="80" height="80" rx="8" fill="#F0E1EA"/>
<path d="M43.7483 21.605L47.5617 29.2316C48.0817 30.2933 49.4683 31.3116 50.6383 31.5066L57.55 32.655C61.97 33.3916 63.01 36.5983 59.825 39.7616L54.4517 45.135C53.5417 46.045 53.0433 47.8 53.325 49.0566L54.8633 55.7083C56.0767 60.9733 53.2817 63.01 48.6233 60.2583L42.145 56.4233C40.975 55.73 39.0467 55.73 37.855 56.4233L31.3767 60.2583C26.74 63.01 23.9233 60.9516 25.1367 55.7083L26.675 49.0566C26.9567 47.8 26.4583 46.045 25.5483 45.135L20.175 39.7616C17.0117 36.5983 18.03 33.3916 22.45 32.655L29.3617 31.5066C30.51 31.3116 31.8967 30.2933 32.4167 29.2316L36.23 21.605C38.31 17.4666 41.69 17.4666 43.7483 21.605Z" fill="#E88FB9"/>
</svg>
