<svg width="80" height="80" viewBox="0 0 80 80" fill="none" xmlns="http://www.w3.org/2000/svg">
<rect width="80" height="80" rx="8" fill="#F0E1EA"/>
<path d="M56.2717 26.675L43.4017 19.2434C41.3 18.03 38.7 18.03 36.5767 19.2434L23.7283 26.675C21.6267 27.8884 20.3267 30.1417 20.3267 32.59V47.41C20.3267 49.8367 21.6267 52.09 23.7283 53.325L36.5983 60.7567C38.7 61.97 41.3 61.97 43.4233 60.7567L56.2933 53.325C58.395 52.1117 59.695 49.8584 59.695 47.41V32.59C59.6733 30.1417 58.3733 27.91 56.2717 26.675ZM40 29.9034C42.795 29.9034 45.0483 32.1567 45.0483 34.9517C45.0483 37.7467 42.795 40 40 40C37.205 40 34.9517 37.7467 34.9517 34.9517C34.9517 32.1784 37.205 29.9034 40 29.9034ZM45.8067 50.0967H34.1933C32.4383 50.0967 31.42 48.1467 32.395 46.695C33.8683 44.5067 36.7283 43.0334 40 43.0334C43.2717 43.0334 46.1317 44.5067 47.605 46.695C48.58 48.125 47.54 50.0967 45.8067 50.0967Z" fill="#E88FB9"/>
</svg>
