<svg width="80" height="80" viewBox="0 0 80 80" fill="none" xmlns="http://www.w3.org/2000/svg">
<rect width="80" height="80" rx="8" fill="#F0E1EA"/>
<path d="M50.8333 61.6666H29.1667C28.2783 61.6666 27.5417 60.93 27.5417 60.0416C27.5417 59.1533 28.2783 58.4166 29.1667 58.4166H50.8333C51.7217 58.4166 52.4583 59.1533 52.4583 60.0416C52.4583 60.93 51.7217 61.6666 50.8333 61.6666Z" fill="#E88FB9"/>
<path d="M58.0917 25.96L49.425 32.1567C48.2767 32.98 46.63 32.4817 46.1317 31.16L42.0367 20.24C41.3433 18.355 38.6783 18.355 37.985 20.24L33.8683 31.1384C33.37 32.4817 31.745 32.98 30.5967 32.135L21.93 25.9384C20.1967 24.725 17.9 26.4367 18.615 28.4517L27.6283 53.6934C27.9317 54.56 28.755 55.1234 29.665 55.1234H50.3133C51.2233 55.1234 52.0467 54.5384 52.35 53.6934L61.3633 28.4517C62.1 26.4367 59.8033 24.725 58.0917 25.96ZM45.4167 45.9584H34.5833C33.695 45.9584 32.9583 45.2217 32.9583 44.3334C32.9583 43.445 33.695 42.7084 34.5833 42.7084H45.4167C46.305 42.7084 47.0417 43.445 47.0417 44.3334C47.0417 45.2217 46.305 45.9584 45.4167 45.9584Z" fill="#E88FB9"/>
</svg>
