<svg width="24" height="25" viewBox="0 0 24 25" fill="none" xmlns="http://www.w3.org/2000/svg">
<path d="M15 23.25H9C3.57 23.25 1.25 20.93 1.25 15.5V9.5C1.25 4.07 3.57 1.75 9 1.75H11C11.41 1.75 11.75 2.09 11.75 2.5C11.75 2.91 11.41 3.25 11 3.25H9C4.39 3.25 2.75 4.89 2.75 9.5V15.5C2.75 20.11 4.39 21.75 9 21.75H15C19.61 21.75 21.25 20.11 21.25 15.5V13.5C21.25 13.09 21.59 12.75 22 12.75C22.41 12.75 22.75 13.09 22.75 13.5V15.5C22.75 20.93 20.43 23.25 15 23.25Z" fill="#6E683B"/>
<path d="M8.49999 18.1896C7.88999 18.1896 7.32999 17.9696 6.91999 17.5696C6.42999 17.0796 6.21999 16.3696 6.32999 15.6196L6.75999 12.6096C6.83999 12.0296 7.21999 11.2796 7.62999 10.8696L15.51 2.98957C17.5 0.99957 19.52 0.99957 21.51 2.98957C22.6 4.07957 23.09 5.18957 22.99 6.29957C22.9 7.19957 22.42 8.07957 21.51 8.97957L13.63 16.8596C13.22 17.2696 12.47 17.6496 11.89 17.7296L8.87999 18.1596C8.74999 18.1896 8.61999 18.1896 8.49999 18.1896ZM16.57 4.04957L8.68999 11.9296C8.49999 12.1196 8.27999 12.5596 8.23999 12.8196L7.80999 15.8296C7.76999 16.1196 7.82999 16.3596 7.97999 16.5096C8.12999 16.6596 8.36999 16.7196 8.65999 16.6796L11.67 16.2496C11.93 16.2096 12.38 15.9896 12.56 15.7996L20.44 7.91957C21.09 7.26957 21.43 6.68957 21.48 6.14957C21.54 5.49957 21.2 4.80957 20.44 4.03957C18.84 2.43957 17.74 2.88957 16.57 4.04957Z" fill="#6E683B"/>
<path d="M19.85 10.3303C19.78 10.3303 19.71 10.3203 19.65 10.3003C17.02 9.56027 14.93 7.47027 14.19 4.84027C14.08 4.44027 14.31 4.03027 14.71 3.91027C15.11 3.80027 15.52 4.03027 15.63 4.43027C16.23 6.56027 17.92 8.25027 20.05 8.85027C20.45 8.96027 20.68 9.38027 20.57 9.78027C20.48 10.1203 20.18 10.3303 19.85 10.3303Z" fill="#292D32"/>
</svg>
