<svg width="20" height="21" viewBox="0 0 20 21" fill="none" xmlns="http://www.w3.org/2000/svg">
<path d="M12.5001 19.6584H7.50008C2.97508 19.6584 1.04175 17.725 1.04175 13.2V8.20003C1.04175 3.67503 2.97508 1.7417 7.50008 1.7417H9.16675C9.50842 1.7417 9.79175 2.02503 9.79175 2.3667C9.79175 2.70837 9.50842 2.9917 9.16675 2.9917H7.50008C3.65841 2.9917 2.29175 4.35837 2.29175 8.20003V13.2C2.29175 17.0417 3.65841 18.4084 7.50008 18.4084H12.5001C16.3417 18.4084 17.7084 17.0417 17.7084 13.2V11.5334C17.7084 11.1917 17.9917 10.9084 18.3334 10.9084C18.6751 10.9084 18.9584 11.1917 18.9584 11.5334V13.2C18.9584 17.725 17.0251 19.6584 12.5001 19.6584Z" fill="white"/>
<path d="M7.08336 15.4417C6.57503 15.4417 6.10836 15.2583 5.76669 14.925C5.35836 14.5167 5.18336 13.925 5.27503 13.3L5.63336 10.7917C5.70003 10.3083 6.01669 9.68333 6.35836 9.34167L12.925 2.775C14.5834 1.11667 16.2667 1.11667 17.925 2.775C18.8334 3.68333 19.2417 4.60833 19.1584 5.53333C19.0834 6.28333 18.6834 7.01667 17.925 7.76667L11.3584 14.3333C11.0167 14.675 10.3917 14.9917 9.90836 15.0583L7.40003 15.4167C7.29169 15.4417 7.18336 15.4417 7.08336 15.4417ZM13.8084 3.65833L7.24169 10.225C7.08336 10.3833 6.90003 10.75 6.86669 10.9667L6.50836 13.475C6.47503 13.7167 6.52503 13.9167 6.65003 14.0417C6.77503 14.1667 6.97503 14.2167 7.21669 14.1833L9.72503 13.825C9.94169 13.7917 10.3167 13.6083 10.4667 13.45L17.0334 6.88333C17.575 6.34167 17.8584 5.85833 17.9 5.40833C17.95 4.86667 17.6667 4.29167 17.0334 3.65C15.7 2.31667 14.7834 2.69167 13.8084 3.65833Z" fill="white"/>
<path d="M16.5416 8.89192C16.4832 8.89192 16.4249 8.88359 16.3749 8.86692C14.1832 8.25026 12.4416 6.50859 11.8249 4.31692C11.7332 3.98359 11.9249 3.64192 12.2582 3.54192C12.5916 3.45026 12.9332 3.64192 13.0249 3.97526C13.5249 5.75026 14.9332 7.15859 16.7082 7.65859C17.0416 7.75026 17.2332 8.10026 17.1416 8.43359C17.0666 8.71692 16.8166 8.89192 16.5416 8.89192Z" fill="white"/>
</svg>
