<svg width="32" height="32" viewBox="0 0 32 32" fill="none" xmlns="http://www.w3.org/2000/svg">
<path d="M12 23.6665C11.4533 23.6665 11 23.2132 11 22.6665V17.0798L10.04 18.0398C9.65334 18.4265 9.01334 18.4265 8.62667 18.0398C8.24 17.6532 8.24 17.0132 8.62667 16.6265L11.2933 13.9598C11.5733 13.6798 12.0133 13.5865 12.3867 13.7465C12.76 13.8932 13 14.2665 13 14.6665V22.6665C13 23.2132 12.5467 23.6665 12 23.6665Z" fill="#E88FB9"/>
<path d="M14.6666 18.3333C14.4133 18.3333 14.16 18.2399 13.96 18.0399L11.2933 15.3733C10.9066 14.9866 10.9066 14.3466 11.2933 13.9599C11.68 13.5733 12.32 13.5733 12.7066 13.9599L15.3733 16.6266C15.76 17.0133 15.76 17.6533 15.3733 18.0399C15.1733 18.2399 14.92 18.3333 14.6666 18.3333Z" fill="#E88FB9"/>
<path d="M20 30.3332H12C4.75996 30.3332 1.66663 27.2398 1.66663 19.9998V11.9998C1.66663 4.75984 4.75996 1.6665 12 1.6665H18.6666C19.2133 1.6665 19.6666 2.11984 19.6666 2.6665C19.6666 3.21317 19.2133 3.6665 18.6666 3.6665H12C5.85329 3.6665 3.66663 5.85317 3.66663 11.9998V19.9998C3.66663 26.1465 5.85329 28.3332 12 28.3332H20C26.1466 28.3332 28.3333 26.1465 28.3333 19.9998V13.3332C28.3333 12.7865 28.7866 12.3332 29.3333 12.3332C29.88 12.3332 30.3333 12.7865 30.3333 13.3332V19.9998C30.3333 27.2398 27.24 30.3332 20 30.3332Z" fill="#8D9A9B"/>
<path d="M29.3333 14.3332H24C19.44 14.3332 17.6666 12.5598 17.6666 7.99982V2.66649C17.6666 2.26649 17.9066 1.89316 18.28 1.74649C18.6533 1.58649 19.08 1.67982 19.3733 1.95982L30.04 12.6265C30.32 12.9065 30.4133 13.3465 30.2533 13.7198C30.0933 14.0932 29.7333 14.3332 29.3333 14.3332ZM19.6666 5.07982V7.99982C19.6666 11.4398 20.56 12.3332 24 12.3332H26.92L19.6666 5.07982Z" fill="#8D9A9B"/>
</svg>
