<svg width="165" height="143" viewBox="0 0 165 143" fill="none" xmlns="http://www.w3.org/2000/svg">
<path d="M115.101 20.3991C109.553 14.8509 102.851 10.8601 95.5367 8.66309C96.2737 9.94237 96.8716 11.2912 97.4557 12.5844C97.4835 12.6678 97.5252 12.7373 97.553 12.8208C113.906 19.092 125.544 34.9719 125.544 53.5076C125.544 75.3667 109.359 93.513 88.3477 96.6C87.2909 97.8098 86.1924 99.0473 85.1495 100.215C96.4684 99.4645 106.995 94.7089 115.088 86.616C123.931 77.7723 128.798 66.0223 128.798 53.5215C128.812 40.9928 123.945 29.2429 115.101 20.3991ZM48.9124 20.3991C40.0686 29.2429 35.2018 40.9928 35.2018 53.5076C35.2018 66.0084 40.0686 77.7723 48.9124 86.6021C54.8221 92.5119 62.0529 96.6556 69.9232 98.7414C70.0067 97.7124 70.1596 96.6278 70.4099 95.4876C52.0133 90.3983 38.4556 73.5034 38.4556 53.5076C38.4556 32.4133 53.5289 14.7675 73.4691 10.7906C73.775 10.735 74.067 10.6654 74.3729 10.6237L73.5247 10.4569L71.7309 10.1231L74.7623 7.24475C65.0008 8.74652 56.018 13.2935 48.9124 20.3991Z" fill="#F9BEC7"/>
<path d="M75.7638 31.1617C75.7638 31.1617 74.3315 41.5072 82.48 42.1747C91.9773 43.5235 92.0747 31.3285 92.0747 31.3285C92.0747 31.3285 99.4862 45.4702 93.4791 48.6406C90.2948 49.6279 85.8312 49.1968 81.7013 48.8909C75.3466 49.7947 73.5111 48.8075 71.6617 48.0983C66.4473 44.5803 70.0487 37.1131 75.7638 31.1617Z" fill="#EECDDA"/>
<path d="M92.881 30.8002C92.881 30.8002 97.8313 31.6067 101.433 34.6658C105.034 37.725 111.069 42.856 112.056 47.3613C111.431 54.4808 104.228 59.6953 98.0955 63.116L95.2171 64.5761C95.2171 64.5761 92.7002 64.5761 91.8798 63.5888C91.0733 62.6015 89.6272 58.9027 94.0351 58.8193C100.153 58.8193 99.4582 56.5944 100.807 55.7045C102.156 54.8007 102.74 53.577 104.116 51.3522C105.034 49.8782 106.063 47.7368 107.176 45.7622C107.176 45.7622 104.408 47.8619 100.557 45.0253C95.6203 41.4933 93.5485 32.7191 92.881 30.8002Z" fill="#E88FB9"/>
<path d="M74.5677 30.0215C74.5677 30.0215 70.9245 27.7966 61.1908 33.8037C57.339 36.9046 55.7817 39.338 55.7817 39.338H55.3506C55.3506 39.338 58.5071 34.2765 58.4515 31.704C59.258 28.8673 60.4816 24.6402 60.4816 24.6402C60.4816 24.6402 66.3358 26.6703 66.8363 21.581C66.0298 17.3955 60.8988 20.1348 59.9532 20.7745C59.0077 21.4002 55.6704 24.0561 52.7364 33.1641C51.7074 35.7922 50.9565 38.601 50.8592 41.3404C50.8592 41.3404 52.3888 42.4667 56.6716 42.5501C62.331 42.3833 65.9186 40.9788 69.1307 37.7389C71.0079 35.8478 72.3428 33.2753 74.5677 30.0215Z" fill="#E88FB9"/>
<path d="M71.133 50.351C75.8608 51.6302 85.1773 51.9779 92.5471 51.6302C93.0199 51.8388 88.4729 58.5412 88.2226 61.35C88.904 64.576 90.5448 66.3698 91.0037 67.3571C91.7963 68.3027 87.3466 72.0849 80.6581 72.0849C80.2549 72.0849 73.5247 72.0849 70.4656 65.8692C71.5502 63.8391 73.775 61.211 73.8446 59.5145C73.9697 55.5515 70.4517 51.0879 71.133 50.351Z" fill="#E88FB9"/>
<path d="M69.8406 66.8982C69.8406 66.8982 72.6772 73.7257 80.5059 73.5171C88.3346 73.3085 92.5618 68.9284 92.5618 69.8044C94.8283 71.3618 95.5653 79.8023 94.8283 80.2055C86.2488 72.5715 77.6692 84.252 77.6692 84.252C77.6692 84.252 76.1814 79.0514 66.1835 76.8266C67.4489 69.4985 69.8406 66.8982 69.8406 66.8982Z" fill="#E88FB9"/>
<path d="M69.7846 95.1955C69.7846 95.1955 72.1902 85.4061 76.2366 82.2218C72.3153 78.1476 66.7115 77.1047 66.197 77.063C64.8204 86.6993 69.7846 95.1955 69.7846 95.1955Z" fill="#EECDDA"/>
<path d="M69.7846 95.1955C69.7846 95.1955 72.1902 85.4061 76.2366 82.2218C72.3431 78.1476 66.7115 77.1047 66.197 77.063C64.8204 86.6993 69.7846 95.1955 69.7846 95.1955Z" fill="#E88FB9"/>
<path d="M67.2122 66.8982C64.8483 63.1855 52.7229 58.708 49.5386 49.8643C47.717 46.082 45.9927 39.1989 48.6347 29.8824C48.7738 28.8673 39.2487 42.6474 41.8073 55.6211C44.1712 67.3015 53.6267 69.4707 54.906 70.1382C56.1853 70.8195 64.2226 73.4476 64.2226 73.4476C64.2226 73.4476 65.8634 66.8982 67.2122 66.8982Z" fill="#6E683B"/>
<path d="M63.6384 75.1302C63.6384 75.1302 62.9014 77.4245 63.6384 78.1059C62.081 79.9275 51.4852 79.3156 48.3704 77.1047C43.9068 72.9748 41.682 64.1311 42.0157 63.9225C42.3494 63.7139 44.1154 68.5808 51.6103 71.4175C57.0195 73.4476 63.6384 75.1302 63.6384 75.1302Z" fill="#6E683B"/>
<path d="M63.3882 80.2194C62.1228 80.4419 60.0092 80.7617 58.6187 80.72C57.2282 80.6783 52.5004 79.0097 50.651 79.0931C50.651 79.6354 57.8956 86.9218 64.2504 88.1037C63.2909 84.8638 63.7637 80.4976 63.3882 80.2194Z" fill="#6E683B"/>
<path d="M95.2172 69.4151C97.9705 65.9805 110.513 62.8518 114.629 54.3974C116.854 50.8376 119.301 44.1909 117.702 34.638C117.674 33.6229 126.379 46.972 121.693 60.9607C119.565 67.4405 108.441 73.4476 107.092 73.976C105.744 74.5044 97.4699 76.2565 97.4699 76.2565C97.4699 76.2565 96.5521 69.568 95.2172 69.4151Z" fill="#6E683B"/>
<path d="M97.5532 78.5369C97.5532 78.5369 97.5532 80.7478 97.5532 81.5543C99.2914 83.0005 110.457 81.6239 113.781 79.7606C118.661 76.1313 122.013 66.0778 121.693 65.8414C121.373 65.605 118.133 71.4313 110.235 74.8381C104.659 76.6597 97.5532 78.5369 97.5532 78.5369Z" fill="#6E683B"/>
<path d="M97.1362 83.4316C98.3599 83.7931 99.667 84.3354 101.057 84.4467C102.448 84.5579 107.176 83.9739 109.011 84.2659C108.956 84.8082 100.209 90.704 93.7711 91.1768C96.7329 87.77 96.719 83.6541 97.1362 83.4316Z" fill="#6E683B"/>
<path d="M75.3185 11.3049C75.3185 11.3049 82.9803 12.6955 84.3291 19.5925C85.6779 26.4756 89.0986 29.5486 90.4474 30.6193C91.7962 31.704 90.5865 41.9243 83.6895 41.0205C74.8318 40.7146 77.6963 32.1211 78.0022 29.938C78.0161 29.8546 78.0717 29.785 78.1413 29.7433C78.614 29.5208 80.2966 28.7004 80.8528 27.7688C81.4924 26.6842 82.5214 23.8475 82.5214 23.8475C82.5214 23.8475 78.92 26.1001 75.9859 24.654C75.9859 24.654 75.5827 22.1232 75.8191 21.8173L74.9013 21.5114L75.2351 19.7871L74.0531 19.4812C74.0531 19.4812 73.1771 19.3144 73.6499 18.2993C74.1226 17.2842 74.804 16.0327 75.0404 12.8901L75.3185 11.3049Z" fill="#E88FB9"/>
<path d="M75.7637 8.92713L77.6548 7.11945C77.6548 7.11945 83.6897 8.38483 85.5391 13.6549L84.0929 14.0165C84.0929 14.0026 80.9503 9.87269 75.7637 8.92713Z" fill="#3D2D22"/>
<path d="M106.438 29.8268C104.686 28.1721 97.386 26.7955 97.386 26.7955C97.386 26.7955 91.3512 25.2659 88.5562 16.6585C88.5979 16.2136 88.6953 15.852 88.876 14.4754C90.2666 15.7547 91.6293 21.4697 96.4266 24.2647C99.9029 26.8372 106.438 26.1836 108.413 29.2567C109.066 30.091 112.084 32.2185 112.167 38.5176C112.863 37.2383 113.266 35.6531 113.613 32.5661C113.141 26.1836 108.886 21.7618 105.507 21.2194C102.128 20.6771 102.406 20.7189 100.098 19.4674C95.9121 17.91 95.3698 7.91211 89.766 5.42306C82.8133 2.18314 79.2258 5.82631 79.2258 5.82631C85.6222 7.56447 87.555 12.1949 87.7775 13.4603C88 14.7257 87.124 19.6064 87.124 19.6064C87.555 26.6981 93.5065 28.6866 97.6224 29.7434C98.6375 30.0076 99.5414 30.6055 100.223 30.7585C103.671 31.4954 111.236 39.9081 111.236 39.9081C111.319 39.7969 111.403 39.6856 111.486 39.5744C110.29 36.2649 108.594 31.5233 106.438 29.8268Z" fill="#3D2D22"/>
<path d="M75.7638 31.1617C75.7638 31.1617 74.3315 41.5072 82.48 42.1747C91.9773 43.5235 92.0747 31.3285 92.0747 31.3285C92.0747 31.3285 99.4862 45.4702 93.4791 48.6406C90.2948 49.6279 85.8312 49.1968 81.7013 48.8909C75.3466 49.7947 73.5111 48.8075 71.6617 48.0983C66.4473 44.5803 70.0487 37.1131 75.7638 31.1617Z" fill="#E88FB9"/>
<mask id="mask0_1154_13244" style="mask-type:luminance" maskUnits="userSpaceOnUse" x="41" y="29" width="27" height="45">
<path d="M67.2109 66.8982C64.847 63.1855 52.7216 58.708 49.5373 49.8643C47.7157 46.082 45.9915 39.1989 48.6335 29.8824C48.7725 28.8673 39.2474 42.6474 41.806 55.6211C44.1699 67.3015 53.6255 69.4707 54.9047 70.1382C56.184 70.8195 64.2213 73.4476 64.2213 73.4476C64.2213 73.4476 65.8621 66.8982 67.2109 66.8982Z" fill="white"/>
</mask>
<g mask="url(#mask0_1154_13244)">
<path d="M65.4586 71.5566C65.4586 71.5566 50.7329 68.859 45.5046 62.1984C40.2762 55.5378 39.8034 56.4972 39.8034 56.4972C39.8034 56.4972 47.4791 68.7895 48.8279 69.2344C50.1767 69.6794 63.6231 73.9066 63.6231 73.9066L65.4586 71.5566Z" fill="#695328"/>
<path d="M45.6015 64.5761C45.6015 64.5761 41.9584 54.3557 43.5019 46.9025C44.8229 39.9082 49.1057 27.7828 49.1057 27.7828L41.3743 40.2141L40.5261 57.7069L45.6015 64.5761Z" fill="#59532E"/>
</g>
<mask id="mask1_1154_13244" style="mask-type:luminance" maskUnits="userSpaceOnUse" x="41" y="63" width="23" height="17">
<path d="M63.6377 75.1302C63.6377 75.1302 62.9008 77.4245 63.6377 78.1059C62.0803 79.9275 51.4845 79.3156 48.3697 77.1047C43.9062 72.9748 41.6813 64.1311 42.015 63.9225C42.3488 63.7139 44.1147 68.5808 51.6097 71.4175C57.0188 73.4476 63.6377 75.1302 63.6377 75.1302Z" fill="white"/>
</mask>
<g mask="url(#mask1_1154_13244)">
<path d="M64.1527 75.7003C64.1527 75.7003 61.9974 74.7965 55.1977 73.8509C48.3981 72.9053 46.0063 69.8879 43.6285 68.1358C41.2368 66.3838 40.8753 62.4208 40.8753 62.4208L44.88 66.203L54.9196 72.0154L64.0137 73.9482L64.1527 75.7003Z" fill="#59532E"/>
<path d="M44.5183 73.1279C50.6366 77.1743 62.1641 78.1755 64.3333 78.0781C66.4886 77.9947 60.5511 79.9693 60.5511 79.9693L52.0828 79.3435L46.771 77.8974C46.771 77.9113 45.6029 75.2971 44.5183 73.1279Z" fill="#695328"/>
</g>
<mask id="mask2_1154_13244" style="mask-type:luminance" maskUnits="userSpaceOnUse" x="50" y="79" width="15" height="10">
<path d="M63.3875 80.2196C62.1221 80.4421 60.0085 80.7619 58.618 80.7202C57.2275 80.6784 52.4997 79.0098 50.6503 79.0932C50.6503 79.6355 57.8949 86.9219 64.2496 88.1039C63.2902 84.8639 63.7629 80.4977 63.3875 80.2196Z" fill="white"/>
</mask>
<g mask="url(#mask2_1154_13244)">
<path d="M64.3049 85.003L65.0419 89.397L53.2224 84.3355L50.3857 80.4003C50.3857 80.4003 60.189 84.4607 64.3049 85.003Z" fill="#695328"/>
</g>
<mask id="mask3_1154_13244" style="mask-type:luminance" maskUnits="userSpaceOnUse" x="65" y="77" width="12" height="19">
<path d="M69.7846 95.1955C69.7846 95.1955 72.1902 85.4061 76.2366 82.2218C72.218 78.0642 66.7115 77.1047 66.197 77.063C64.8204 86.6993 69.7846 95.1955 69.7846 95.1955Z" fill="white"/>
</mask>
<g mask="url(#mask3_1154_13244)">
<path d="M69.3676 65.8276L66.809 70.9448L65.4602 77.4107V88.1039L70.2714 95.6405C70.2714 95.6405 67.7546 86.1571 68.3803 80.748C68.422 77.4107 68.2413 76.4234 68.9643 73.4477C69.2842 72.3214 69.9794 69.8463 69.9794 69.8463C69.9794 69.8463 75.7223 74.6297 79.4628 74.6575C83.9959 74.8661 89.2799 72.085 89.2799 72.085C89.2799 72.085 82.8974 73.9205 79.727 73.4338C71.0918 72.53 69.3676 65.8276 69.3676 65.8276Z" fill="#FAE0E4"/>
<path d="M74.3456 80.4977C74.3456 80.4977 71.0917 86.2267 70.0488 89.7447C69.0059 93.2628 70.0488 95.9743 70.0488 95.9743L77.1405 82.1525L75.8751 80.5812L74.3456 80.4977Z" fill="#E26F88"/>
</g>
<mask id="mask4_1154_13244" style="mask-type:luminance" maskUnits="userSpaceOnUse" x="66" y="66" width="30" height="19">
<path d="M69.8384 66.8982C69.8384 66.8982 72.675 73.7257 80.5037 73.5171C88.3324 73.3085 92.5596 68.9284 92.5596 69.8044C94.8261 71.3618 95.5631 79.8023 94.8261 80.2055C86.2466 72.5715 77.667 84.252 77.667 84.252C77.667 84.252 76.1792 79.0514 66.1813 76.8266C67.4467 69.4985 69.8384 66.8982 69.8384 66.8982Z" fill="white"/>
</mask>
<g mask="url(#mask4_1154_13244)">
<path d="M69.547 65.8137L66.8077 70.9447L65.4589 77.4107V88.1038L70.2701 95.6405C70.2701 95.6405 67.7532 86.1571 68.379 80.7479C68.3651 77.3968 68.2399 76.4234 68.963 73.4477C69.2828 72.3213 69.9781 69.8462 69.9781 69.8462C69.9781 69.8462 75.721 74.6296 79.4615 74.6574C83.9946 74.866 89.7653 71.1116 89.7653 71.1116C89.7653 71.1116 82.8961 73.9343 79.7396 73.4477C71.0905 72.5299 69.547 65.8137 69.547 65.8137Z" fill="#FAE0E4"/>
</g>
<mask id="mask5_1154_13244" style="mask-type:luminance" maskUnits="userSpaceOnUse" x="70" y="50" width="23" height="23">
<path d="M71.1338 50.351C75.8616 51.6302 85.1781 51.9779 92.5479 51.6302C93.0207 51.8388 88.4736 58.5412 88.2233 61.35C88.9047 64.576 90.5455 66.3698 91.0044 67.3571C91.797 68.3027 87.3473 72.0849 80.6589 72.0849C80.2556 72.0849 73.5255 72.0849 70.4663 65.8692C71.5509 63.8391 73.7758 61.211 73.8453 59.5145C73.9704 55.5515 70.4524 51.0879 71.1338 50.351Z" fill="white"/>
</mask>
<g mask="url(#mask5_1154_13244)">
<path d="M69.8265 49.8782C70.0907 49.906 73.6644 50.351 73.6644 50.351C73.6644 50.351 75.0549 57.3036 76.0143 59.0974C76.3203 61.2249 72.4407 69.2344 72.4407 69.2344C72.4407 69.2344 68.9922 64.5344 68.9922 64.4371C68.9922 64.3397 70.786 60.2794 70.786 60.2794V53.73L69.8265 49.8782Z" fill="#FAE0E4"/>
<path d="M90.0866 50.6569C90.0866 50.6569 88.8213 57.0534 86.8884 59.5424C86.1236 62.2261 87.7506 64.7569 87.8757 67.3572C88.0148 70.1243 86.8884 71.5426 86.8884 71.5426L93.6047 67.8995L90.5872 65.466C90.5872 65.466 89.3775 61.2667 89.2801 61.0998C89.1967 60.919 91.5328 55.8853 91.5328 55.8853C91.5328 55.8853 93.1597 52.6454 93.2014 52.5063C93.2431 52.3673 93.3822 50.351 93.3822 50.351L90.0866 50.6569Z" fill="#E26F88"/>
</g>
<mask id="mask6_1154_13244" style="mask-type:luminance" maskUnits="userSpaceOnUse" x="90" y="30" width="23" height="35">
<path d="M92.8817 30.8002C92.8817 30.8002 97.832 31.6067 101.433 34.6658C105.035 37.725 111.07 42.856 112.057 47.3613C111.431 54.4808 104.228 59.6953 98.0962 63.116L95.2178 64.5761C95.2178 64.5761 92.701 64.5761 91.8806 63.5888C91.074 62.6015 89.6279 58.9027 94.0359 58.8193C100.154 58.8193 99.4589 56.5944 100.808 55.7045C102.157 54.8007 102.741 53.577 104.117 51.3522C105.035 49.8782 106.064 47.7368 107.176 45.7622C107.176 45.7622 104.409 47.8619 100.557 45.0253C95.6211 41.4933 93.5492 32.7191 92.8817 30.8002Z" fill="white"/>
</mask>
<g mask="url(#mask6_1154_13244)">
<path d="M95.7457 38.7679C95.7457 38.7679 96.8999 40.0611 100.112 42.5641C101.767 44.2049 103.727 44.5664 105.007 44.9558C106.286 45.3451 107.468 45.5676 107.468 45.5676L104.937 47.709L97.8454 45.2339L95.7457 38.7679Z" fill="#E26F88"/>
<path d="M112.376 44.5665C112.056 44.5247 111.876 44.9141 111.222 46.7635C110.304 51.5191 105.271 56.0105 105.271 56.0105L99.945 60.5714C99.945 60.5714 97.5533 62.685 95.4536 62.9075C93.1592 63.3803 90.5867 61.9619 90.5867 61.9619L91.574 65.48L96.4269 65.2992L106.884 60.2516L112.376 51.5608L113.405 48.6824V46.2907C113.405 46.2907 113.127 44.2327 112.376 44.5665Z" fill="#E26F88"/>
<path d="M92.2692 29.8269C92.2692 29.8269 92.4916 32.3299 93.5206 33.6926C95.5508 34.3739 98.9298 36.5988 101.53 38.323C104.228 39.7136 113.169 47.8481 113.169 47.8481L110.068 42.3834L104.895 36.3763L97.4002 31.6763L93.4789 30.3553L92.2692 29.8269Z" fill="#FAE0E4"/>
<path d="M90.4478 62.0036C90.4478 62.0036 95.4815 61.0581 98.8188 59.5563C102.156 58.0545 102.434 56.4971 103.992 55.0093C106.425 52.7149 108.858 45.8596 107.273 46.3046C105.952 46.3046 101.197 51.6442 101.197 51.6442L94.5082 57.3732L90.1558 58.9305L90.4478 62.0036Z" fill="#FAE0E4"/>
</g>
<mask id="mask7_1154_13244" style="mask-type:luminance" maskUnits="userSpaceOnUse" x="73" y="11" width="18" height="31">
<path d="M75.3201 11.3051C75.3201 11.3051 82.9819 12.6956 84.3307 19.5926C85.6796 26.4757 89.1003 29.5488 90.4491 30.6195C91.7979 31.7041 90.5881 41.9245 83.6911 41.0206C74.6388 40.7008 77.837 31.7458 78.0178 29.813C78.0178 29.813 80.2148 28.8674 80.8544 27.7828C81.4941 26.6982 82.5231 23.8615 82.5231 23.8615C82.5231 23.8615 78.9216 26.1142 75.9876 24.668C75.9876 24.668 75.5843 22.1373 75.8207 21.8313L74.903 21.5254L75.2367 19.8012L74.0548 19.4953C74.0548 19.4953 73.1787 19.3284 73.6515 18.3133C74.1243 17.2982 74.8056 16.0468 75.042 12.9042L75.3201 11.3051Z" fill="white"/>
</mask>
<g mask="url(#mask7_1154_13244)">
<path d="M90.6847 36.5291C91.4356 35.6947 91.9779 28.9924 90.5734 29.1732L90.3371 27.9356C90.3371 27.9356 87.4726 25.3631 87.2918 25.1963C87.111 25.0294 84.0102 17.6318 84.0102 17.6318L83.3705 16.9504C83.3705 16.9504 83.4679 22.3179 81.2291 23.2634C79.7551 23.5972 75.7504 25.3214 75.7504 25.3214L77.5581 25.5856C77.5581 25.5856 80.5616 24.6401 81.7436 24.4732C82.9255 24.3063 83.3288 21.2611 83.6347 21.3306C83.9406 21.4001 86.1377 30.23 87.4448 31.3563C88.7936 32.4965 90.6847 36.5291 90.6847 36.5291Z" fill="#E26F88"/>
<path d="M74.6937 11.3467C74.6937 11.3467 80.2836 11.2632 80.9094 17.2842C79.4632 23.7641 75.5002 25.7525 75.5002 25.7525C75.5002 25.7525 72.886 25.1268 72.7052 24.7653C72.5245 24.4037 70.6334 17.8265 70.6334 17.8265L74.6937 11.3467Z" fill="#FAE0E4"/>
</g>
<mask id="mask8_1154_13244" style="mask-type:luminance" maskUnits="userSpaceOnUse" x="69" y="31" width="27" height="19">
<path d="M75.7638 31.1617C75.7638 31.1617 74.3315 41.5072 82.48 42.1747C91.9773 43.5235 92.0747 31.3285 92.0747 31.3285C92.0747 31.3285 99.4862 45.4702 93.4791 48.6406C90.2948 49.6279 85.8312 49.1968 81.7013 48.8909C75.3466 49.7947 73.5111 48.8075 71.6617 48.0983C66.4473 44.5803 70.0487 37.1131 75.7638 31.1617Z" fill="white"/>
</mask>
<g mask="url(#mask8_1154_13244)">
<path d="M94.7867 38.9485C94.7867 38.9485 94.0914 47.5976 87.25 47.0831C84.6914 46.8746 83.0228 46.4296 80.7006 46.4018C78.3785 46.374 73.7897 47.0831 72.4409 46.082C70.9809 45.8595 68.4779 44.0796 68.4779 44.0796L71.0226 49.4331L76.0285 50.2396L83.3426 50.3231H93.5908L96.4414 46.0959L96.1216 42.5361L94.7867 38.9485Z" fill="#E26F88"/>
<path d="M77.0296 29.5208L71.2033 36.251L67.5045 43.5929L70.1604 49.4471L78.4202 49.8781C78.4202 49.8781 72.0515 47.7367 71.4814 44.761C70.7166 41.9243 71.3285 38.9486 73.0527 36.39C74.5684 34.7214 77.0296 29.5208 77.0296 29.5208Z" fill="#FAE0E4"/>
</g>
<mask id="mask9_1154_13244" style="mask-type:luminance" maskUnits="userSpaceOnUse" x="50" y="19" width="25" height="24">
<path d="M74.5696 30.0216C74.5696 30.0216 70.9264 27.7967 61.1927 33.8038C57.3409 36.9047 55.7835 39.3381 55.7835 39.3381H55.3525C55.3525 39.3381 58.509 34.2766 58.4534 31.7041C59.2599 28.8674 60.4835 24.6402 60.4835 24.6402C60.4835 24.6402 66.3376 26.6704 66.8382 21.5811C66.0317 17.3956 60.9007 20.1349 59.9551 20.7745C59.0096 21.4003 55.6723 24.0562 52.7383 33.1641C51.7093 35.7922 50.9584 38.6011 50.8611 41.3404C50.8611 41.3404 52.3907 42.4668 56.6735 42.5502C62.3329 42.3833 65.9205 40.9789 69.1326 37.739C71.0098 35.8479 72.3447 33.2754 74.5696 30.0216Z" fill="white"/>
</mask>
<g mask="url(#mask9_1154_13244)">
<path d="M76.0155 27.0736C76.0155 27.0736 74.7223 31.6067 73.5125 32.8165C71.4128 33.2058 68.8403 33.4144 66.0176 34.7771C62.7081 36.5848 55.9084 38.8514 55.9084 38.8514L56.6732 37.1132L62.6108 31.857L70.6758 28.2277L74.7362 27.4491L76.0155 27.0736Z" fill="#FAE0E4"/>
<path d="M71.2041 36.2512C69.6467 34.8606 66.8378 39.6997 60.5527 40.7148C52.8074 41.6603 49.9568 40.4506 49.9568 40.4506V44.5387L59.0787 43.2316L64.7381 42.286C64.7381 42.286 71.9411 36.8352 71.2041 36.2512Z" fill="#E26F88"/>
<path d="M66.4901 19.8568C66.4901 19.8568 66.2676 22.8047 63.5143 23.4583C60.775 24.1118 59.8433 24.237 59.8433 24.237L55.3658 39.3381L59.3288 33.5118L63.1111 28.9787L67.8806 25.6831L68.993 19.5648L66.4901 19.8568Z" fill="#E26F88"/>
<path d="M68.2006 21.4003C68.2006 21.4003 61.3592 20.8997 59.037 24.4873C56.9373 27.0876 52.3207 40.534 52.3207 40.534L49.9568 42.7588C49.9568 42.7588 50.4992 32.4272 50.527 32.3299C50.5548 32.2325 58.2305 19.3284 58.4252 19.1199C58.6337 18.9113 61.6651 17.2009 62.1379 17.1314C62.6106 17.0619 64.5713 16.9228 65.1414 17.2705C65.7254 17.5903 68.2006 21.4003 68.2006 21.4003Z" fill="#FAE0E4"/>
</g>
<mask id="mask10_1154_13244" style="mask-type:luminance" maskUnits="userSpaceOnUse" x="95" y="34" width="29" height="43">
<path d="M95.2168 69.4152C97.97 65.9806 110.513 62.8519 114.629 54.3975C116.853 50.8377 119.301 44.191 117.702 34.6381C117.674 33.623 126.379 46.9721 121.692 60.9608C119.565 67.4406 108.441 73.4477 107.092 73.9761C105.743 74.5045 97.4695 76.2566 97.4695 76.2566C97.4695 76.2566 96.5517 69.5681 95.2168 69.4152Z" fill="white"/>
</mask>
<g mask="url(#mask10_1154_13244)">
<path d="M96.663 76.8962C96.663 76.8962 99.0269 73.7953 105.437 72.6412C106.995 72.1684 108.413 71.7652 110.902 70.3468C117.994 67.6492 123.458 52.4507 123.458 52.4507L122.179 62.5182L112.515 72.0433L101.572 76.0341L96.663 76.8962Z" fill="#695328"/>
</g>
<mask id="mask11_1154_13244" style="mask-type:luminance" maskUnits="userSpaceOnUse" x="97" y="65" width="25" height="18">
<path d="M97.5526 78.5369C97.5526 78.5369 97.5526 80.7478 97.5526 81.5543C99.2908 83.0005 110.457 81.6239 113.78 79.7606C118.661 76.1313 122.012 66.0778 121.692 65.8414C121.372 65.605 118.132 71.4313 110.234 74.8381C104.658 76.6597 97.5526 78.5369 97.5526 78.5369Z" fill="white"/>
</mask>
<g mask="url(#mask11_1154_13244)">
<path d="M100.264 77.0073C100.264 77.0073 109.901 77.9946 114.67 74.6712C119.44 71.3479 122.415 64.9515 122.415 64.9515L122.332 64.2284L116.116 70.5275L102.517 76.1174L100.264 77.0073Z" fill="#59532E"/>
<path d="M97.1359 80.8034C97.1359 80.8034 103.421 82.0132 108.747 80.122C114.086 78.2309 119.829 72.349 119.829 72.349L117.465 77.5496L114.629 80.1777L111.514 83.0422L104.895 83.8487L100.237 83.1117L96.9968 81.8324L97.1359 80.8034Z" fill="#695328"/>
</g>
<mask id="mask12_1154_13244" style="mask-type:luminance" maskUnits="userSpaceOnUse" x="93" y="83" width="17" height="9">
<path d="M97.1355 83.4316C98.3591 83.7932 99.6662 84.3355 101.057 84.4467C102.447 84.558 107.175 83.9739 109.011 84.266C108.955 84.8083 100.209 90.7041 93.7704 91.1769C96.7322 87.7701 96.7183 83.6541 97.1355 83.4316Z" fill="white"/>
</mask>
<g mask="url(#mask12_1154_13244)">
<path d="M94.9105 87.77C94.9105 87.77 105.173 85.5451 109.024 83.8487L109.289 85.0028L107.467 86.6854L97.1353 91.5522L92.1433 92.0945L94.9105 87.77Z" fill="#695328"/>
</g>
<mask id="mask13_1154_13244" style="mask-type:luminance" maskUnits="userSpaceOnUse" x="79" y="4" width="35" height="36">
<path d="M106.441 29.8269C104.689 28.1721 97.3887 26.7955 97.3887 26.7955C97.3887 26.7955 91.3538 25.2659 88.5588 16.6586C88.6005 16.2136 88.6979 15.8521 88.8787 14.4755C90.2692 15.7547 91.6319 21.4698 96.4292 24.2648C99.9055 26.8372 106.441 26.1837 108.416 29.2568C109.069 30.0911 112.087 32.2186 112.17 38.5177C112.865 37.2384 113.268 35.6532 113.616 32.5662C113.143 26.1837 108.888 21.7618 105.509 21.2195C102.13 20.6772 102.408 20.7189 100.1 19.4674C95.9147 17.9101 95.3724 7.91217 89.7686 5.42312C82.816 2.1832 79.2284 5.82638 79.2284 5.82638C85.6248 7.56453 87.5576 12.195 87.7801 13.4604C88.0026 14.7257 87.1266 19.6065 87.1266 19.6065C87.5576 26.6982 93.5091 28.6866 97.6251 29.7434C98.6401 30.0076 99.544 30.6056 100.225 30.7585C103.674 31.4955 111.238 39.9082 111.238 39.9082C111.322 39.7969 111.405 39.6857 111.489 39.5745C110.293 36.265 108.596 31.5233 106.441 29.8269Z" fill="white"/>
</mask>
<g mask="url(#mask13_1154_13244)">
<g opacity="0.54">
<path d="M102.06 26.7538C102.06 26.7538 103.868 26.2115 106.607 26.7538C109.361 27.2961 113.018 30.3135 113.616 33.1919C114.213 36.0703 112.058 39.3798 112.058 39.3798L109.138 30.2996L102.06 26.7538Z" fill="#C6819A"/>
<path d="M87.279 17.0757C87.279 17.0757 88.9616 24.0144 93.3278 26.1975C94.774 26.8511 97.1518 27.7827 102.06 29.4514C108.86 32.4271 112.058 41.4238 112.058 41.4238L101.532 32.9277L92.5769 29.5487L86.2222 21.9981L87.279 17.0757Z" fill="#C6819A"/>
</g>
</g>
<path d="M83.3139 115.469C83.3139 115.469 79.9905 106.361 82.8828 99.8816C87.0266 95.2928 90.9062 90.8293 92.0742 89.0772C93.3396 87.4503 95.0639 83.0145 95.0639 79.5938C94.0071 78.4258 85.2189 72.8776 76.5837 85.7538C65.7794 103.135 76.3335 112.841 77.3903 113.314C78.4192 114.107 83.3139 115.469 83.3139 115.469Z" fill="#E88FB9"/>
<mask id="mask14_1154_13244" style="mask-type:luminance" maskUnits="userSpaceOnUse" x="71" y="77" width="25" height="39">
<path d="M83.3162 115.469C83.3162 115.469 79.9928 106.361 82.8851 99.8815C87.0289 95.2928 90.8111 90.9404 92.0765 89.0771C93.3419 87.4502 95.0661 83.0144 95.0661 79.5937C94.0093 78.4257 85.2212 72.8775 76.586 85.7538C65.7816 103.135 76.3357 112.841 77.3925 113.314C78.4215 114.107 83.3162 115.469 83.3162 115.469Z" fill="white"/>
</mask>
<g mask="url(#mask14_1154_13244)">
<path d="M92.5757 76.91C92.5757 86.1431 85.1363 89.8419 80.0053 96.6137C74.8742 103.386 78.2115 115.469 78.2115 115.469L84.5801 117.263L89.6416 93.6797L94.6614 87.3111L95.1203 78.6342C95.1203 78.6203 94.9535 76.2981 92.5757 76.91Z" fill="#E26F88"/>
<path d="M92.284 77.6748C92.284 77.6748 80.6592 81.61 76.1261 92.0528C70.8977 102.996 76.8909 114.023 76.8909 114.023L71.3983 107.363C71.3983 107.363 71.3566 96.0576 71.3983 95.7516C71.44 95.4318 73.2477 91.1907 73.2477 91.1907L77.9338 80.3585L82.3417 78.384L87.1113 76.9378L92.284 77.6748Z" fill="#FAE0E4"/>
</g>
<path d="M9.52391 126.419C9.47591 126.935 9.43991 127.433 9.41591 127.913C9.40391 128.393 9.39791 128.759 9.39791 129.011C9.39791 129.287 9.40391 129.545 9.41591 129.785C9.42791 130.025 9.43991 130.235 9.45191 130.415H9.03791C8.90591 129.515 8.72591 128.807 8.49791 128.291C8.26991 127.763 7.96391 127.391 7.57991 127.175C7.19591 126.947 6.68591 126.833 6.04991 126.833H5.27591C4.91591 126.833 4.63991 126.863 4.44791 126.923C4.25591 126.983 4.12391 127.109 4.05191 127.301C3.99191 127.493 3.96191 127.787 3.96191 128.183V137.183C3.96191 137.639 4.00991 137.981 4.10591 138.209C4.20191 138.437 4.38791 138.587 4.66391 138.659C4.93991 138.731 5.33591 138.773 5.85191 138.785V139.163C5.50391 139.139 5.05391 139.127 4.50191 139.127C3.94991 139.115 3.37991 139.109 2.79191 139.109C2.28791 139.109 1.80191 139.115 1.33391 139.127C0.865914 139.127 0.457914 139.139 0.109914 139.163V138.803C0.505914 138.779 0.799914 138.731 0.991914 138.659C1.19591 138.587 1.32791 138.443 1.38791 138.227C1.45991 138.011 1.49591 137.687 1.49591 137.255V128.327C1.49591 127.883 1.45991 127.559 1.38791 127.355C1.32791 127.139 1.19591 126.995 0.991914 126.923C0.799914 126.839 0.505914 126.791 0.109914 126.779V126.419C0.589914 126.431 1.09391 126.443 1.62191 126.455C2.16191 126.455 2.68991 126.461 3.20591 126.473C3.73391 126.473 4.21991 126.473 4.66391 126.473C5.11991 126.473 5.48591 126.473 5.76191 126.473C6.31391 126.473 6.93791 126.473 7.63391 126.473C8.34191 126.461 8.97191 126.443 9.52391 126.419ZM6.80591 132.683C6.80591 132.683 6.80591 132.743 6.80591 132.863C6.80591 132.983 6.80591 133.043 6.80591 133.043H3.42191C3.42191 133.043 3.42191 132.983 3.42191 132.863C3.42191 132.743 3.42191 132.683 3.42191 132.683H6.80591ZM7.21991 130.307C7.17191 130.991 7.14791 131.513 7.14791 131.873C7.15991 132.233 7.16591 132.563 7.16591 132.863C7.16591 133.163 7.17191 133.493 7.18391 133.853C7.19591 134.213 7.22591 134.735 7.27391 135.419H6.85991C6.81191 135.011 6.72191 134.627 6.58991 134.267C6.45791 133.895 6.25391 133.601 5.97791 133.385C5.71391 133.157 5.32991 133.043 4.82591 133.043V132.683C5.19791 132.683 5.50391 132.605 5.74391 132.449C5.98391 132.293 6.16991 132.095 6.30191 131.855C6.44591 131.603 6.55391 131.345 6.62591 131.081C6.70991 130.805 6.76991 130.547 6.80591 130.307H7.21991ZM12.6912 125.267C13.1232 125.267 13.4772 125.387 13.7532 125.627C14.0292 125.867 14.1672 126.185 14.1672 126.581C14.1672 126.977 14.0292 127.295 13.7532 127.535C13.4772 127.775 13.1232 127.895 12.6912 127.895C12.2592 127.895 11.9052 127.775 11.6292 127.535C11.3532 127.295 11.2152 126.977 11.2152 126.581C11.2152 126.185 11.3532 125.867 11.6292 125.627C11.9052 125.387 12.2592 125.267 12.6912 125.267ZM13.9512 129.659V137.489C13.9512 137.993 14.0412 138.335 14.2212 138.515C14.4132 138.695 14.7312 138.785 15.1752 138.785V139.163C14.9592 139.151 14.6292 139.139 14.1852 139.127C13.7412 139.103 13.2912 139.091 12.8352 139.091C12.3912 139.091 11.9412 139.103 11.4852 139.127C11.0292 139.139 10.6872 139.151 10.4592 139.163V138.785C10.9032 138.785 11.2152 138.695 11.3952 138.515C11.5872 138.335 11.6832 137.993 11.6832 137.489V131.837C11.6832 131.285 11.5932 130.883 11.4132 130.631C11.2452 130.367 10.9272 130.235 10.4592 130.235V129.857C10.8432 129.893 11.2152 129.911 11.5752 129.911C12.0192 129.911 12.4392 129.893 12.8352 129.857C13.2432 129.809 13.6152 129.743 13.9512 129.659ZM19.3983 126.905V129.875H21.7023V130.235H19.3983V137.399C19.3983 137.831 19.4763 138.137 19.6323 138.317C19.7883 138.497 20.0103 138.587 20.2983 138.587C20.5743 138.587 20.8263 138.485 21.0543 138.281C21.2823 138.065 21.4863 137.711 21.6663 137.219L21.9903 137.363C21.8103 137.951 21.5283 138.443 21.1443 138.839C20.7723 139.223 20.2443 139.415 19.5603 139.415C19.1523 139.415 18.8043 139.361 18.5163 139.253C18.2403 139.157 18.0003 139.013 17.7963 138.821C17.5323 138.545 17.3523 138.215 17.2563 137.831C17.1723 137.447 17.1303 136.937 17.1303 136.301V130.235H15.5463V129.875H17.1303V127.373C17.5623 127.361 17.9643 127.319 18.3363 127.247C18.7083 127.175 19.0623 127.061 19.3983 126.905ZM32.9713 126.167C33.7633 126.167 34.4113 126.287 34.9153 126.527C35.4313 126.755 35.8873 127.025 36.2833 127.337C36.5233 127.517 36.7033 127.541 36.8233 127.409C36.9553 127.265 37.0453 126.935 37.0933 126.419H37.5073C37.4833 126.875 37.4653 127.433 37.4533 128.093C37.4413 128.753 37.4353 129.623 37.4353 130.703H37.0213C36.9493 130.163 36.8713 129.713 36.7873 129.353C36.7033 128.981 36.5833 128.663 36.4273 128.399C36.2833 128.135 36.0793 127.883 35.8153 127.643C35.4913 127.283 35.1013 127.019 34.6453 126.851C34.2013 126.671 33.7333 126.581 33.2413 126.581C32.6173 126.581 32.0713 126.749 31.6033 127.085C31.1473 127.409 30.7633 127.859 30.4513 128.435C30.1513 128.999 29.9233 129.659 29.7673 130.415C29.6233 131.171 29.5513 131.975 29.5513 132.827C29.5513 133.703 29.6293 134.519 29.7853 135.275C29.9533 136.019 30.1933 136.673 30.5053 137.237C30.8293 137.789 31.2253 138.221 31.6933 138.533C32.1733 138.845 32.7253 139.001 33.3493 139.001C33.7933 139.001 34.2493 138.917 34.7173 138.749C35.1853 138.581 35.5693 138.323 35.8693 137.975C36.2653 137.615 36.5353 137.189 36.6793 136.697C36.8233 136.193 36.9373 135.527 37.0213 134.699H37.4353C37.4353 135.827 37.4413 136.739 37.4533 137.435C37.4653 138.119 37.4833 138.695 37.5073 139.163H37.0933C37.0453 138.647 36.9613 138.323 36.8413 138.191C36.7333 138.059 36.5473 138.077 36.2833 138.245C35.8393 138.557 35.3653 138.833 34.8613 139.073C34.3693 139.301 33.7333 139.415 32.9533 139.415C31.7293 139.415 30.6553 139.157 29.7313 138.641C28.8073 138.125 28.0873 137.381 27.5713 136.409C27.0673 135.437 26.8153 134.267 26.8153 132.899C26.8153 131.555 27.0793 130.379 27.6073 129.371C28.1353 128.363 28.8613 127.577 29.7853 127.013C30.7093 126.449 31.7713 126.167 32.9713 126.167ZM42.4248 125.069V131.441C42.7248 130.769 43.1388 130.295 43.6668 130.019C44.2068 129.743 44.7888 129.605 45.4128 129.605C45.9048 129.605 46.3068 129.671 46.6188 129.803C46.9308 129.935 47.1828 130.103 47.3748 130.307C47.5788 130.535 47.7228 130.829 47.8068 131.189C47.9028 131.549 47.9508 132.035 47.9508 132.647V137.489C47.9508 137.993 48.0408 138.335 48.2208 138.515C48.4128 138.695 48.7308 138.785 49.1748 138.785V139.163C48.9588 139.151 48.6288 139.139 48.1848 139.127C47.7408 139.103 47.3028 139.091 46.8708 139.091C46.4388 139.091 46.0128 139.103 45.5928 139.127C45.1728 139.139 44.8548 139.151 44.6388 139.163V138.785C45.0228 138.785 45.2928 138.695 45.4488 138.515C45.6048 138.335 45.6828 137.993 45.6828 137.489V132.035C45.6828 131.711 45.6528 131.423 45.5928 131.171C45.5328 130.907 45.4128 130.703 45.2328 130.559C45.0648 130.403 44.8068 130.325 44.4588 130.325C44.0748 130.325 43.7268 130.433 43.4148 130.649C43.1148 130.853 42.8748 131.147 42.6948 131.531C42.5148 131.903 42.4248 132.329 42.4248 132.809V137.489C42.4248 137.993 42.5028 138.335 42.6588 138.515C42.8268 138.695 43.0968 138.785 43.4688 138.785V139.163C43.2648 139.151 42.9588 139.139 42.5508 139.127C42.1548 139.103 41.7408 139.091 41.3088 139.091C40.8768 139.091 40.4268 139.103 39.9588 139.127C39.5028 139.139 39.1608 139.151 38.9328 139.163V138.785C39.3768 138.785 39.6888 138.695 39.8688 138.515C40.0608 138.335 40.1568 137.993 40.1568 137.489V127.229C40.1568 126.689 40.0668 126.293 39.8868 126.041C39.7188 125.777 39.4008 125.645 38.9328 125.645V125.267C39.3168 125.303 39.6888 125.321 40.0488 125.321C40.5048 125.321 40.9308 125.303 41.3268 125.267C41.7228 125.219 42.0888 125.153 42.4248 125.069ZM52.1189 125.267C52.5509 125.267 52.9049 125.387 53.1809 125.627C53.4569 125.867 53.5949 126.185 53.5949 126.581C53.5949 126.977 53.4569 127.295 53.1809 127.535C52.9049 127.775 52.5509 127.895 52.1189 127.895C51.6869 127.895 51.3329 127.775 51.0569 127.535C50.7809 127.295 50.6429 126.977 50.6429 126.581C50.6429 126.185 50.7809 125.867 51.0569 125.627C51.3329 125.387 51.6869 125.267 52.1189 125.267ZM53.3789 129.659V137.489C53.3789 137.993 53.4689 138.335 53.6489 138.515C53.8409 138.695 54.1589 138.785 54.6029 138.785V139.163C54.3869 139.151 54.0569 139.139 53.6129 139.127C53.1689 139.103 52.7189 139.091 52.2629 139.091C51.8189 139.091 51.3689 139.103 50.9129 139.127C50.4569 139.139 50.1149 139.151 49.8869 139.163V138.785C50.3309 138.785 50.6429 138.695 50.8229 138.515C51.0149 138.335 51.1109 137.993 51.1109 137.489V131.837C51.1109 131.285 51.0209 130.883 50.8409 130.631C50.6729 130.367 50.3549 130.235 49.8869 130.235V129.857C50.2709 129.893 50.6429 129.911 51.0029 129.911C51.4469 129.911 51.8669 129.893 52.2629 129.857C52.6709 129.809 53.0429 129.743 53.3789 129.659ZM60.0321 129.605C60.4761 129.605 60.8841 129.659 61.2561 129.767C61.6401 129.863 61.9701 130.001 62.2461 130.181C62.5341 130.361 62.7621 130.589 62.9301 130.865C63.0981 131.129 63.1821 131.423 63.1821 131.747C63.1821 132.143 63.0621 132.461 62.8221 132.701C62.5821 132.941 62.2821 133.061 61.9221 133.061C61.5501 133.061 61.2441 132.953 61.0041 132.737C60.7761 132.521 60.6621 132.233 60.6621 131.873C60.6621 131.525 60.7641 131.237 60.9681 131.009C61.1721 130.781 61.4181 130.631 61.7061 130.559C61.5981 130.403 61.4301 130.277 61.2021 130.181C60.9741 130.073 60.7221 130.019 60.4461 130.019C60.0861 130.019 59.7621 130.115 59.4741 130.307C59.1861 130.487 58.9341 130.763 58.7181 131.135C58.5141 131.495 58.3521 131.945 58.2321 132.485C58.1241 133.013 58.0701 133.625 58.0701 134.321C58.0701 135.293 58.1841 136.061 58.4121 136.625C58.6521 137.189 58.9581 137.591 59.3301 137.831C59.7021 138.059 60.0981 138.173 60.5181 138.173C60.7701 138.173 61.0401 138.125 61.3281 138.029C61.6161 137.933 61.8981 137.771 62.1741 137.543C62.4621 137.315 62.7201 136.991 62.9481 136.571L63.2901 136.697C63.1581 137.117 62.9421 137.537 62.6421 137.957C62.3541 138.377 61.9761 138.725 61.5081 139.001C61.0401 139.277 60.4701 139.415 59.7981 139.415C59.0301 139.415 58.3341 139.241 57.7101 138.893C57.0861 138.533 56.5881 137.993 56.2161 137.273C55.8561 136.553 55.6761 135.659 55.6761 134.591C55.6761 133.535 55.8621 132.641 56.2341 131.909C56.6061 131.165 57.1221 130.595 57.7821 130.199C58.4541 129.803 59.2041 129.605 60.0321 129.605ZM67.667 125.069V137.489C67.667 137.993 67.751 138.335 67.919 138.515C68.087 138.695 68.375 138.785 68.783 138.785V139.163C68.579 139.151 68.267 139.139 67.847 139.127C67.427 139.103 67.001 139.091 66.569 139.091C66.125 139.091 65.669 139.103 65.201 139.127C64.745 139.139 64.403 139.151 64.175 139.163V138.785C64.619 138.785 64.931 138.695 65.111 138.515C65.303 138.335 65.399 137.993 65.399 137.489V127.229C65.399 126.689 65.309 126.293 65.129 126.041C64.961 125.777 64.643 125.645 64.175 125.645V125.267C64.559 125.303 64.931 125.321 65.291 125.321C65.747 125.321 66.173 125.303 66.569 125.267C66.965 125.219 67.331 125.153 67.667 125.069ZM73.499 129.857V130.217C73.139 130.289 72.791 130.427 72.455 130.631C72.119 130.823 71.789 131.093 71.465 131.441L69.683 133.295L69.881 132.899L73.049 137.849C73.217 138.089 73.373 138.293 73.517 138.461C73.673 138.617 73.865 138.725 74.093 138.785V139.163C73.937 139.151 73.691 139.139 73.355 139.127C73.019 139.103 72.683 139.091 72.347 139.091C71.939 139.091 71.519 139.103 71.087 139.127C70.667 139.139 70.349 139.151 70.133 139.163V138.785C70.373 138.785 70.535 138.731 70.619 138.623C70.715 138.503 70.703 138.353 70.583 138.173L68.711 135.023C68.543 134.759 68.381 134.591 68.225 134.519C68.069 134.435 67.859 134.393 67.595 134.393V134.033C67.895 134.009 68.141 133.955 68.333 133.871C68.537 133.787 68.729 133.655 68.909 133.475L70.259 132.125C70.655 131.729 70.853 131.393 70.853 131.117C70.865 130.841 70.739 130.631 70.475 130.487C70.223 130.331 69.893 130.241 69.485 130.217V129.857C69.809 129.869 70.169 129.887 70.565 129.911C70.961 129.923 71.297 129.929 71.573 129.929C71.789 129.929 72.017 129.929 72.257 129.929C72.509 129.917 72.743 129.905 72.959 129.893C73.187 129.881 73.367 129.869 73.499 129.857ZM94.0485 126.419V126.779C93.6645 126.791 93.3705 126.839 93.1665 126.923C92.9625 126.995 92.8245 127.139 92.7525 127.355C92.6925 127.559 92.6625 127.883 92.6625 128.327V137.255C92.6625 137.687 92.6985 138.011 92.7705 138.227C92.8425 138.443 92.9745 138.587 93.1665 138.659C93.3705 138.731 93.6645 138.779 94.0485 138.803V139.163C93.7365 139.139 93.3405 139.127 92.8605 139.127C92.3805 139.115 91.8945 139.109 91.4025 139.109C90.8625 139.109 90.3525 139.115 89.8725 139.127C89.4045 139.127 89.0265 139.139 88.7385 139.163V138.803C89.1465 138.779 89.4525 138.731 89.6565 138.659C89.8725 138.587 90.0165 138.443 90.0885 138.227C90.1605 138.011 90.1965 137.687 90.1965 137.255V127.463L90.3225 127.481L85.8585 139.217H85.5705L80.8185 127.571V136.499C80.8185 137.075 80.8545 137.525 80.9265 137.849C80.9985 138.161 81.1545 138.389 81.3945 138.533C81.6465 138.665 82.0245 138.755 82.5285 138.803V139.163C82.3005 139.139 82.0065 139.127 81.6465 139.127C81.2865 139.115 80.9445 139.109 80.6205 139.109C80.3325 139.109 80.0385 139.115 79.7385 139.127C79.4505 139.127 79.2105 139.139 79.0185 139.163V138.803C79.4145 138.755 79.7085 138.665 79.9005 138.533C80.1045 138.401 80.2365 138.185 80.2965 137.885C80.3685 137.585 80.4045 137.171 80.4045 136.643V128.327C80.4045 127.883 80.3685 127.559 80.2965 127.355C80.2365 127.139 80.1045 126.995 79.9005 126.923C79.7085 126.839 79.4145 126.791 79.0185 126.779V126.419C79.2105 126.431 79.4505 126.443 79.7385 126.455C80.0385 126.467 80.3325 126.473 80.6205 126.473C81.0645 126.473 81.4965 126.467 81.9165 126.455C82.3365 126.443 82.7085 126.431 83.0325 126.419L86.9025 136.085L86.5065 136.409L90.2685 126.473C90.4485 126.473 90.6345 126.473 90.8265 126.473C91.0305 126.473 91.2225 126.473 91.4025 126.473C91.8945 126.473 92.3805 126.467 92.8605 126.455C93.3405 126.443 93.7365 126.431 94.0485 126.419ZM99.4238 129.605C100.252 129.605 100.984 129.773 101.62 130.109C102.268 130.433 102.778 130.955 103.15 131.675C103.534 132.395 103.726 133.343 103.726 134.519C103.726 135.695 103.534 136.643 103.15 137.363C102.778 138.083 102.268 138.605 101.62 138.929C100.984 139.253 100.252 139.415 99.4238 139.415C98.5958 139.415 97.8578 139.253 97.2098 138.929C96.5618 138.605 96.0518 138.083 95.6798 137.363C95.3078 136.643 95.1218 135.695 95.1218 134.519C95.1218 133.343 95.3078 132.395 95.6798 131.675C96.0518 130.955 96.5618 130.433 97.2098 130.109C97.8578 129.773 98.5958 129.605 99.4238 129.605ZM99.4238 129.965C98.8598 129.965 98.3978 130.325 98.0378 131.045C97.6898 131.753 97.5158 132.911 97.5158 134.519C97.5158 136.127 97.6898 137.285 98.0378 137.993C98.3978 138.701 98.8598 139.055 99.4238 139.055C99.9758 139.055 100.432 138.701 100.792 137.993C101.152 137.285 101.332 136.127 101.332 134.519C101.332 132.911 101.152 131.753 100.792 131.045C100.432 130.325 99.9758 129.965 99.4238 129.965ZM113.245 129.857V130.235C113.017 130.283 112.801 130.409 112.597 130.613C112.405 130.817 112.219 131.177 112.039 131.693L109.285 139.217C109.141 139.205 108.997 139.199 108.853 139.199C108.709 139.199 108.559 139.205 108.403 139.217L105.163 131.243C104.983 130.787 104.797 130.505 104.605 130.397C104.413 130.289 104.251 130.235 104.119 130.235V129.857C104.455 129.881 104.803 129.905 105.163 129.929C105.523 129.941 105.919 129.947 106.351 129.947C106.723 129.947 107.113 129.941 107.521 129.929C107.941 129.905 108.331 129.881 108.691 129.857V130.235C108.427 130.235 108.187 130.253 107.971 130.289C107.767 130.325 107.629 130.421 107.557 130.577C107.485 130.721 107.515 130.979 107.647 131.351L109.807 136.949L109.645 137.147L111.283 132.701C111.487 132.137 111.571 131.681 111.535 131.333C111.499 130.985 111.367 130.721 111.139 130.541C110.923 130.361 110.611 130.259 110.203 130.235V129.857C110.407 129.869 110.599 129.881 110.779 129.893C110.971 129.905 111.157 129.917 111.337 129.929C111.529 129.929 111.709 129.929 111.877 129.929C112.129 129.929 112.375 129.923 112.615 129.911C112.867 129.899 113.077 129.881 113.245 129.857ZM118.038 129.605C119.094 129.605 119.922 129.923 120.522 130.559C121.122 131.195 121.422 132.209 121.422 133.601H115.356L115.338 133.259H119.334C119.358 132.671 119.322 132.131 119.226 131.639C119.13 131.135 118.974 130.733 118.758 130.433C118.554 130.133 118.284 129.983 117.948 129.983C117.492 129.983 117.096 130.253 116.76 130.793C116.424 131.321 116.214 132.191 116.13 133.403L116.202 133.511C116.178 133.667 116.16 133.835 116.148 134.015C116.148 134.195 116.148 134.375 116.148 134.555C116.148 135.383 116.268 136.067 116.508 136.607C116.748 137.147 117.06 137.543 117.444 137.795C117.828 138.047 118.224 138.173 118.632 138.173C118.908 138.173 119.19 138.131 119.478 138.047C119.766 137.963 120.048 137.807 120.324 137.579C120.6 137.351 120.852 137.027 121.08 136.607L121.422 136.751C121.29 137.171 121.068 137.591 120.756 138.011C120.456 138.419 120.066 138.755 119.586 139.019C119.106 139.283 118.542 139.415 117.894 139.415C117.078 139.415 116.358 139.235 115.734 138.875C115.11 138.515 114.624 137.981 114.276 137.273C113.928 136.553 113.754 135.677 113.754 134.645C113.754 133.553 113.934 132.635 114.294 131.891C114.666 131.147 115.176 130.583 115.824 130.199C116.472 129.803 117.21 129.605 118.038 129.605ZM128.856 129.605C129.324 129.605 129.714 129.671 130.026 129.803C130.35 129.935 130.602 130.103 130.782 130.307C130.998 130.535 131.148 130.841 131.232 131.225C131.316 131.597 131.358 132.071 131.358 132.647V137.489C131.358 137.993 131.442 138.335 131.61 138.515C131.79 138.695 132.09 138.785 132.51 138.785V139.163C132.294 139.151 131.97 139.139 131.538 139.127C131.106 139.103 130.686 139.091 130.278 139.091C129.846 139.091 129.426 139.103 129.018 139.127C128.622 139.139 128.322 139.151 128.118 139.163V138.785C128.466 138.785 128.712 138.695 128.856 138.515C129.012 138.335 129.09 137.993 129.09 137.489V132.035C129.09 131.711 129.066 131.423 129.018 131.171C128.97 130.907 128.868 130.703 128.712 130.559C128.556 130.403 128.316 130.325 127.992 130.325C127.62 130.325 127.284 130.433 126.984 130.649C126.684 130.865 126.444 131.165 126.264 131.549C126.096 131.921 126.012 132.341 126.012 132.809V137.489C126.012 137.993 126.084 138.335 126.228 138.515C126.372 138.695 126.624 138.785 126.984 138.785V139.163C126.78 139.151 126.48 139.139 126.084 139.127C125.7 139.103 125.304 139.091 124.896 139.091C124.452 139.091 124.002 139.103 123.546 139.127C123.09 139.139 122.748 139.151 122.52 139.163V138.785C122.964 138.785 123.276 138.695 123.456 138.515C123.648 138.335 123.744 137.993 123.744 137.489V131.819C123.744 131.279 123.654 130.883 123.474 130.631C123.306 130.367 122.988 130.235 122.52 130.235V129.857C122.904 129.893 123.276 129.911 123.636 129.911C124.08 129.911 124.5 129.893 124.896 129.857C125.304 129.809 125.676 129.743 126.012 129.659V131.459C126.312 130.799 126.714 130.325 127.218 130.037C127.722 129.749 128.268 129.605 128.856 129.605ZM134.274 129.605C134.742 129.605 135.132 129.671 135.444 129.803C135.768 129.935 136.02 130.103 136.2 130.307C136.416 130.535 136.566 130.841 136.65 131.225C136.734 131.597 136.776 132.071 136.776 132.647V137.489C136.776 137.993 136.866 138.335 137.046 138.515C137.238 138.695 137.556 138.785 138 138.785V139.163C137.784 139.151 137.448 139.139 136.992 139.127C136.548 139.103 136.116 139.091 135.696 139.091C135.264 139.091 134.844 139.103 134.436 139.127C134.04 139.139 133.74 139.151 133.536 139.163V138.785C133.884 138.785 134.13 138.695 134.274 138.515C134.43 138.335 134.508 137.993 134.508 137.489V132.035C134.508 131.711 134.478 131.423 134.418 131.171C134.37 130.907 134.262 130.703 134.094 130.559C133.926 130.403 133.674 130.325 133.338 130.325C132.966 130.325 132.63 130.439 132.33 130.667C132.03 130.895 131.79 131.201 131.61 131.585C131.442 131.957 131.352 132.377 131.34 132.845L131.25 131.549C131.574 130.805 132.006 130.295 132.546 130.019C133.086 129.743 133.662 129.605 134.274 129.605ZM143.245 129.605C144.301 129.605 145.129 129.923 145.729 130.559C146.329 131.195 146.629 132.209 146.629 133.601H140.563L140.545 133.259H144.541C144.565 132.671 144.529 132.131 144.433 131.639C144.337 131.135 144.181 130.733 143.965 130.433C143.761 130.133 143.491 129.983 143.155 129.983C142.699 129.983 142.303 130.253 141.967 130.793C141.631 131.321 141.421 132.191 141.337 133.403L141.409 133.511C141.385 133.667 141.367 133.835 141.355 134.015C141.355 134.195 141.355 134.375 141.355 134.555C141.355 135.383 141.475 136.067 141.715 136.607C141.955 137.147 142.267 137.543 142.651 137.795C143.035 138.047 143.431 138.173 143.839 138.173C144.115 138.173 144.397 138.131 144.685 138.047C144.973 137.963 145.255 137.807 145.531 137.579C145.807 137.351 146.059 137.027 146.287 136.607L146.629 136.751C146.497 137.171 146.275 137.591 145.963 138.011C145.663 138.419 145.273 138.755 144.793 139.019C144.313 139.283 143.749 139.415 143.101 139.415C142.285 139.415 141.565 139.235 140.941 138.875C140.317 138.515 139.831 137.981 139.483 137.273C139.135 136.553 138.961 135.677 138.961 134.645C138.961 133.553 139.141 132.635 139.501 131.891C139.873 131.147 140.383 130.583 141.031 130.199C141.679 129.803 142.417 129.605 143.245 129.605ZM154.189 129.605C154.693 129.605 155.095 129.671 155.395 129.803C155.707 129.935 155.959 130.103 156.151 130.307C156.367 130.535 156.517 130.829 156.601 131.189C156.697 131.549 156.745 132.035 156.745 132.647V137.489C156.745 137.993 156.835 138.335 157.015 138.515C157.207 138.695 157.525 138.785 157.969 138.785V139.163C157.753 139.151 157.417 139.139 156.961 139.127C156.517 139.103 156.085 139.091 155.665 139.091C155.221 139.091 154.789 139.103 154.369 139.127C153.949 139.139 153.637 139.151 153.433 139.163V138.785C153.817 138.785 154.087 138.695 154.243 138.515C154.399 138.335 154.477 137.993 154.477 137.489V132.035C154.477 131.711 154.447 131.423 154.387 131.171C154.327 130.907 154.207 130.703 154.027 130.559C153.847 130.403 153.589 130.325 153.253 130.325C152.857 130.325 152.503 130.433 152.191 130.649C151.891 130.865 151.651 131.165 151.471 131.549C151.303 131.921 151.219 132.341 151.219 132.809V137.489C151.219 137.993 151.297 138.335 151.453 138.515C151.609 138.695 151.879 138.785 152.263 138.785V139.163C152.059 139.151 151.753 139.139 151.345 139.127C150.937 139.103 150.523 139.091 150.103 139.091C149.659 139.091 149.209 139.103 148.753 139.127C148.297 139.139 147.955 139.151 147.727 139.163V138.785C148.171 138.785 148.483 138.695 148.663 138.515C148.855 138.335 148.951 137.993 148.951 137.489V131.819C148.951 131.279 148.861 130.883 148.681 130.631C148.513 130.367 148.195 130.235 147.727 130.235V129.857C148.111 129.893 148.483 129.911 148.843 129.911C149.287 129.911 149.707 129.893 150.103 129.857C150.511 129.809 150.883 129.743 151.219 129.659V131.459C151.519 130.775 151.933 130.295 152.461 130.019C152.989 129.743 153.565 129.605 154.189 129.605ZM162.08 126.905V129.875H164.384V130.235H162.08V137.399C162.08 137.831 162.158 138.137 162.314 138.317C162.47 138.497 162.692 138.587 162.98 138.587C163.256 138.587 163.508 138.485 163.736 138.281C163.964 138.065 164.168 137.711 164.348 137.219L164.672 137.363C164.492 137.951 164.21 138.443 163.826 138.839C163.454 139.223 162.926 139.415 162.242 139.415C161.834 139.415 161.486 139.361 161.198 139.253C160.922 139.157 160.682 139.013 160.478 138.821C160.214 138.545 160.034 138.215 159.938 137.831C159.854 137.447 159.812 136.937 159.812 136.301V130.235H158.228V129.875H159.812V127.373C160.244 127.361 160.646 127.319 161.018 127.247C161.39 127.175 161.744 127.061 162.08 126.905Z" fill="#25292A"/>
</svg>
