<svg width="24" height="30" viewBox="0 0 24 30" fill="none" xmlns="http://www.w3.org/2000/svg">
<path d="M22.5874 15.6648C20.3712 9.86142 12.4805 9.5485 14.3861 1.11371C14.5272 0.487861 13.8638 0.00424747 13.3274 0.331398C8.20336 3.37532 4.51912 9.47738 7.61049 17.4712C7.86458 18.1255 7.10232 18.7372 6.5518 18.3104C3.99684 16.3618 3.72864 13.5596 3.95449 11.5541C4.03919 10.8144 3.07931 10.4588 2.66995 11.0705C1.71008 12.5497 0.736084 14.9394 0.736084 18.538C1.27249 26.5034 7.94927 28.9499 10.349 29.2629C13.7791 29.7038 17.4916 29.0637 20.1595 26.603C23.0956 23.8578 24.1684 19.4768 22.5874 15.6648ZM9.4879 22.8194C11.5206 22.3216 12.5651 20.8423 12.8475 19.5337C13.3133 17.4997 11.4923 15.5083 12.7204 12.2937C13.1862 14.9536 17.3363 16.6178 17.3363 19.5195C17.4492 23.1181 13.5815 26.2047 9.4879 22.8194Z" fill="#E88FB9"/>
</svg>
