<svg width="17" height="22" viewBox="0 0 17 22" fill="none" xmlns="http://www.w3.org/2000/svg">
<path d="M15.7908 11.6527C14.2256 7.63314 8.65239 7.4164 9.99833 1.57427C10.098 1.14079 9.62944 0.80583 9.25058 1.03242C5.63151 3.14071 3.02936 7.36714 5.21277 12.9039C5.39223 13.357 4.85385 13.7807 4.46503 13.4851C2.66047 12.1354 2.47104 10.1946 2.63056 8.8055C2.69038 8.29321 2.01243 8.04691 1.7233 8.47054C1.04535 9.49513 0.357422 11.1502 0.357422 13.6427C0.736279 19.1598 5.45205 20.8543 7.14693 21.071C9.56962 21.3764 12.1917 20.9331 14.076 19.2287C16.1498 17.3273 16.9075 14.293 15.7908 11.6527ZM6.53877 16.6081C7.97443 16.2633 8.71221 15.2387 8.91161 14.3324C9.24061 12.9236 7.95449 11.5443 8.82188 9.3178C9.15088 11.1601 12.082 12.3128 12.082 14.3225C12.1618 16.815 9.43004 18.9529 6.53877 16.6081Z" fill="#6E683B"/>
</svg>
