<svg width="479" height="670" viewBox="0 0 479 670" fill="none" xmlns="http://www.w3.org/2000/svg">
<path d="M179.181 667.857C260.412 667.857 326.264 602.112 326.264 521.011C326.264 439.911 260.412 374.166 179.181 374.166C97.9494 374.166 32.0983 439.911 32.0983 521.011C32.0983 602.112 97.9494 667.857 179.181 667.857Z" fill="#E88FB9"/>
<path d="M153.468 623.621C141.894 623.621 130.32 622.301 118.871 619.536C78.3311 609.923 44.1098 584.286 22.526 547.276C0.942197 510.329 -5.37654 466.47 4.63334 423.806C14.6432 381.141 39.8556 344.822 75.6409 321.448C111.426 298.073 153.468 290.533 194.008 300.147C234.548 309.76 268.769 335.397 290.353 372.407C311.937 409.354 318.255 453.212 308.246 495.877C298.236 538.542 272.961 574.861 237.238 598.235C211.588 614.949 182.747 623.621 153.468 623.621ZM159.599 297.382C88.7163 297.382 23.527 348.718 5.75945 424.12C-4.18787 466.47 2.13087 509.952 23.527 546.648C44.9231 583.343 78.8941 608.792 119.121 618.342C130.508 621.044 142.019 622.364 153.468 622.364C182.496 622.364 211.087 613.818 236.55 597.167C272.022 573.981 297.047 537.914 307.057 495.563C317.004 453.212 310.685 409.731 289.289 373.035C267.893 336.339 233.922 310.891 193.695 301.34C182.309 298.639 170.86 297.382 159.599 297.382Z" fill="white"/>
<path d="M104.17 547.842C90.4692 547.842 77.9568 544.386 67.2588 537.349C45.0493 522.771 33.4129 494.809 34.6015 458.554C35.7902 422.361 49.4912 382.272 73.2647 345.639C97.0382 309.006 128.006 280.165 160.538 264.456C193.07 248.748 223.288 248.119 245.497 262.634C267.707 277.212 279.343 305.173 278.154 341.429C276.966 377.622 263.265 417.711 239.491 454.344C215.718 490.976 184.75 519.818 152.218 535.526C135.326 543.758 119.06 547.842 104.17 547.842ZM73.7026 345.89L74.078 346.142C50.3671 382.649 36.7286 422.612 35.54 458.554C34.4138 494.495 45.8626 522.142 67.7593 536.532C113.117 566.253 189.817 529.117 238.678 453.841C287.539 378.565 290.354 293.109 244.997 263.451C199.639 233.73 122.939 270.866 74.078 346.142L73.7026 345.89Z" fill="white"/>
<path d="M91.093 491.479C82.0841 491.479 74.7018 488.777 70.385 483.122C64.6293 475.707 64.817 464.397 70.9481 451.327C77.0166 438.321 88.09 425.125 102.292 414.066L102.542 414.38L102.292 414.066C131.633 391.194 165.104 385.037 176.865 400.305C188.627 415.574 174.3 446.552 144.959 469.424C126.44 483.687 106.358 491.479 91.093 491.479ZM102.792 414.695C88.7156 425.628 77.7048 438.76 71.6988 451.642C65.7555 464.397 65.5052 475.393 71.0732 482.556C82.522 497.448 115.429 491.165 144.458 468.607C173.487 446.049 187.688 415.574 176.177 400.745C164.666 385.916 131.758 392.137 102.792 414.695Z" fill="white"/>
<g opacity="0.3">
<path opacity="0.3" d="M303.804 443.033C309.122 458.051 311.812 473.885 311.749 489.845C311.749 567.446 249.125 630.281 171.924 630.281C99.8526 630.281 40.5441 575.552 32.9116 505.24C32.3485 510.455 32.0983 515.733 32.0983 521.011C32.0983 602.068 97.9758 667.856 179.181 667.856C260.386 667.856 326.264 602.131 326.264 521.074C326.326 493.427 318.506 466.345 303.804 443.033Z" fill="#543753"/>
</g>
<path d="M272.835 115.915C272.835 115.915 262.012 122.889 251.752 139.792C241.492 156.694 230.543 172.592 230.543 172.592C230.543 172.592 226.539 138.347 228.416 133.822C230.293 129.298 237.05 119.308 238.614 115.915C240.178 112.521 247.623 107.683 247.685 105.735C247.748 103.787 246.934 97.6924 246.622 97.5039C246.309 97.3154 242.555 98.6977 241.992 100.708C241.554 102.154 241.241 103.41 241.241 103.41C241.241 103.41 236.174 106.238 235.298 106.301C234.422 106.364 230.293 104.164 230.23 103.787C230.168 103.41 233.671 95.2418 234.735 94.802C235.798 94.3621 241.679 98.9491 242.805 98.9491C243.932 98.9491 246.309 97.4411 246.434 96.5614C246.559 95.6817 239.114 88.0158 238.489 87.953C237.863 87.8901 231.482 86.7591 230.606 87.3875C229.73 88.0158 224.975 92.1629 224.975 92.1629C224.975 92.1629 224.975 77.8994 224.975 75.009C224.975 72.1186 224.35 63.196 223.036 62.5677C221.722 62.065 220.283 61.9393 218.907 62.1278C218.281 62.3163 217.906 66.2749 217.906 66.2749C217.906 66.2749 214.59 65.7722 213.714 66.4634C212.838 67.1546 211.024 94.1736 211.024 94.425C211.024 94.6763 206.332 88.9583 205.769 87.8901C205.206 86.8219 203.266 80.2871 202.391 80.0358C201.515 79.7844 199.012 79.5959 198.699 80.2243C198.387 80.8526 200.389 90.2779 200.514 91.3461C200.639 92.4143 206.582 105.107 206.895 107.055C207.208 109.003 208.459 125.34 208.834 128.67C209.21 132 205.018 171.146 204.08 187.484C203.141 203.821 203.955 218.461 204.956 219.969C205.957 221.477 214.152 226.818 218.531 224.619C222.911 222.42 234.985 212.932 246.497 201.873C258.008 190.814 271.584 176.299 271.584 176.299L272.835 115.915Z" fill="#FFEDE5"/>
<path d="M230.481 172.529C230.481 172.529 231.607 181.325 232.045 189.243C232.045 189.243 234.485 181.765 233.296 168.382L230.481 172.529Z" fill="#DE835C"/>
<path d="M210.337 102.593C210.274 102.593 210.211 102.593 210.149 102.531C210.024 102.405 210.024 102.216 210.149 102.091C212.026 99.9544 222.724 93.1682 223.162 92.854C223.287 92.7912 223.475 92.7912 223.6 92.9797C223.662 93.1054 223.662 93.2939 223.475 93.4195C223.349 93.4824 212.401 100.457 210.587 102.531C210.524 102.593 210.399 102.593 210.337 102.593Z" fill="#472938"/>
<path d="M218.532 90.5292C218.47 90.5292 218.532 90.5292 218.532 90.5292C218.344 90.5292 218.219 90.4036 218.219 90.2151C218.219 90.0266 218.97 73.3125 218.782 70.2964C218.595 67.4688 217.719 66.652 217.719 66.652C217.594 66.5263 217.594 66.3378 217.656 66.2121C217.781 66.0865 217.969 66.0865 218.094 66.1493C218.219 66.2121 219.158 67.1547 219.345 70.2336C219.533 73.3125 218.782 89.5867 218.782 90.2779C218.782 90.4036 218.657 90.5292 218.532 90.5292Z" fill="#472938"/>
<path d="M220.471 116.731C220.409 116.669 220.409 116.731 220.471 116.731C220.221 116.669 220.158 116.543 220.158 116.354C221.472 108.94 229.668 103.725 229.98 103.536C230.106 103.473 230.293 103.473 230.418 103.662C230.481 103.787 230.481 103.976 230.293 104.102C230.231 104.164 221.973 109.38 220.721 116.543C220.721 116.606 220.596 116.731 220.471 116.731Z" fill="#472938"/>
<path d="M279.78 662.516C280.031 663.836 282.971 668.171 297.798 669.491C312.625 670.81 330.768 665.406 339.715 664.401C347.222 663.584 356.794 660.757 359.672 659.814C360.172 659.688 360.548 659.186 360.548 658.62C360.548 657.74 360.485 656.295 360.423 654.536C348.286 654.724 331.144 659.249 310.561 662.076C295.046 664.213 284.598 660.128 280.031 657.678C279.78 659.311 279.718 660.882 279.78 662.516Z" fill="#E5E5E5"/>
<path d="M358.546 625.632C353.104 626.134 350.851 630.658 348.224 632.166C345.596 633.674 337.839 634.303 338.527 624.438C339.215 614.573 331.645 611.619 331.645 611.619C329.58 611.682 324.012 622.741 314.566 634.68C305.119 646.618 282.471 652.902 281.47 653.279C280.907 653.467 280.469 655.541 280.157 657.677C284.724 660.065 295.171 664.212 310.687 662.076C331.207 659.248 348.411 654.724 360.548 654.536C360.361 648.064 359.985 637.005 359.36 632.292C358.984 630.47 358.797 628.082 358.546 625.632Z" fill="#3B2645"/>
<path d="M338.525 624.501C337.899 634.366 345.595 633.737 348.222 632.229C350.85 630.721 353.164 626.197 358.545 625.694C358.044 619.348 357.669 612.562 357.669 612.562L331.581 611.682C331.643 611.682 339.151 614.698 338.525 624.501Z" fill="#FFEDE5"/>
<path d="M309.872 648.881C322.134 647.749 338.526 626.637 338.526 626.637C338.463 625.946 338.463 625.192 338.526 624.501C339.151 614.636 331.644 611.682 331.644 611.682C329.579 611.745 324.011 622.804 314.564 634.743C310.936 639.392 305.243 643.163 299.675 646.053C302.553 648.315 306.181 649.32 309.872 648.881Z" fill="#685E6C"/>
<path d="M235.987 658.746C237.051 662.076 243.87 663.27 258.947 663.27C274.025 663.27 281.219 636.376 287.35 630.91C293.481 625.506 306.181 606.907 306.181 603.702C306.181 602.76 304.304 600.435 301.614 597.544C298.924 603.325 292.918 614.95 284.097 623.307C276.777 630.281 276.464 653.719 258.259 658.054C249.751 660.065 241.805 657.803 235.799 654.85C235.549 656.169 235.674 657.489 235.987 658.746Z" fill="#E5E5E5"/>
<path d="M282.971 579.511C276.527 586.423 278.592 594.842 278.279 598.235C277.966 601.629 266.392 602.508 264.578 601.754C262.764 601 260.824 598.173 257.196 598.235C255.006 598.298 253.004 599.367 251.815 601.189C250.877 613.19 249.188 627.454 248.437 633.109C247.186 642.471 241.805 644.859 239.115 646.744C237.238 648.001 235.987 651.708 235.737 654.913C241.743 657.866 249.688 660.128 258.197 658.117C276.465 653.844 276.715 630.344 284.035 623.369C292.856 615.012 298.862 603.451 301.552 597.607C295.045 590.57 283.784 580.453 282.971 579.511Z" fill="#3B2645"/>
<path d="M257.133 598.173C260.824 598.11 262.701 600.938 264.515 601.692C266.33 602.446 277.904 601.566 278.216 598.173C278.529 594.78 276.465 586.36 282.909 579.448C281.782 578.066 277.904 570.84 277.904 570.84L252.191 583.595C252.629 586.611 252.316 593.397 251.69 601.126C252.941 599.304 255.006 598.236 257.133 598.173Z" fill="#FFEDE5"/>
<path d="M254.38 640.398C263.514 637.068 264.515 601.692 264.515 601.692C262.701 600.938 260.761 598.11 257.133 598.173C254.943 598.236 252.941 599.304 251.752 601.126C250.814 613.128 249.125 627.391 248.374 633.046C248.061 635.937 247.06 638.701 245.496 641.152C248.499 641.655 251.565 641.34 254.38 640.398Z" fill="#685E6C"/>
<path d="M362.362 249.25C362.362 249.25 395.394 305.425 395.394 333.889C395.394 362.353 366.991 457.548 366.491 470.367C365.99 483.185 376.063 511.209 372.872 539.485C369.681 567.761 357.669 612.499 357.669 612.499C357.669 612.499 341.529 614.95 331.581 611.619C331.581 611.619 331.143 527.546 325.263 493.176C319.382 458.805 314.815 385.979 314.815 385.979C314.815 385.979 254.443 451.516 252.503 462.387C250.564 473.257 261.637 480.42 266.892 513.22C272.148 546.02 277.966 570.902 277.966 570.902C277.966 570.902 266.079 584.977 252.253 583.658C252.253 583.658 200.765 467.225 203.705 452.019C206.645 436.813 266.204 324.841 268.394 311.583C270.584 298.325 272.148 281.485 274.9 264.205L362.362 249.25Z" fill="#6E683B"/>
<path d="M321.446 287.014C342.342 283.495 358.921 270.928 368.993 261.252C365.114 253.963 362.362 249.313 362.362 249.313L274.838 264.205C274.212 268.101 273.649 271.997 273.149 275.829C281.219 281.987 297.61 291.036 321.446 287.014Z" fill="#3B2645"/>
<g opacity="0.5">
<path opacity="0.5" d="M314.876 385.979V359.589C314.876 359.589 306.994 343.88 306.243 330.747L308.057 369.454L290.915 412.747L314.876 385.979Z" fill="#543753"/>
</g>
<path d="M274.901 228.641C276.715 237.626 274.901 264.205 274.901 264.205C274.901 264.205 279.28 274.07 302.803 277.966C326.326 281.862 362.362 249.251 362.362 249.251C358.983 241.585 358.42 232.788 358.671 226.002C306.181 217.896 274.901 228.641 274.901 228.641Z" fill="#FFEDE5"/>
<path d="M360.047 242.213C358.858 236.872 358.42 231.468 358.67 226.002C352.352 224.996 346.346 224.305 340.653 223.802L342.092 236.495L360.047 242.213Z" fill="#DE835C"/>
<path d="M305.556 162.098C338.713 159.082 348.786 130.744 351.789 114.909L342.905 112.396L299.612 107.998L286.912 111.265C280.218 134.451 276.715 164.675 305.556 162.098Z" fill="#FFEDE5"/>
<path d="M376.689 121.758L363.426 118.114C355.042 190.625 370.808 188.678 370.808 188.678L375.187 177.179L376.689 121.758Z" fill="#FFEDE5"/>
<path d="M359.797 215.068C370.995 205.015 370.808 188.678 370.808 188.678C370.808 188.678 354.979 190.626 363.425 118.114L351.789 114.909C348.723 130.744 338.651 159.145 305.556 162.098C276.715 164.675 280.218 134.451 286.975 111.328L273.9 114.721C273.9 114.721 258.697 164.549 258.259 182.583C257.946 194.144 264.828 209.79 269.896 219.53C303.867 205.015 359.797 215.068 359.797 215.068Z" fill="#E88FB9"/>
<path d="M358.67 226.001C358.795 222.294 359.171 218.65 359.859 215.005C359.859 215.005 303.929 204.952 269.895 219.467C272.711 224.933 274.9 228.578 274.9 228.578C274.9 228.578 306.181 217.896 358.67 226.001Z" fill="#3B2645"/>
<path d="M363.425 118.051C363.425 118.051 369.556 152.359 347.034 192.699L344.469 220.095L346.659 282.616C346.659 282.616 336.649 285.318 331.331 285.318C326.013 285.318 318.568 287.768 318.568 287.768L317.505 277.652L311.874 277.778C311.874 277.778 310.248 257.231 317.255 240.391C324.262 223.551 327.64 213.372 328.766 196.029C329.892 178.687 326.013 155.438 338.838 120.062L363.425 118.051Z" fill="white"/>
<path d="M375.25 177.179L371.496 162.915L370.871 188.615L375.25 177.179Z" fill="#DE835C"/>
<path d="M302.677 274.133C303.333 274.133 303.866 273.317 303.866 272.311C303.866 271.304 303.333 270.489 302.677 270.489C302.02 270.489 301.488 271.304 301.488 272.311C301.488 273.317 302.02 274.133 302.677 274.133Z" fill="#DE835C"/>
<path d="M301.739 88.2674C301.739 88.2674 301.989 114.155 288.101 148.589C274.212 183.022 273.086 195.15 276.339 228.578C279.592 262.006 271.584 288.711 271.584 288.711C271.584 288.711 234.548 296.439 219.846 276.395C219.846 276.395 237.989 234.421 246.122 184.279C254.255 134.137 273.899 114.595 273.899 114.595C273.899 114.595 277.653 103.788 286.161 104.919C286.161 105.044 293.043 87.8275 301.739 88.2674Z" fill="white"/>
<path d="M255.444 255.471C255.256 255.471 255.131 255.345 255.131 255.157C252.628 208.408 266.142 165.931 273.399 143.122L273.899 141.614C273.962 141.426 274.149 141.363 274.275 141.426C274.462 141.488 274.525 141.677 274.462 141.803L273.962 143.311C266.705 166.12 253.254 208.471 255.756 255.094C255.756 255.345 255.631 255.471 255.444 255.471Z" fill="#472938"/>
<path d="M277.153 132.252H277.09C276.902 132.189 276.84 132 276.902 131.875C282.095 113.967 285.849 105.044 285.911 104.982C285.974 104.793 286.162 104.73 286.349 104.793C286.537 104.856 286.6 105.044 286.537 105.233C286.475 105.296 282.721 114.218 277.591 132.063C277.403 132.126 277.278 132.252 277.153 132.252Z" fill="#472938"/>
<path d="M254.381 170.895H254.318C254.131 170.832 254.068 170.707 254.068 170.518C259.511 149.343 273.462 114.972 273.587 114.595C273.65 114.407 273.838 114.344 274.025 114.407C274.213 114.469 274.275 114.658 274.213 114.846C274.088 115.161 260.136 149.531 254.694 170.644C254.694 170.77 254.568 170.895 254.381 170.895Z" fill="#472938"/>
<path d="M317.567 278.029C317.379 278.029 317.254 277.903 317.254 277.715C317.254 277.526 317.129 256.539 321.196 246.8C321.258 246.611 321.446 246.549 321.634 246.611C321.821 246.674 321.884 246.863 321.821 247.051C317.817 256.665 317.942 277.526 317.942 277.715C317.88 277.903 317.755 278.029 317.567 278.029Z" fill="#472938"/>
<path d="M324.074 274.447C323.886 274.447 323.761 274.322 323.761 274.133C323.761 273.945 323.073 256.414 326.827 243.218C330.58 230.149 331.581 207.842 331.581 207.654C331.581 207.465 331.706 207.34 331.894 207.34C332.082 207.34 332.207 207.465 332.207 207.654C332.207 207.905 331.206 230.211 327.452 243.407C323.698 256.476 324.387 273.945 324.387 274.07C324.387 274.259 324.261 274.447 324.074 274.447Z" fill="#472938"/>
<path d="M336.837 246.297C336.774 246.297 336.774 246.297 336.837 246.297C336.587 246.234 336.524 246.109 336.524 245.92C338.964 233.102 337.025 206.711 337.025 206.397C337.025 206.208 337.15 206.083 337.337 206.083C337.525 206.083 337.65 206.208 337.65 206.397C337.65 206.648 339.59 233.165 337.15 246.046C337.087 246.172 336.962 246.297 336.837 246.297Z" fill="#472938"/>
<path d="M341.465 195.652C341.215 195.589 341.152 195.464 341.152 195.275C341.215 195.024 345.094 171.021 348.848 159.962C348.91 159.774 349.098 159.711 349.223 159.774C349.411 159.836 349.473 160.025 349.411 160.151C345.719 171.147 341.778 195.087 341.778 195.338C341.778 195.527 341.653 195.652 341.465 195.652Z" fill="#472938"/>
<path d="M336.836 193.013C336.711 193.013 336.586 192.888 336.524 192.762C336.524 192.636 334.459 182.017 337.149 162.852C337.149 162.664 337.337 162.538 337.525 162.601C337.712 162.601 337.837 162.79 337.775 162.978C335.147 182.08 337.149 192.573 337.149 192.699C337.149 192.825 337.024 193.013 336.836 193.013Z" fill="#472938"/>
<path d="M342.529 68.2857L342.904 112.396H299.173L303.365 73.0612L342.529 68.2857Z" fill="#FFEDE5"/>
<path d="M303.365 73.0612C303.365 73.0612 309.746 114.846 342.716 90.3408L342.528 68.2857L303.365 73.0612Z" fill="#DE835C"/>
<path d="M296.331 66.3626C299.156 65.555 300.142 60.3005 298.534 54.6264C296.926 48.9523 293.332 45.0072 290.507 45.8148C287.683 46.6225 286.697 51.877 288.305 57.5511C289.913 63.2252 293.507 67.1703 296.331 66.3626Z" fill="#DE835C"/>
<path d="M342.591 72.4328C342.591 72.4328 342.466 83.1775 341.965 90.3407C341.965 90.3407 336.835 106.615 339.15 121.758C341.465 136.901 340.714 148.086 337.085 153.49L341.152 151.542C341.152 151.542 361.985 151.793 361.735 121.318C361.735 121.318 372.245 104.227 356.479 84.1829C340.714 64.1386 349.598 53.2053 349.598 53.2053C349.598 53.2053 343.091 56.4727 342.591 72.4328Z" fill="#3B2645"/>
<path d="M349.473 53.1425C349.473 53.1425 343.092 56.4727 342.528 72.4328C342.528 72.4328 342.403 83.1776 341.903 90.3408C344.405 83.6803 346.532 76.8941 348.284 69.9822C344.718 58.9861 349.473 53.1425 349.473 53.1425Z" fill="#3B2645"/>
<path d="M352.094 56.6131C353.792 50.9655 352.889 45.6962 350.077 44.8437C347.266 43.9913 343.61 47.8785 341.913 53.526C340.215 59.1736 341.118 64.4429 343.93 65.2954C346.741 66.1478 350.397 62.2607 352.094 56.6131Z" fill="#FFEDE5"/>
<path d="M292.729 25.2437C292.729 25.2437 291.603 57.9179 295.92 71.6159C300.236 85.3139 310.997 93.9851 318.066 93.9851C325.136 93.9851 338.9 88.8327 344.28 66.8405C349.66 44.8482 349.035 17.2637 325.949 10.0377C302.864 2.81167 292.729 17.9549 292.729 25.2437Z" fill="#FFEDE5"/>
<path d="M346.908 48.8697C346.908 48.8697 345.657 40.01 340.902 35.1717C336.148 30.3334 326.388 27.066 328.202 19.3373C328.202 19.3373 321.946 23.0446 310.685 23.0446C299.424 23.0446 291.666 31.8415 292.792 46.7962L291.353 45.7908C291.353 45.7908 285.973 24.5526 292.542 14.2477C299.174 3.94277 314.814 -2.59207 327.451 0.989522C340.089 4.57111 354.29 13.0538 353.039 29.6423C352.664 34.9204 351.913 40.1357 350.787 45.2882C350.787 45.2253 347.158 45.7908 346.908 48.8697Z" fill="#3B2645"/>
<path d="M302.802 51.446C301.801 51.446 300.987 50.6919 300.925 49.6866L300.862 48.5555C300.862 47.5502 301.613 46.7333 302.614 46.6705C303.615 46.6705 304.428 47.4245 304.491 48.4299L304.553 49.5609C304.553 50.5663 303.803 51.446 302.802 51.446Z" fill="#472938"/>
<path d="M330.767 52.3885C329.766 52.2628 329.077 51.3203 329.265 50.3149L329.453 49.1839C329.578 48.1785 330.516 47.4873 331.517 47.6758C332.518 47.8015 333.207 48.744 333.019 49.7494L332.831 50.8804C332.644 51.8858 331.705 52.5141 330.767 52.3885Z" fill="#472938"/>
<path d="M296.296 43.7801C296.296 43.7801 297.985 41.895 301.926 41.8322C305.867 41.7694 307.119 42.1464 307.369 40.8897C307.619 39.633 299.173 36.4284 296.296 43.7801Z" fill="#472938"/>
<path d="M337.398 43.2146C337.398 43.2146 335.521 41.4552 331.267 41.6437C327.013 41.8322 325.761 42.272 325.449 41.0782C325.136 39.8843 334.082 36.0514 337.398 43.2146Z" fill="#472938"/>
<path d="M326.263 70.9875L309.746 70.422C309.746 70.422 310.622 81.7952 318.005 81.6066C325.387 81.4181 326.263 70.9875 326.263 70.9875Z" fill="white"/>
<path d="M317.002 66.0237C315.939 66.0237 314.938 65.7724 314.124 65.3954C313.436 65.0184 313.061 64.5157 312.873 63.9502C312.498 62.505 313.248 58.9862 314.124 54.5878L314.437 53.2054C315.876 46.1051 311.997 44.1572 311.81 44.0944C311.622 44.0315 311.559 43.7802 311.622 43.5917C311.684 43.4032 311.935 43.3403 312.122 43.4032C312.31 43.466 316.689 45.6652 315.125 53.3311L314.812 54.7135C313.937 58.8606 313.248 62.505 313.561 63.7617C313.686 64.1387 313.937 64.4529 314.437 64.767C315.626 65.3954 317.503 65.5211 319.254 64.9555C319.442 64.8927 319.692 65.0184 319.755 65.2069C319.817 65.3954 319.692 65.6467 319.505 65.7096C318.691 65.8981 317.815 66.0237 317.002 66.0237Z" fill="#472938"/>
<path d="M376.688 121.758C376.688 121.758 389.763 122.387 396.269 141.111C402.776 159.773 423.359 214.063 424.172 224.054C424.985 234.044 421.92 242.087 407.718 245.04C395.644 247.554 363.612 238.191 360.985 237.94C358.357 237.689 350.912 237.5 348.41 233.165C345.907 228.829 344.531 221.477 344.531 221.477C344.531 221.477 337.962 218.964 336.836 218.964C335.71 218.964 327.764 219.467 327.014 218.273C326.263 217.079 326.263 214.817 326.513 213.749C326.513 213.749 325.137 211.235 325.575 209.727C325.575 209.727 324.136 206.083 324.261 205.266C324.386 204.449 328.265 202.061 329.078 201.873C329.891 201.684 339.276 201.307 339.276 201.307C339.276 201.307 336.46 197.851 335.96 197.726C335.459 197.6 328.765 197.851 328.765 197.851L328.64 199.548C328.64 199.548 326.826 197.977 326.513 197.097C326.2 196.218 326.763 193.641 327.514 193.327C328.265 193.013 337.149 190.06 339.839 191.002C342.529 191.945 351.1 197.223 352.226 198.982C353.352 200.742 359.671 218.398 361.673 219.718C363.675 221.037 373.935 222.483 390.326 218.964L366.991 159.711L376.688 121.758Z" fill="#FFEDE5"/>
<path d="M134.988 14.1938C134.988 13.8492 134.142 13.8492 134.071 14.1938C130.544 33.7799 132.59 54.3999 132.59 74.4455C132.59 95.6399 131.744 117.007 133.295 138.143C133.362 138.369 133.52 138.57 133.744 138.714C133.968 138.857 134.245 138.935 134.53 138.935C134.815 138.935 135.092 138.857 135.315 138.714C135.539 138.57 135.697 138.369 135.764 138.143C137.245 117.007 136.399 95.6399 136.399 74.4455C136.399 54.8594 138.445 33.9523 134.988 14.1938Z" fill="#E88FB9"/>
<path d="M161.2 19.9479C161.115 19.6611 160.897 19.4042 160.583 19.22C160.269 19.0358 159.878 18.9354 159.475 18.9354C159.071 18.9354 158.68 19.0358 158.366 19.22C158.052 19.4042 157.835 19.6611 157.749 19.9479C157.749 39.1042 156.064 58.611 157.749 77.7089C157.749 78.0342 157.927 78.3461 158.243 78.5762C158.559 78.8062 158.987 78.9354 159.434 78.9354C159.881 78.9354 160.31 78.8062 160.626 78.5762C160.942 78.3461 161.12 78.0342 161.12 77.7089C162.966 58.611 161.361 39.1042 161.2 19.9479Z" fill="#E88FB9"/>
<path d="M427.016 274.533C426.985 274.361 426.919 274.21 426.827 274.102C426.735 273.994 426.622 273.935 426.507 273.935C426.391 273.935 426.279 273.994 426.187 274.102C426.095 274.21 426.028 274.361 425.998 274.533C424.935 299.467 424.721 324.47 425.356 349.439C425.356 374.408 425.356 399.319 425.96 424.287C425.992 424.473 426.063 424.637 426.162 424.755C426.261 424.872 426.382 424.935 426.507 424.935C426.632 424.935 426.753 424.872 426.852 424.755C426.951 424.637 427.022 424.473 427.054 424.287C427.582 399.319 427.582 374.408 427.657 349.439C428.273 324.47 428.059 299.469 427.016 274.533Z" fill="#E88FB9"/>
<path d="M466.498 73.31C466.3 56.6838 465.114 40.0799 462.945 23.5719C462.945 22.5841 461.233 22.8746 461.169 23.5719C460.68 41.4254 461.252 59.2902 462.882 77.0868C463.707 93.6468 463.516 110.614 465.927 126.999C465.927 128.51 468.718 128.045 468.781 126.651C469.669 108.928 467.64 90.8577 466.498 73.31Z" fill="#E88FB9"/>
<path d="M477.992 84.3756C477.959 84.248 477.894 84.1365 477.806 84.0573C477.717 83.9781 477.61 83.9354 477.5 83.9354C477.39 83.9354 477.283 83.9781 477.194 84.0573C477.106 84.1365 477.041 84.248 477.008 84.3756C475.766 107.8 475.672 131.294 476.726 154.733C476.697 154.876 476.695 155.025 476.721 155.168C476.746 155.312 476.798 155.447 476.872 155.563C476.947 155.679 477.042 155.773 477.151 155.837C477.26 155.902 477.379 155.935 477.5 155.935C477.621 155.935 477.74 155.902 477.849 155.837C477.958 155.773 478.053 155.679 478.128 155.563C478.202 155.447 478.254 155.312 478.279 155.168C478.305 155.025 478.303 154.876 478.274 154.733C479.328 131.294 479.234 107.8 477.992 84.3756Z" fill="#E88FB9"/>
</svg>
