<svg width="24" height="24" viewBox="0 0 24 24" fill="none" xmlns="http://www.w3.org/2000/svg">
<g clip-path="url(#clip0_1678_13429)">
<path d="M7.5 0.5C5.5 0.5 4 4 4 6.5C4 8.0745 5.04 9.406 6.471 9.8455L6.036 22.4655C6.0165 23.031 6.4695 23.5 7.0355 23.5H7.9655C8.5315 23.5 8.9845 23.031 8.965 22.4655L8.53 9.8455C9.9605 9.406 11.001 8.0745 11.001 6.5C11.001 4 9.501 0.5 7.501 0.5H7.5Z" stroke="#6E683B" stroke-width="1.4"/>
<path d="M19.4975 0.950451L19.923 5.20395C19.974 5.71545 20 6.23545 20 6.74995L20.001 6.74945C20.001 8.18195 19.0685 9.39845 17.7795 9.82995L18.215 22.465C18.2345 23.0305 17.7815 23.4995 17.2155 23.4995H16.2855C15.7195 23.4995 15.2665 23.0305 15.286 22.465L15.7215 9.82995C14.4325 9.39795 13.5 8.18145 13.5 6.74945C13.5 6.23495 13.5255 5.71495 13.577 5.20345L14.0025 0.949951M16.5 6.49976C16.5 4.25424 16.5 0.749756 16.5 0.749756" stroke="#6E683B" stroke-width="1.4"/>
</g>
<defs>
<clipPath id="clip0_1678_13429">
<rect width="24" height="24" fill="white"/>
</clipPath>
</defs>
</svg>
