<svg width="24" height="24" viewBox="0 0 24 24" fill="none" xmlns="http://www.w3.org/2000/svg">
<path d="M7.5 0.5C5.5 0.5 4 4 4 6.5C4 8.0745 5.04 9.406 6.471 9.8455L6.036 22.4655C6.0165 23.031 6.4695 23.5 7.0355 23.5H7.9655C8.5315 23.5 8.9845 23.031 8.965 22.4655L8.53 9.8455C9.9605 9.406 11.001 8.0745 11.001 6.5C11.001 4 9.501 0.5 7.501 0.5H7.5Z" fill="white"/>
<path d="M20 6.74986C20 6.23535 19.974 5.71535 19.923 5.20386L19.4975 0.950355C19.471 0.685355 19.248 0.486855 18.975 0.500855C18.709 0.513855 18.5 0.733855 18.5 1.00035V6.75036C18.5 6.88836 18.388 7.00036 18.25 7.00036C18.112 7.00036 18 6.88836 18 6.75036V0.999855C18 0.723855 17.776 0.499855 17.5 0.499855C17.224 0.499855 17 0.723855 17 0.999855V6.74986C17 6.88786 16.888 6.99986 16.75 6.99986C16.612 6.99986 16.5 6.88786 16.5 6.74986V0.999855C16.5 0.723855 16.276 0.499855 16 0.499855C15.724 0.499855 15.5 0.723855 15.5 0.999855V6.74986C15.5 6.88786 15.388 6.99986 15.25 6.99986C15.112 6.99986 15 6.88786 15 6.74986V0.999855C15 0.733355 14.791 0.513855 14.525 0.500355C14.253 0.484855 14.029 0.684855 14.0025 0.949855L13.577 5.20335C13.5255 5.71485 13.5 6.23485 13.5 6.74935C13.5 8.18135 14.4325 9.39785 15.7215 9.82985L15.286 22.4649C15.2665 23.0304 15.7195 23.4994 16.2855 23.4994H17.2155C17.7815 23.4994 18.2345 23.0304 18.215 22.4649L17.7795 9.82985C19.0685 9.39835 20.001 8.18185 20.001 6.74935L20 6.74986Z" fill="white"/>
</svg>
