<svg width="32" height="33" viewBox="0 0 32 33" fill="none" xmlns="http://www.w3.org/2000/svg">
<path d="M12 14.8333C9.97337 14.8333 8.33337 13.1933 8.33337 11.1667C8.33337 9.14 9.97337 7.5 12 7.5C14.0267 7.5 15.6667 9.14 15.6667 11.1667C15.6667 13.1933 14.0267 14.8333 12 14.8333ZM12 9.5C11.08 9.5 10.3334 10.2467 10.3334 11.1667C10.3334 12.0867 11.08 12.8333 12 12.8333C12.92 12.8333 13.6667 12.0867 13.6667 11.1667C13.6667 10.2467 12.92 9.5 12 9.5Z" fill="#8D9A9B"/>
<path d="M20 30.8332H12C4.75996 30.8332 1.66663 27.7398 1.66663 20.4998V12.4998C1.66663 5.25984 4.75996 2.1665 12 2.1665H17.3333C17.88 2.1665 18.3333 2.61984 18.3333 3.1665C18.3333 3.71317 17.88 4.1665 17.3333 4.1665H12C5.85329 4.1665 3.66663 6.35317 3.66663 12.4998V20.4998C3.66663 26.6465 5.85329 28.8332 12 28.8332H20C26.1466 28.8332 28.3333 26.6465 28.3333 20.4998V13.8332C28.3333 13.2865 28.7866 12.8332 29.3333 12.8332C29.88 12.8332 30.3333 13.2865 30.3333 13.8332V20.4998C30.3333 27.7398 27.24 30.8332 20 30.8332Z" fill="#8D9A9B"/>
<path d="M28.3333 8.1665H21C20.4533 8.1665 20 7.71317 20 7.1665C20 6.61984 20.4533 6.1665 21 6.1665H28.3333C28.88 6.1665 29.3333 6.61984 29.3333 7.1665C29.3333 7.71317 28.88 8.1665 28.3333 8.1665Z" fill="#E88FB9"/>
<path d="M24.6666 11.8333C24.12 11.8333 23.6666 11.38 23.6666 10.8333V3.5C23.6666 2.95333 24.12 2.5 24.6666 2.5C25.2133 2.5 25.6666 2.95333 25.6666 3.5V10.8333C25.6666 11.38 25.2133 11.8333 24.6666 11.8333Z" fill="#E88FB9"/>
<path d="M3.55994 26.7666C3.23994 26.7666 2.91994 26.6066 2.73328 26.3266C2.42661 25.8733 2.54661 25.2466 2.99994 24.9399L9.57328 20.5266C11.0133 19.5666 12.9999 19.6732 14.3066 20.7799L14.7466 21.1666C15.4133 21.7399 16.5466 21.7399 17.1999 21.1666L22.7466 16.4066C24.1733 15.1932 26.3866 15.1932 27.8133 16.4066L29.9866 18.2732C30.3999 18.6332 30.4533 19.2599 30.0933 19.6866C29.7333 20.0999 29.1066 20.1532 28.6799 19.7932L26.5066 17.9266C25.8399 17.3532 24.7066 17.3532 24.0533 17.9266L18.5066 22.6866C17.0933 23.8999 14.8666 23.8999 13.4399 22.6866L12.9999 22.2999C12.3866 21.7799 11.3733 21.7266 10.6933 22.1932L4.13328 26.6066C3.94661 26.7132 3.74661 26.7666 3.55994 26.7666Z" fill="#8D9A9B"/>
</svg>
