<svg width="678" height="1024" viewBox="0 0 678 1024" fill="none" xmlns="http://www.w3.org/2000/svg">
<g clip-path="url(#clip0_1698_5073)">
<rect width="678" height="1024" fill="#F0DFCC"/>
<ellipse cx="339" cy="934.5" rx="422" ry="422.5" fill="#F2E4D4"/>
<path d="M153.102 58.3991C147.554 52.8509 140.851 48.8601 133.537 46.6631C134.274 47.9424 134.872 49.2912 135.456 50.5844C135.484 50.6678 135.526 50.7373 135.553 50.8208C151.906 57.092 163.545 72.9719 163.545 91.5076C163.545 113.367 147.359 131.513 126.348 134.6C125.291 135.81 124.193 137.047 123.15 138.215C134.469 137.464 144.995 132.709 153.088 124.616C161.932 115.772 166.799 104.022 166.799 91.5215C166.812 78.9928 161.946 67.2429 153.102 58.3991ZM86.9127 58.3991C78.069 67.2429 73.2021 78.9928 73.2021 91.5076C73.2021 104.008 78.069 115.772 86.9127 124.602C92.8225 130.512 100.053 134.656 107.924 136.741C108.007 135.712 108.16 134.628 108.41 133.488C90.0136 128.398 76.456 111.503 76.456 91.5076C76.456 70.4133 91.5293 52.7675 111.469 48.7906C111.775 48.735 112.067 48.6654 112.373 48.6237L111.525 48.4569L109.731 48.1231L112.763 45.2448C103.001 46.7465 94.0183 51.2935 86.9127 58.3991Z" fill="#F9BEC7"/>
<path d="M113.765 69.1617C113.765 69.1617 112.332 79.5072 120.481 80.1747C129.978 81.5235 130.075 69.3285 130.075 69.3285C130.075 69.3285 137.487 83.4702 131.48 86.6406C128.296 87.6279 123.832 87.1968 119.702 86.8909C113.347 87.7947 111.512 86.8075 109.663 86.0983C104.448 82.5803 108.05 75.1131 113.765 69.1617Z" fill="#EECDDA"/>
<path d="M130.881 68.8002C130.881 68.8002 135.832 69.6067 139.433 72.6658C143.035 75.725 149.07 80.856 150.057 85.3613C149.431 92.4808 142.228 97.6953 136.096 101.116L133.218 102.576C133.218 102.576 130.701 102.576 129.88 101.589C129.074 100.602 127.628 96.9027 132.036 96.8193C138.154 96.8193 137.459 94.5944 138.807 93.7045C140.156 92.8007 140.74 91.577 142.117 89.3522C143.035 87.8782 144.064 85.7368 145.176 83.7622C145.176 83.7622 142.409 85.8619 138.557 83.0253C133.621 79.4933 131.549 70.7191 130.881 68.8002Z" fill="#E88FB9"/>
<path d="M112.568 68.0215C112.568 68.0215 108.925 65.7966 99.191 71.8037C95.3392 74.9046 93.7818 77.338 93.7818 77.338H93.3508C93.3508 77.338 96.5073 72.2765 96.4517 69.704C97.2582 66.8673 98.4818 62.6402 98.4818 62.6402C98.4818 62.6402 104.336 64.6703 104.837 59.581C104.03 55.3955 98.899 58.1348 97.9534 58.7745C97.0079 59.4002 93.6706 62.0561 90.7366 71.1641C89.7076 73.7922 88.9567 76.601 88.8594 79.3404C88.8594 79.3404 90.389 80.4667 94.6718 80.5501C100.331 80.3833 103.919 78.9788 107.131 75.7389C109.008 73.8478 110.343 71.2753 112.568 68.0215Z" fill="#E88FB9"/>
<path d="M109.133 88.351C113.861 89.6302 123.178 89.9779 130.547 89.6302C131.02 89.8388 126.473 96.5412 126.223 99.35C126.904 102.576 128.545 104.37 129.004 105.357C129.797 106.303 125.347 110.085 118.658 110.085C118.255 110.085 111.525 110.085 108.466 103.869C109.55 101.839 111.775 99.211 111.845 97.5145C111.97 93.5515 108.452 89.0879 109.133 88.351Z" fill="#E88FB9"/>
<path d="M107.841 104.898C107.841 104.898 110.677 111.726 118.506 111.517C126.335 111.309 130.562 106.928 130.562 107.804C132.828 109.362 133.565 117.802 132.828 118.206C124.249 110.572 115.669 122.252 115.669 122.252C115.669 122.252 114.181 117.051 104.184 114.827C105.449 107.498 107.841 104.898 107.841 104.898Z" fill="#E88FB9"/>
<path d="M107.785 133.195C107.785 133.195 110.19 123.406 114.237 120.222C110.316 116.148 104.712 115.105 104.197 115.063C102.821 124.699 107.785 133.195 107.785 133.195Z" fill="#EECDDA"/>
<path d="M107.785 133.195C107.785 133.195 110.19 123.406 114.237 120.222C110.343 116.148 104.712 115.105 104.197 115.063C102.821 124.699 107.785 133.195 107.785 133.195Z" fill="#E88FB9"/>
<path d="M105.213 104.898C102.849 101.186 90.7234 96.708 87.5391 87.8643C85.7175 84.082 83.9933 77.1989 86.6353 67.8824C86.7743 66.8673 77.2492 80.6474 79.8078 93.6211C82.1717 105.301 91.6273 107.471 92.9066 108.138C94.1859 108.82 102.223 111.448 102.223 111.448C102.223 111.448 103.864 104.898 105.213 104.898Z" fill="#6E683B"/>
<path d="M101.639 113.13C101.639 113.13 100.902 115.425 101.639 116.106C100.081 117.927 89.4856 117.316 86.3708 115.105C81.9073 110.975 79.6824 102.131 80.0161 101.923C80.3499 101.714 82.1158 106.581 89.6108 109.417C95.0199 111.448 101.639 113.13 101.639 113.13Z" fill="#6E683B"/>
<path d="M101.389 118.219C100.123 118.442 98.0096 118.762 96.6191 118.72C95.2286 118.678 90.5008 117.01 88.6514 117.093C88.6514 117.635 95.896 124.922 102.251 126.104C101.291 122.864 101.764 118.498 101.389 118.219Z" fill="#6E683B"/>
<path d="M133.218 107.415C135.971 103.98 148.514 100.852 152.63 92.3974C154.854 88.8376 157.302 82.1909 155.703 72.638C155.675 71.6229 164.379 84.972 159.693 98.9607C157.566 105.441 146.442 111.448 145.093 111.976C143.744 112.504 135.47 114.256 135.47 114.256C135.47 114.256 134.553 107.568 133.218 107.415Z" fill="#6E683B"/>
<path d="M135.554 116.537C135.554 116.537 135.554 118.748 135.554 119.554C137.292 121 148.458 119.624 151.781 117.761C156.662 114.131 160.013 104.078 159.693 103.841C159.373 103.605 156.134 109.431 148.235 112.838C142.659 114.66 135.554 116.537 135.554 116.537Z" fill="#6E683B"/>
<path d="M135.137 121.432C136.36 121.793 137.667 122.335 139.058 122.447C140.448 122.558 145.176 121.974 147.012 122.266C146.956 122.808 138.21 128.704 131.771 129.177C134.733 125.77 134.719 121.654 135.137 121.432Z" fill="#6E683B"/>
<path d="M113.318 49.3049C113.318 49.3049 120.98 50.6955 122.329 57.5925C123.678 64.4756 127.099 67.5486 128.447 68.6193C129.796 69.704 128.586 79.9243 121.689 79.0205C112.832 78.7146 115.696 70.1211 116.002 67.938C116.016 67.8546 116.072 67.785 116.141 67.7433C116.614 67.5208 118.297 66.7004 118.853 65.7688C119.492 64.6842 120.521 61.8475 120.521 61.8475C120.521 61.8475 116.92 64.1001 113.986 62.654C113.986 62.654 113.583 60.1232 113.819 59.8173L112.901 59.5114L113.235 57.7871L112.053 57.4812C112.053 57.4812 111.177 57.3144 111.65 56.2993C112.123 55.2842 112.804 54.0327 113.04 50.8901L113.318 49.3049Z" fill="#E88FB9"/>
<path d="M113.764 46.9271L115.655 45.1194C115.655 45.1194 121.69 46.3848 123.539 51.6549L122.093 52.0165C122.093 52.0026 118.95 47.8727 113.764 46.9271Z" fill="#3D2D22"/>
<path d="M144.439 67.8268C142.687 66.1721 135.387 64.7955 135.387 64.7955C135.387 64.7955 129.352 63.2659 126.557 54.6585C126.599 54.2136 126.696 53.852 126.877 52.4754C128.267 53.7547 129.63 59.4697 134.427 62.2647C137.904 64.8372 144.439 64.1836 146.414 67.2567C147.067 68.091 150.085 70.2185 150.168 76.5176C150.863 75.2383 151.267 73.6531 151.614 70.5661C151.142 64.1836 146.887 59.7618 143.508 59.2194C140.129 58.6771 140.407 58.7189 138.098 57.4674C133.913 55.91 133.371 45.9121 127.767 43.4231C120.814 40.1831 117.227 43.8263 117.227 43.8263C123.623 45.5645 125.556 50.1949 125.778 51.4603C126.001 52.7257 125.125 57.6064 125.125 57.6064C125.556 64.6981 131.507 66.6866 135.623 67.7434C136.638 68.0076 137.542 68.6055 138.224 68.7585C141.672 69.4954 149.236 77.9081 149.236 77.9081C149.32 77.7969 149.403 77.6856 149.487 77.5744C148.291 74.2649 146.594 69.5233 144.439 67.8268Z" fill="#3D2D22"/>
<path d="M113.765 69.1617C113.765 69.1617 112.332 79.5072 120.481 80.1747C129.978 81.5235 130.075 69.3285 130.075 69.3285C130.075 69.3285 137.487 83.4702 131.48 86.6406C128.296 87.6279 123.832 87.1968 119.702 86.8909C113.347 87.7947 111.512 86.8075 109.663 86.0983C104.448 82.5803 108.05 75.1131 113.765 69.1617Z" fill="#E88FB9"/>
<mask id="mask0_1698_5073" style="mask-type:luminance" maskUnits="userSpaceOnUse" x="79" y="67" width="27" height="45">
<path d="M105.211 104.898C102.847 101.186 90.7215 96.708 87.5372 87.8643C85.7156 84.082 83.9913 77.1989 86.6333 67.8824C86.7724 66.8673 77.2473 80.6474 79.8059 93.6211C82.1698 105.301 91.6253 107.471 92.9046 108.138C94.1839 108.82 102.221 111.448 102.221 111.448C102.221 111.448 103.862 104.898 105.211 104.898Z" fill="white"/>
</mask>
<g mask="url(#mask0_1698_5073)">
<path d="M103.459 109.557C103.459 109.557 88.7333 106.859 83.5049 100.198C78.2765 93.5378 77.8037 94.4972 77.8037 94.4972C77.8037 94.4972 85.4794 106.789 86.8282 107.234C88.177 107.679 101.623 111.907 101.623 111.907L103.459 109.557Z" fill="#695328"/>
<path d="M83.6018 102.576C83.6018 102.576 79.9586 92.3557 81.5021 84.9025C82.8231 77.9082 87.1059 65.7828 87.1059 65.7828L79.3746 78.2141L78.5264 95.7069L83.6018 102.576Z" fill="#59532E"/>
</g>
<mask id="mask1_1698_5073" style="mask-type:luminance" maskUnits="userSpaceOnUse" x="79" y="101" width="23" height="17">
<path d="M101.638 113.13C101.638 113.13 100.901 115.425 101.638 116.106C100.08 117.927 89.4846 117.316 86.3699 115.105C81.9063 110.975 79.6814 102.131 80.0152 101.923C80.3489 101.714 82.1149 106.581 89.6098 109.417C95.0189 111.448 101.638 113.13 101.638 113.13Z" fill="white"/>
</mask>
<g mask="url(#mask1_1698_5073)">
<path d="M102.152 113.7C102.152 113.7 99.9971 112.796 93.1974 111.851C86.3978 110.905 84.006 107.888 81.6282 106.136C79.2365 104.384 78.875 100.421 78.875 100.421L82.8797 104.203L92.9193 110.015L102.013 111.948L102.152 113.7Z" fill="#59532E"/>
<path d="M82.5176 111.128C88.6359 115.174 100.163 116.175 102.333 116.078C104.488 115.995 98.5504 117.969 98.5504 117.969L90.082 117.344L84.7702 115.897C84.7702 115.911 83.6022 113.297 82.5176 111.128Z" fill="#695328"/>
</g>
<mask id="mask2_1698_5073" style="mask-type:luminance" maskUnits="userSpaceOnUse" x="88" y="117" width="15" height="10">
<path d="M101.388 118.22C100.122 118.442 98.0086 118.762 96.6181 118.72C95.2276 118.678 90.4998 117.01 88.6504 117.093C88.6504 117.636 95.895 124.922 102.25 126.104C101.29 122.864 101.763 118.498 101.388 118.22Z" fill="white"/>
</mask>
<g mask="url(#mask2_1698_5073)">
<path d="M102.305 123.003L103.042 127.397L91.2224 122.336L88.3857 118.4C88.3857 118.4 98.189 122.461 102.305 123.003Z" fill="#695328"/>
</g>
<mask id="mask3_1698_5073" style="mask-type:luminance" maskUnits="userSpaceOnUse" x="103" y="115" width="12" height="19">
<path d="M107.785 133.195C107.785 133.195 110.19 123.406 114.237 120.222C110.218 116.064 104.712 115.105 104.197 115.063C102.821 124.699 107.785 133.195 107.785 133.195Z" fill="white"/>
</mask>
<g mask="url(#mask3_1698_5073)">
<path d="M107.368 103.828L104.81 108.945L103.461 115.411V126.104L108.272 133.641C108.272 133.641 105.755 124.157 106.381 118.748C106.423 115.411 106.242 114.423 106.965 111.448C107.285 110.321 107.98 107.846 107.98 107.846C107.98 107.846 113.723 112.63 117.464 112.657C121.997 112.866 127.281 110.085 127.281 110.085C127.281 110.085 120.898 111.921 117.728 111.434C109.093 110.53 107.368 103.828 107.368 103.828Z" fill="#FAE0E4"/>
<path d="M112.346 118.498C112.346 118.498 109.092 124.227 108.049 127.745C107.007 131.263 108.049 133.974 108.049 133.974L115.141 120.152L113.876 118.581L112.346 118.498Z" fill="#E26F88"/>
</g>
<mask id="mask4_1698_5073" style="mask-type:luminance" maskUnits="userSpaceOnUse" x="104" y="104" width="30" height="19">
<path d="M107.839 104.898C107.839 104.898 110.675 111.726 118.504 111.517C126.333 111.309 130.56 106.928 130.56 107.804C132.826 109.362 133.563 117.802 132.826 118.206C124.247 110.572 115.667 122.252 115.667 122.252C115.667 122.252 114.18 117.051 104.182 114.827C105.447 107.498 107.839 104.898 107.839 104.898Z" fill="white"/>
</mask>
<g mask="url(#mask4_1698_5073)">
<path d="M107.547 103.814L104.808 108.945L103.459 115.411V126.104L108.27 133.64C108.27 133.64 105.753 124.157 106.379 118.748C106.365 115.397 106.24 114.423 106.963 111.448C107.283 110.321 107.978 107.846 107.978 107.846C107.978 107.846 113.721 112.63 117.462 112.657C121.995 112.866 127.765 109.112 127.765 109.112C127.765 109.112 120.896 111.934 117.74 111.448C109.091 110.53 107.547 103.814 107.547 103.814Z" fill="#FAE0E4"/>
</g>
<mask id="mask5_1698_5073" style="mask-type:luminance" maskUnits="userSpaceOnUse" x="108" y="88" width="23" height="23">
<path d="M109.134 88.351C113.862 89.6302 123.179 89.9779 130.548 89.6302C131.021 89.8388 126.474 96.5412 126.224 99.35C126.905 102.576 128.546 104.37 129.005 105.357C129.797 106.303 125.348 110.085 118.659 110.085C118.256 110.085 111.526 110.085 108.467 103.869C109.551 101.839 111.776 99.211 111.846 97.5145C111.971 93.5515 108.453 89.0879 109.134 88.351Z" fill="white"/>
</mask>
<g mask="url(#mask5_1698_5073)">
<path d="M107.827 87.8782C108.092 87.906 111.665 88.351 111.665 88.351C111.665 88.351 113.056 95.3036 114.015 97.0974C114.321 99.2249 110.442 107.234 110.442 107.234C110.442 107.234 106.993 102.534 106.993 102.437C106.993 102.34 108.787 98.2794 108.787 98.2794V91.73L107.827 87.8782Z" fill="#FAE0E4"/>
<path d="M128.087 88.6569C128.087 88.6569 126.822 95.0534 124.889 97.5424C124.124 100.226 125.751 102.757 125.876 105.357C126.015 108.124 124.889 109.543 124.889 109.543L131.605 105.899L128.588 103.466C128.588 103.466 127.378 99.2667 127.281 99.0998C127.197 98.919 129.534 93.8853 129.534 93.8853C129.534 93.8853 131.16 90.6454 131.202 90.5063C131.244 90.3673 131.383 88.351 131.383 88.351L128.087 88.6569Z" fill="#E26F88"/>
</g>
<mask id="mask6_1698_5073" style="mask-type:luminance" maskUnits="userSpaceOnUse" x="128" y="68" width="23" height="35">
<path d="M130.882 68.8002C130.882 68.8002 135.833 69.6067 139.434 72.6658C143.036 75.725 149.07 80.856 150.058 85.3613C149.432 92.4808 142.229 97.6953 136.097 101.116L133.218 102.576C133.218 102.576 130.702 102.576 129.881 101.589C129.075 100.602 127.629 96.9027 132.037 96.8193C138.155 96.8193 137.46 94.5944 138.808 93.7045C140.157 92.8007 140.741 91.577 142.118 89.3522C143.036 87.8782 144.065 85.7368 145.177 83.7622C145.177 83.7622 142.41 85.8619 138.558 83.0253C133.622 79.4933 131.55 70.7191 130.882 68.8002Z" fill="white"/>
</mask>
<g mask="url(#mask6_1698_5073)">
<path d="M133.746 76.7679C133.746 76.7679 134.9 78.0611 138.112 80.5641C139.767 82.2049 141.728 82.5664 143.007 82.9558C144.286 83.3451 145.468 83.5676 145.468 83.5676L142.937 85.709L135.846 83.2339L133.746 76.7679Z" fill="#E26F88"/>
<path d="M150.376 82.5665C150.057 82.5247 149.876 82.9141 149.222 84.7635C148.305 89.5191 143.271 94.0105 143.271 94.0105L137.945 98.5714C137.945 98.5714 135.553 100.685 133.454 100.908C131.159 101.38 128.587 99.9619 128.587 99.9619L129.574 103.48L134.427 103.299L144.884 98.2516L150.376 89.5608L151.405 86.6824V84.2907C151.405 84.2907 151.127 82.2327 150.376 82.5665Z" fill="#E26F88"/>
<path d="M130.27 67.8269C130.27 67.8269 130.492 70.3299 131.521 71.6926C133.551 72.3739 136.93 74.5988 139.53 76.323C142.228 77.7136 151.169 85.8481 151.169 85.8481L148.068 80.3834L142.896 74.3763L135.401 69.6763L131.479 68.3553L130.27 67.8269Z" fill="#FAE0E4"/>
<path d="M128.448 100.004C128.448 100.004 133.482 99.0581 136.819 97.5563C140.157 96.0545 140.435 94.4971 141.992 93.0093C144.425 90.7149 146.859 83.8596 145.274 84.3046C143.953 84.3046 139.197 89.6442 139.197 89.6442L132.509 95.3732L128.156 96.9305L128.448 100.004Z" fill="#FAE0E4"/>
</g>
<mask id="mask7_1698_5073" style="mask-type:luminance" maskUnits="userSpaceOnUse" x="111" y="49" width="18" height="31">
<path d="M113.32 49.3051C113.32 49.3051 120.982 50.6956 122.331 57.5926C123.68 64.4757 127.101 67.5488 128.449 68.6195C129.798 69.7041 128.588 79.9245 121.691 79.0206C112.639 78.7008 115.837 69.7458 116.018 67.813C116.018 67.813 118.215 66.8674 118.855 65.7828C119.494 64.6982 120.523 61.8615 120.523 61.8615C120.523 61.8615 116.922 64.1142 113.988 62.668C113.988 62.668 113.585 60.1373 113.821 59.8313L112.903 59.5254L113.237 57.8012L112.055 57.4953C112.055 57.4953 111.179 57.3284 111.652 56.3133C112.125 55.2982 112.806 54.0468 113.042 50.9042L113.32 49.3051Z" fill="white"/>
</mask>
<g mask="url(#mask7_1698_5073)">
<path d="M128.685 74.5291C129.436 73.6947 129.978 66.9924 128.574 67.1732L128.338 65.9356C128.338 65.9356 125.473 63.3631 125.292 63.1963C125.112 63.0294 122.011 55.6318 122.011 55.6318L121.371 54.9504C121.371 54.9504 121.468 60.3179 119.23 61.2634C117.756 61.5972 113.751 63.3214 113.751 63.3214L115.559 63.5856C115.559 63.5856 118.562 62.6401 119.744 62.4732C120.926 62.3063 121.329 59.2611 121.635 59.3306C121.941 59.4001 124.138 68.23 125.445 69.3563C126.794 70.4965 128.685 74.5291 128.685 74.5291Z" fill="#E26F88"/>
<path d="M112.694 49.3467C112.694 49.3467 118.284 49.2632 118.91 55.2842C117.464 61.7641 113.501 63.7525 113.501 63.7525C113.501 63.7525 110.886 63.1268 110.706 62.7653C110.525 62.4037 108.634 55.8265 108.634 55.8265L112.694 49.3467Z" fill="#FAE0E4"/>
</g>
<mask id="mask8_1698_5073" style="mask-type:luminance" maskUnits="userSpaceOnUse" x="107" y="69" width="27" height="19">
<path d="M113.765 69.1617C113.765 69.1617 112.332 79.5072 120.481 80.1747C129.978 81.5235 130.075 69.3285 130.075 69.3285C130.075 69.3285 137.487 83.4702 131.48 86.6406C128.296 87.6279 123.832 87.1968 119.702 86.8909C113.347 87.7947 111.512 86.8075 109.663 86.0983C104.448 82.5803 108.05 75.1131 113.765 69.1617Z" fill="white"/>
</mask>
<g mask="url(#mask8_1698_5073)">
<path d="M132.787 76.9485C132.787 76.9485 132.092 85.5976 125.251 85.0831C122.692 84.8746 121.023 84.4296 118.701 84.4018C116.379 84.374 111.79 85.0831 110.442 84.082C108.981 83.8595 106.479 82.0796 106.479 82.0796L109.023 87.4331L114.029 88.2396L121.343 88.3231H131.591L134.442 84.0959L134.122 80.5361L132.787 76.9485Z" fill="#E26F88"/>
<path d="M115.03 67.5208L109.204 74.251L105.505 81.5929L108.161 87.4471L116.421 87.8781C116.421 87.8781 110.052 85.7367 109.482 82.761C108.717 79.9243 109.329 76.9486 111.053 74.39C112.569 72.7214 115.03 67.5208 115.03 67.5208Z" fill="#FAE0E4"/>
</g>
<mask id="mask9_1698_5073" style="mask-type:luminance" maskUnits="userSpaceOnUse" x="88" y="57" width="25" height="24">
<path d="M112.57 68.0216C112.57 68.0216 108.927 65.7967 99.1929 71.8038C95.3412 74.9047 93.7838 77.3381 93.7838 77.3381H93.3527C93.3527 77.3381 96.5092 72.2766 96.4536 69.7041C97.2601 66.8674 98.4838 62.6402 98.4838 62.6402C98.4838 62.6402 104.338 64.6704 104.838 59.5811C104.032 55.3956 98.9009 58.1349 97.9554 58.7745C97.0098 59.4003 93.6726 62.0562 90.7385 71.1641C89.7095 73.7922 88.9587 76.6011 88.8613 79.3404C88.8613 79.3404 90.3909 80.4668 94.6737 80.5502C100.333 80.3833 103.921 78.9789 107.133 75.739C109.01 73.8479 110.345 71.2754 112.57 68.0216Z" fill="white"/>
</mask>
<g mask="url(#mask9_1698_5073)">
<path d="M114.015 65.0736C114.015 65.0736 112.722 69.6067 111.512 70.8165C109.413 71.2058 106.84 71.4144 104.017 72.7771C100.708 74.5848 93.9082 76.8514 93.9082 76.8514L94.673 75.1132L100.611 69.857L108.676 66.2277L112.736 65.4491L114.015 65.0736Z" fill="#FAE0E4"/>
<path d="M109.204 74.2512C107.647 72.8606 104.838 77.6997 98.5528 78.7148C90.8076 79.6603 87.957 78.4506 87.957 78.4506V82.5387L97.0789 81.2316L102.738 80.286C102.738 80.286 109.941 74.8352 109.204 74.2512Z" fill="#E26F88"/>
<path d="M104.49 57.8568C104.49 57.8568 104.268 60.8047 101.515 61.4583C98.7754 62.1118 97.8437 62.237 97.8437 62.237L93.3662 77.3381L97.3292 71.5118L101.111 66.9787L105.881 63.6831L106.993 57.5648L104.49 57.8568Z" fill="#E26F88"/>
<path d="M106.201 59.4003C106.201 59.4003 99.3594 58.8997 97.0372 62.4873C94.9375 65.0876 90.3209 78.534 90.3209 78.534L87.957 80.7588C87.957 80.7588 88.4993 70.4272 88.5271 70.3299C88.555 70.2325 96.2307 57.3284 96.4253 57.1199C96.6339 56.9113 99.6653 55.2009 100.138 55.1314C100.611 55.0619 102.571 54.9228 103.142 55.2705C103.726 55.5903 106.201 59.4003 106.201 59.4003Z" fill="#FAE0E4"/>
</g>
<mask id="mask10_1698_5073" style="mask-type:luminance" maskUnits="userSpaceOnUse" x="133" y="72" width="29" height="43">
<path d="M133.217 107.415C135.97 103.981 148.513 100.852 152.629 92.3975C154.853 88.8377 157.301 82.191 155.702 72.6381C155.674 71.623 164.379 84.9721 159.692 98.9608C157.565 105.441 146.441 111.448 145.092 111.976C143.743 112.505 135.469 114.257 135.469 114.257C135.469 114.257 134.552 107.568 133.217 107.415Z" fill="white"/>
</mask>
<g mask="url(#mask10_1698_5073)">
<path d="M134.663 114.896C134.663 114.896 137.027 111.795 143.437 110.641C144.995 110.168 146.413 109.765 148.902 108.347C155.994 105.649 161.459 90.4507 161.459 90.4507L160.179 100.518L150.515 110.043L139.572 114.034L134.663 114.896Z" fill="#695328"/>
</g>
<mask id="mask11_1698_5073" style="mask-type:luminance" maskUnits="userSpaceOnUse" x="135" y="103" width="25" height="18">
<path d="M135.553 116.537C135.553 116.537 135.553 118.748 135.553 119.554C137.291 121 148.457 119.624 151.78 117.761C156.661 114.131 160.012 104.078 159.692 103.841C159.372 103.605 156.133 109.431 148.234 112.838C142.658 114.66 135.553 116.537 135.553 116.537Z" fill="white"/>
</mask>
<g mask="url(#mask11_1698_5073)">
<path d="M138.265 115.007C138.265 115.007 147.901 115.995 152.671 112.671C157.44 109.348 160.416 102.951 160.416 102.951L160.332 102.228L154.117 108.527L140.517 114.117L138.265 115.007Z" fill="#59532E"/>
<path d="M135.136 118.803C135.136 118.803 141.421 120.013 146.747 118.122C152.087 116.231 157.83 110.349 157.83 110.349L155.466 115.55L152.629 118.178L149.514 121.042L142.895 121.849L138.237 121.112L134.997 119.832L135.136 118.803Z" fill="#695328"/>
</g>
<mask id="mask12_1698_5073" style="mask-type:luminance" maskUnits="userSpaceOnUse" x="131" y="121" width="17" height="9">
<path d="M135.136 121.432C136.359 121.793 137.666 122.335 139.057 122.447C140.447 122.558 145.175 121.974 147.011 122.266C146.955 122.808 138.209 128.704 131.771 129.177C134.732 125.77 134.718 121.654 135.136 121.432Z" fill="white"/>
</mask>
<g mask="url(#mask12_1698_5073)">
<path d="M132.911 125.77C132.911 125.77 143.173 123.545 147.025 121.849L147.289 123.003L145.467 124.685L135.136 129.552L130.144 130.095L132.911 125.77Z" fill="#695328"/>
</g>
<mask id="mask13_1698_5073" style="mask-type:luminance" maskUnits="userSpaceOnUse" x="117" y="42" width="35" height="36">
<path d="M144.441 67.8269C142.689 66.1721 135.389 64.7955 135.389 64.7955C135.389 64.7955 129.354 63.2659 126.559 54.6586C126.601 54.2136 126.698 53.8521 126.879 52.4755C128.269 53.7547 129.632 59.4698 134.429 62.2648C137.906 64.8372 144.441 64.1837 146.416 67.2568C147.069 68.0911 150.087 70.2186 150.17 76.5177C150.865 75.2384 151.269 73.6532 151.616 70.5662C151.143 64.1837 146.888 59.7618 143.509 59.2195C140.13 58.6772 140.409 58.7189 138.1 57.4674C133.915 55.9101 133.373 45.9122 127.769 43.4231C120.816 40.1832 117.229 43.8264 117.229 43.8264C123.625 45.5645 125.558 50.195 125.78 51.4604C126.003 52.7257 125.127 57.6065 125.127 57.6065C125.558 64.6982 131.509 66.6866 135.625 67.7434C136.64 68.0076 137.544 68.6056 138.225 68.7585C141.674 69.4955 149.238 77.9082 149.238 77.9082C149.322 77.7969 149.405 77.6857 149.489 77.5745C148.293 74.265 146.596 69.5233 144.441 67.8269Z" fill="white"/>
</mask>
<g mask="url(#mask13_1698_5073)">
<g opacity="0.54">
<path d="M140.061 64.7538C140.061 64.7538 141.868 64.2115 144.608 64.7538C147.361 65.2961 151.018 68.3135 151.616 71.1919C152.214 74.0703 150.058 77.3798 150.058 77.3798L147.138 68.2996L140.061 64.7538Z" fill="#C6819A"/>
<path d="M125.279 55.0757C125.279 55.0757 126.962 62.0144 131.328 64.1975C132.774 64.8511 135.152 65.7827 140.061 67.4514C146.86 70.4271 150.059 79.4238 150.059 79.4238L139.532 70.9277L130.577 67.5487L124.223 59.9981L125.279 55.0757Z" fill="#C6819A"/>
</g>
</g>
<path d="M121.315 153.469C121.315 153.469 117.991 144.361 120.884 137.882C125.027 133.293 128.907 128.829 130.075 127.077C131.34 125.45 133.065 121.014 133.065 117.594C132.008 116.426 123.22 110.878 114.585 123.754C103.78 141.135 114.334 150.841 115.391 151.314C116.42 152.107 121.315 153.469 121.315 153.469Z" fill="#E88FB9"/>
<mask id="mask14_1698_5073" style="mask-type:luminance" maskUnits="userSpaceOnUse" x="109" y="115" width="25" height="39">
<path d="M121.317 153.469C121.317 153.469 117.993 144.361 120.886 137.882C125.029 133.293 128.812 128.94 130.077 127.077C131.342 125.45 133.067 121.014 133.067 117.594C132.01 116.426 123.222 110.877 114.586 123.754C103.782 141.135 114.336 150.841 115.393 151.314C116.422 152.107 121.317 153.469 121.317 153.469Z" fill="white"/>
</mask>
<g mask="url(#mask14_1698_5073)">
<path d="M130.575 114.91C130.575 124.143 123.136 127.842 118.005 134.614C112.874 141.386 116.211 153.469 116.211 153.469L122.58 155.263L127.641 131.68L132.661 125.311L133.12 116.634C133.12 116.62 132.953 114.298 130.575 114.91Z" fill="#E26F88"/>
<path d="M130.284 115.675C130.284 115.675 118.659 119.61 114.126 130.053C108.898 140.996 114.891 152.023 114.891 152.023L109.398 145.363C109.398 145.363 109.357 134.058 109.398 133.752C109.44 133.432 111.248 129.191 111.248 129.191L115.934 118.359L120.342 116.384L125.111 114.938L130.284 115.675Z" fill="#FAE0E4"/>
</g>
<path d="M47.5239 164.419C47.4759 164.935 47.4399 165.433 47.4159 165.913C47.4039 166.393 47.3979 166.759 47.3979 167.011C47.3979 167.287 47.4039 167.545 47.4159 167.785C47.4279 168.025 47.4399 168.235 47.4519 168.415H47.0379C46.9059 167.515 46.7259 166.807 46.4979 166.291C46.2699 165.763 45.9639 165.391 45.5799 165.175C45.1959 164.947 44.6859 164.833 44.0499 164.833H43.2759C42.9159 164.833 42.6399 164.863 42.4479 164.923C42.2559 164.983 42.1239 165.109 42.0519 165.301C41.9919 165.493 41.9619 165.787 41.9619 166.183V175.183C41.9619 175.639 42.0099 175.981 42.1059 176.209C42.2019 176.437 42.3879 176.587 42.6639 176.659C42.9399 176.731 43.3359 176.773 43.8519 176.785V177.163C43.5039 177.139 43.0539 177.127 42.5019 177.127C41.9499 177.115 41.3799 177.109 40.7919 177.109C40.2879 177.109 39.8019 177.115 39.3339 177.127C38.8659 177.127 38.4579 177.139 38.1099 177.163V176.803C38.5059 176.779 38.7999 176.731 38.9919 176.659C39.1959 176.587 39.3279 176.443 39.3879 176.227C39.4599 176.011 39.4959 175.687 39.4959 175.255V166.327C39.4959 165.883 39.4599 165.559 39.3879 165.355C39.3279 165.139 39.1959 164.995 38.9919 164.923C38.7999 164.839 38.5059 164.791 38.1099 164.779V164.419C38.5899 164.431 39.0939 164.443 39.6219 164.455C40.1619 164.455 40.6899 164.461 41.2059 164.473C41.7339 164.473 42.2199 164.473 42.6639 164.473C43.1199 164.473 43.4859 164.473 43.7619 164.473C44.3139 164.473 44.9379 164.473 45.6339 164.473C46.3419 164.461 46.9719 164.443 47.5239 164.419ZM44.8059 170.683C44.8059 170.683 44.8059 170.743 44.8059 170.863C44.8059 170.983 44.8059 171.043 44.8059 171.043H41.4219C41.4219 171.043 41.4219 170.983 41.4219 170.863C41.4219 170.743 41.4219 170.683 41.4219 170.683H44.8059ZM45.2199 168.307C45.1719 168.991 45.1479 169.513 45.1479 169.873C45.1599 170.233 45.1659 170.563 45.1659 170.863C45.1659 171.163 45.1719 171.493 45.1839 171.853C45.1959 172.213 45.2259 172.735 45.2739 173.419H44.8599C44.8119 173.011 44.7219 172.627 44.5899 172.267C44.4579 171.895 44.2539 171.601 43.9779 171.385C43.7139 171.157 43.3299 171.043 42.8259 171.043V170.683C43.1979 170.683 43.5039 170.605 43.7439 170.449C43.9839 170.293 44.1699 170.095 44.3019 169.855C44.4459 169.603 44.5539 169.345 44.6259 169.081C44.7099 168.805 44.7699 168.547 44.8059 168.307H45.2199ZM50.6912 163.267C51.1232 163.267 51.4772 163.387 51.7532 163.627C52.0292 163.867 52.1672 164.185 52.1672 164.581C52.1672 164.977 52.0292 165.295 51.7532 165.535C51.4772 165.775 51.1232 165.895 50.6912 165.895C50.2592 165.895 49.9052 165.775 49.6292 165.535C49.3532 165.295 49.2152 164.977 49.2152 164.581C49.2152 164.185 49.3532 163.867 49.6292 163.627C49.9052 163.387 50.2592 163.267 50.6912 163.267ZM51.9512 167.659V175.489C51.9512 175.993 52.0412 176.335 52.2212 176.515C52.4132 176.695 52.7312 176.785 53.1752 176.785V177.163C52.9592 177.151 52.6292 177.139 52.1852 177.127C51.7412 177.103 51.2912 177.091 50.8352 177.091C50.3912 177.091 49.9412 177.103 49.4852 177.127C49.0292 177.139 48.6872 177.151 48.4592 177.163V176.785C48.9032 176.785 49.2152 176.695 49.3952 176.515C49.5872 176.335 49.6832 175.993 49.6832 175.489V169.837C49.6832 169.285 49.5932 168.883 49.4132 168.631C49.2452 168.367 48.9272 168.235 48.4592 168.235V167.857C48.8432 167.893 49.2152 167.911 49.5752 167.911C50.0192 167.911 50.4392 167.893 50.8352 167.857C51.2432 167.809 51.6152 167.743 51.9512 167.659ZM57.3983 164.905V167.875H59.7023V168.235H57.3983V175.399C57.3983 175.831 57.4763 176.137 57.6323 176.317C57.7883 176.497 58.0103 176.587 58.2983 176.587C58.5743 176.587 58.8263 176.485 59.0543 176.281C59.2823 176.065 59.4863 175.711 59.6663 175.219L59.9903 175.363C59.8103 175.951 59.5283 176.443 59.1443 176.839C58.7723 177.223 58.2443 177.415 57.5603 177.415C57.1523 177.415 56.8043 177.361 56.5163 177.253C56.2403 177.157 56.0003 177.013 55.7963 176.821C55.5323 176.545 55.3523 176.215 55.2563 175.831C55.1723 175.447 55.1303 174.937 55.1303 174.301V168.235H53.5463V167.875H55.1303V165.373C55.5623 165.361 55.9643 165.319 56.3363 165.247C56.7083 165.175 57.0623 165.061 57.3983 164.905ZM70.9713 164.167C71.7633 164.167 72.4113 164.287 72.9153 164.527C73.4313 164.755 73.8873 165.025 74.2833 165.337C74.5233 165.517 74.7033 165.541 74.8233 165.409C74.9553 165.265 75.0453 164.935 75.0933 164.419H75.5073C75.4833 164.875 75.4653 165.433 75.4533 166.093C75.4413 166.753 75.4353 167.623 75.4353 168.703H75.0213C74.9493 168.163 74.8713 167.713 74.7873 167.353C74.7033 166.981 74.5833 166.663 74.4273 166.399C74.2833 166.135 74.0793 165.883 73.8153 165.643C73.4913 165.283 73.1013 165.019 72.6453 164.851C72.2013 164.671 71.7333 164.581 71.2413 164.581C70.6173 164.581 70.0713 164.749 69.6033 165.085C69.1473 165.409 68.7633 165.859 68.4513 166.435C68.1513 166.999 67.9233 167.659 67.7673 168.415C67.6233 169.171 67.5513 169.975 67.5513 170.827C67.5513 171.703 67.6293 172.519 67.7853 173.275C67.9533 174.019 68.1933 174.673 68.5053 175.237C68.8293 175.789 69.2253 176.221 69.6933 176.533C70.1733 176.845 70.7253 177.001 71.3493 177.001C71.7933 177.001 72.2493 176.917 72.7173 176.749C73.1853 176.581 73.5693 176.323 73.8693 175.975C74.2653 175.615 74.5353 175.189 74.6793 174.697C74.8233 174.193 74.9373 173.527 75.0213 172.699H75.4353C75.4353 173.827 75.4413 174.739 75.4533 175.435C75.4653 176.119 75.4833 176.695 75.5073 177.163H75.0933C75.0453 176.647 74.9613 176.323 74.8413 176.191C74.7333 176.059 74.5473 176.077 74.2833 176.245C73.8393 176.557 73.3653 176.833 72.8613 177.073C72.3693 177.301 71.7333 177.415 70.9533 177.415C69.7293 177.415 68.6553 177.157 67.7313 176.641C66.8073 176.125 66.0873 175.381 65.5713 174.409C65.0673 173.437 64.8153 172.267 64.8153 170.899C64.8153 169.555 65.0793 168.379 65.6073 167.371C66.1353 166.363 66.8613 165.577 67.7853 165.013C68.7093 164.449 69.7713 164.167 70.9713 164.167ZM80.4248 163.069V169.441C80.7248 168.769 81.1388 168.295 81.6668 168.019C82.2068 167.743 82.7888 167.605 83.4128 167.605C83.9048 167.605 84.3068 167.671 84.6188 167.803C84.9308 167.935 85.1828 168.103 85.3748 168.307C85.5788 168.535 85.7228 168.829 85.8068 169.189C85.9028 169.549 85.9508 170.035 85.9508 170.647V175.489C85.9508 175.993 86.0408 176.335 86.2208 176.515C86.4128 176.695 86.7308 176.785 87.1748 176.785V177.163C86.9588 177.151 86.6288 177.139 86.1848 177.127C85.7408 177.103 85.3028 177.091 84.8708 177.091C84.4388 177.091 84.0128 177.103 83.5928 177.127C83.1728 177.139 82.8548 177.151 82.6388 177.163V176.785C83.0228 176.785 83.2928 176.695 83.4488 176.515C83.6048 176.335 83.6828 175.993 83.6828 175.489V170.035C83.6828 169.711 83.6528 169.423 83.5928 169.171C83.5328 168.907 83.4128 168.703 83.2328 168.559C83.0648 168.403 82.8068 168.325 82.4588 168.325C82.0748 168.325 81.7268 168.433 81.4148 168.649C81.1148 168.853 80.8748 169.147 80.6948 169.531C80.5148 169.903 80.4248 170.329 80.4248 170.809V175.489C80.4248 175.993 80.5028 176.335 80.6588 176.515C80.8268 176.695 81.0968 176.785 81.4688 176.785V177.163C81.2648 177.151 80.9588 177.139 80.5508 177.127C80.1548 177.103 79.7408 177.091 79.3088 177.091C78.8768 177.091 78.4268 177.103 77.9588 177.127C77.5028 177.139 77.1608 177.151 76.9328 177.163V176.785C77.3768 176.785 77.6888 176.695 77.8688 176.515C78.0608 176.335 78.1568 175.993 78.1568 175.489V165.229C78.1568 164.689 78.0668 164.293 77.8868 164.041C77.7188 163.777 77.4008 163.645 76.9328 163.645V163.267C77.3168 163.303 77.6888 163.321 78.0488 163.321C78.5048 163.321 78.9308 163.303 79.3268 163.267C79.7228 163.219 80.0888 163.153 80.4248 163.069ZM90.1189 163.267C90.5509 163.267 90.9049 163.387 91.1809 163.627C91.4569 163.867 91.5949 164.185 91.5949 164.581C91.5949 164.977 91.4569 165.295 91.1809 165.535C90.9049 165.775 90.5509 165.895 90.1189 165.895C89.6869 165.895 89.3329 165.775 89.0569 165.535C88.7809 165.295 88.6429 164.977 88.6429 164.581C88.6429 164.185 88.7809 163.867 89.0569 163.627C89.3329 163.387 89.6869 163.267 90.1189 163.267ZM91.3789 167.659V175.489C91.3789 175.993 91.4689 176.335 91.6489 176.515C91.8409 176.695 92.1589 176.785 92.6029 176.785V177.163C92.3869 177.151 92.0569 177.139 91.6129 177.127C91.1689 177.103 90.7189 177.091 90.2629 177.091C89.8189 177.091 89.3689 177.103 88.9129 177.127C88.4569 177.139 88.1149 177.151 87.8869 177.163V176.785C88.3309 176.785 88.6429 176.695 88.8229 176.515C89.0149 176.335 89.1109 175.993 89.1109 175.489V169.837C89.1109 169.285 89.0209 168.883 88.8409 168.631C88.6729 168.367 88.3549 168.235 87.8869 168.235V167.857C88.2709 167.893 88.6429 167.911 89.0029 167.911C89.4469 167.911 89.8669 167.893 90.2629 167.857C90.6709 167.809 91.0429 167.743 91.3789 167.659ZM98.0321 167.605C98.4761 167.605 98.8841 167.659 99.2561 167.767C99.6401 167.863 99.9701 168.001 100.246 168.181C100.534 168.361 100.762 168.589 100.93 168.865C101.098 169.129 101.182 169.423 101.182 169.747C101.182 170.143 101.062 170.461 100.822 170.701C100.582 170.941 100.282 171.061 99.9221 171.061C99.5501 171.061 99.2441 170.953 99.0041 170.737C98.7761 170.521 98.6621 170.233 98.6621 169.873C98.6621 169.525 98.7641 169.237 98.9681 169.009C99.1721 168.781 99.4181 168.631 99.7061 168.559C99.5981 168.403 99.4301 168.277 99.2021 168.181C98.9741 168.073 98.7221 168.019 98.4461 168.019C98.0861 168.019 97.7621 168.115 97.4741 168.307C97.1861 168.487 96.9341 168.763 96.7181 169.135C96.5141 169.495 96.3521 169.945 96.2321 170.485C96.1241 171.013 96.0701 171.625 96.0701 172.321C96.0701 173.293 96.1841 174.061 96.4121 174.625C96.6521 175.189 96.9581 175.591 97.3301 175.831C97.7021 176.059 98.0981 176.173 98.5181 176.173C98.7701 176.173 99.0401 176.125 99.3281 176.029C99.6161 175.933 99.8981 175.771 100.174 175.543C100.462 175.315 100.72 174.991 100.948 174.571L101.29 174.697C101.158 175.117 100.942 175.537 100.642 175.957C100.354 176.377 99.9761 176.725 99.5081 177.001C99.0401 177.277 98.4701 177.415 97.7981 177.415C97.0301 177.415 96.3341 177.241 95.7101 176.893C95.0861 176.533 94.5881 175.993 94.2161 175.273C93.8561 174.553 93.6761 173.659 93.6761 172.591C93.6761 171.535 93.8621 170.641 94.2341 169.909C94.6061 169.165 95.1221 168.595 95.7821 168.199C96.4541 167.803 97.2041 167.605 98.0321 167.605ZM105.667 163.069V175.489C105.667 175.993 105.751 176.335 105.919 176.515C106.087 176.695 106.375 176.785 106.783 176.785V177.163C106.579 177.151 106.267 177.139 105.847 177.127C105.427 177.103 105.001 177.091 104.569 177.091C104.125 177.091 103.669 177.103 103.201 177.127C102.745 177.139 102.403 177.151 102.175 177.163V176.785C102.619 176.785 102.931 176.695 103.111 176.515C103.303 176.335 103.399 175.993 103.399 175.489V165.229C103.399 164.689 103.309 164.293 103.129 164.041C102.961 163.777 102.643 163.645 102.175 163.645V163.267C102.559 163.303 102.931 163.321 103.291 163.321C103.747 163.321 104.173 163.303 104.569 163.267C104.965 163.219 105.331 163.153 105.667 163.069ZM111.499 167.857V168.217C111.139 168.289 110.791 168.427 110.455 168.631C110.119 168.823 109.789 169.093 109.465 169.441L107.683 171.295L107.881 170.899L111.049 175.849C111.217 176.089 111.373 176.293 111.517 176.461C111.673 176.617 111.865 176.725 112.093 176.785V177.163C111.937 177.151 111.691 177.139 111.355 177.127C111.019 177.103 110.683 177.091 110.347 177.091C109.939 177.091 109.519 177.103 109.087 177.127C108.667 177.139 108.349 177.151 108.133 177.163V176.785C108.373 176.785 108.535 176.731 108.619 176.623C108.715 176.503 108.703 176.353 108.583 176.173L106.711 173.023C106.543 172.759 106.381 172.591 106.225 172.519C106.069 172.435 105.859 172.393 105.595 172.393V172.033C105.895 172.009 106.141 171.955 106.333 171.871C106.537 171.787 106.729 171.655 106.909 171.475L108.259 170.125C108.655 169.729 108.853 169.393 108.853 169.117C108.865 168.841 108.739 168.631 108.475 168.487C108.223 168.331 107.893 168.241 107.485 168.217V167.857C107.809 167.869 108.169 167.887 108.565 167.911C108.961 167.923 109.297 167.929 109.573 167.929C109.789 167.929 110.017 167.929 110.257 167.929C110.509 167.917 110.743 167.905 110.959 167.893C111.187 167.881 111.367 167.869 111.499 167.857ZM132.049 164.419V164.779C131.665 164.791 131.371 164.839 131.167 164.923C130.963 164.995 130.825 165.139 130.753 165.355C130.693 165.559 130.663 165.883 130.663 166.327V175.255C130.663 175.687 130.699 176.011 130.771 176.227C130.843 176.443 130.975 176.587 131.167 176.659C131.371 176.731 131.665 176.779 132.049 176.803V177.163C131.737 177.139 131.341 177.127 130.861 177.127C130.381 177.115 129.895 177.109 129.403 177.109C128.863 177.109 128.353 177.115 127.873 177.127C127.405 177.127 127.027 177.139 126.739 177.163V176.803C127.147 176.779 127.453 176.731 127.657 176.659C127.873 176.587 128.017 176.443 128.089 176.227C128.161 176.011 128.197 175.687 128.197 175.255V165.463L128.323 165.481L123.859 177.217H123.571L118.819 165.571V174.499C118.819 175.075 118.855 175.525 118.927 175.849C118.999 176.161 119.155 176.389 119.395 176.533C119.647 176.665 120.025 176.755 120.529 176.803V177.163C120.301 177.139 120.007 177.127 119.647 177.127C119.287 177.115 118.945 177.109 118.621 177.109C118.333 177.109 118.039 177.115 117.739 177.127C117.451 177.127 117.211 177.139 117.019 177.163V176.803C117.415 176.755 117.709 176.665 117.901 176.533C118.105 176.401 118.237 176.185 118.297 175.885C118.369 175.585 118.405 175.171 118.405 174.643V166.327C118.405 165.883 118.369 165.559 118.297 165.355C118.237 165.139 118.105 164.995 117.901 164.923C117.709 164.839 117.415 164.791 117.019 164.779V164.419C117.211 164.431 117.451 164.443 117.739 164.455C118.039 164.467 118.333 164.473 118.621 164.473C119.065 164.473 119.497 164.467 119.917 164.455C120.337 164.443 120.709 164.431 121.033 164.419L124.903 174.085L124.507 174.409L128.269 164.473C128.449 164.473 128.635 164.473 128.827 164.473C129.031 164.473 129.223 164.473 129.403 164.473C129.895 164.473 130.381 164.467 130.861 164.455C131.341 164.443 131.737 164.431 132.049 164.419ZM137.424 167.605C138.252 167.605 138.984 167.773 139.62 168.109C140.268 168.433 140.778 168.955 141.15 169.675C141.534 170.395 141.726 171.343 141.726 172.519C141.726 173.695 141.534 174.643 141.15 175.363C140.778 176.083 140.268 176.605 139.62 176.929C138.984 177.253 138.252 177.415 137.424 177.415C136.596 177.415 135.858 177.253 135.21 176.929C134.562 176.605 134.052 176.083 133.68 175.363C133.308 174.643 133.122 173.695 133.122 172.519C133.122 171.343 133.308 170.395 133.68 169.675C134.052 168.955 134.562 168.433 135.21 168.109C135.858 167.773 136.596 167.605 137.424 167.605ZM137.424 167.965C136.86 167.965 136.398 168.325 136.038 169.045C135.69 169.753 135.516 170.911 135.516 172.519C135.516 174.127 135.69 175.285 136.038 175.993C136.398 176.701 136.86 177.055 137.424 177.055C137.976 177.055 138.432 176.701 138.792 175.993C139.152 175.285 139.332 174.127 139.332 172.519C139.332 170.911 139.152 169.753 138.792 169.045C138.432 168.325 137.976 167.965 137.424 167.965ZM151.245 167.857V168.235C151.017 168.283 150.801 168.409 150.597 168.613C150.405 168.817 150.219 169.177 150.039 169.693L147.285 177.217C147.141 177.205 146.997 177.199 146.853 177.199C146.709 177.199 146.559 177.205 146.403 177.217L143.163 169.243C142.983 168.787 142.797 168.505 142.605 168.397C142.413 168.289 142.251 168.235 142.119 168.235V167.857C142.455 167.881 142.803 167.905 143.163 167.929C143.523 167.941 143.919 167.947 144.351 167.947C144.723 167.947 145.113 167.941 145.521 167.929C145.941 167.905 146.331 167.881 146.691 167.857V168.235C146.427 168.235 146.187 168.253 145.971 168.289C145.767 168.325 145.629 168.421 145.557 168.577C145.485 168.721 145.515 168.979 145.647 169.351L147.807 174.949L147.645 175.147L149.283 170.701C149.487 170.137 149.571 169.681 149.535 169.333C149.499 168.985 149.367 168.721 149.139 168.541C148.923 168.361 148.611 168.259 148.203 168.235V167.857C148.407 167.869 148.599 167.881 148.779 167.893C148.971 167.905 149.157 167.917 149.337 167.929C149.529 167.929 149.709 167.929 149.877 167.929C150.129 167.929 150.375 167.923 150.615 167.911C150.867 167.899 151.077 167.881 151.245 167.857ZM156.038 167.605C157.094 167.605 157.922 167.923 158.522 168.559C159.122 169.195 159.422 170.209 159.422 171.601H153.356L153.338 171.259H157.334C157.358 170.671 157.322 170.131 157.226 169.639C157.13 169.135 156.974 168.733 156.758 168.433C156.554 168.133 156.284 167.983 155.948 167.983C155.492 167.983 155.096 168.253 154.76 168.793C154.424 169.321 154.214 170.191 154.13 171.403L154.202 171.511C154.178 171.667 154.16 171.835 154.148 172.015C154.148 172.195 154.148 172.375 154.148 172.555C154.148 173.383 154.268 174.067 154.508 174.607C154.748 175.147 155.06 175.543 155.444 175.795C155.828 176.047 156.224 176.173 156.632 176.173C156.908 176.173 157.19 176.131 157.478 176.047C157.766 175.963 158.048 175.807 158.324 175.579C158.6 175.351 158.852 175.027 159.08 174.607L159.422 174.751C159.29 175.171 159.068 175.591 158.756 176.011C158.456 176.419 158.066 176.755 157.586 177.019C157.106 177.283 156.542 177.415 155.894 177.415C155.078 177.415 154.358 177.235 153.734 176.875C153.11 176.515 152.624 175.981 152.276 175.273C151.928 174.553 151.754 173.677 151.754 172.645C151.754 171.553 151.934 170.635 152.294 169.891C152.666 169.147 153.176 168.583 153.824 168.199C154.472 167.803 155.21 167.605 156.038 167.605ZM166.856 167.605C167.324 167.605 167.714 167.671 168.026 167.803C168.35 167.935 168.602 168.103 168.782 168.307C168.998 168.535 169.148 168.841 169.232 169.225C169.316 169.597 169.358 170.071 169.358 170.647V175.489C169.358 175.993 169.442 176.335 169.61 176.515C169.79 176.695 170.09 176.785 170.51 176.785V177.163C170.294 177.151 169.97 177.139 169.538 177.127C169.106 177.103 168.686 177.091 168.278 177.091C167.846 177.091 167.426 177.103 167.018 177.127C166.622 177.139 166.322 177.151 166.118 177.163V176.785C166.466 176.785 166.712 176.695 166.856 176.515C167.012 176.335 167.09 175.993 167.09 175.489V170.035C167.09 169.711 167.066 169.423 167.018 169.171C166.97 168.907 166.868 168.703 166.712 168.559C166.556 168.403 166.316 168.325 165.992 168.325C165.62 168.325 165.284 168.433 164.984 168.649C164.684 168.865 164.444 169.165 164.264 169.549C164.096 169.921 164.012 170.341 164.012 170.809V175.489C164.012 175.993 164.084 176.335 164.228 176.515C164.372 176.695 164.624 176.785 164.984 176.785V177.163C164.78 177.151 164.48 177.139 164.084 177.127C163.7 177.103 163.304 177.091 162.896 177.091C162.452 177.091 162.002 177.103 161.546 177.127C161.09 177.139 160.748 177.151 160.52 177.163V176.785C160.964 176.785 161.276 176.695 161.456 176.515C161.648 176.335 161.744 175.993 161.744 175.489V169.819C161.744 169.279 161.654 168.883 161.474 168.631C161.306 168.367 160.988 168.235 160.52 168.235V167.857C160.904 167.893 161.276 167.911 161.636 167.911C162.08 167.911 162.5 167.893 162.896 167.857C163.304 167.809 163.676 167.743 164.012 167.659V169.459C164.312 168.799 164.714 168.325 165.218 168.037C165.722 167.749 166.268 167.605 166.856 167.605ZM172.274 167.605C172.742 167.605 173.132 167.671 173.444 167.803C173.768 167.935 174.02 168.103 174.2 168.307C174.416 168.535 174.566 168.841 174.65 169.225C174.734 169.597 174.776 170.071 174.776 170.647V175.489C174.776 175.993 174.866 176.335 175.046 176.515C175.238 176.695 175.556 176.785 176 176.785V177.163C175.784 177.151 175.448 177.139 174.992 177.127C174.548 177.103 174.116 177.091 173.696 177.091C173.264 177.091 172.844 177.103 172.436 177.127C172.04 177.139 171.74 177.151 171.536 177.163V176.785C171.884 176.785 172.13 176.695 172.274 176.515C172.43 176.335 172.508 175.993 172.508 175.489V170.035C172.508 169.711 172.478 169.423 172.418 169.171C172.37 168.907 172.262 168.703 172.094 168.559C171.926 168.403 171.674 168.325 171.338 168.325C170.966 168.325 170.63 168.439 170.33 168.667C170.03 168.895 169.79 169.201 169.61 169.585C169.442 169.957 169.352 170.377 169.34 170.845L169.25 169.549C169.574 168.805 170.006 168.295 170.546 168.019C171.086 167.743 171.662 167.605 172.274 167.605ZM181.245 167.605C182.301 167.605 183.129 167.923 183.729 168.559C184.329 169.195 184.629 170.209 184.629 171.601H178.563L178.545 171.259H182.541C182.565 170.671 182.529 170.131 182.433 169.639C182.337 169.135 182.181 168.733 181.965 168.433C181.761 168.133 181.491 167.983 181.155 167.983C180.699 167.983 180.303 168.253 179.967 168.793C179.631 169.321 179.421 170.191 179.337 171.403L179.409 171.511C179.385 171.667 179.367 171.835 179.355 172.015C179.355 172.195 179.355 172.375 179.355 172.555C179.355 173.383 179.475 174.067 179.715 174.607C179.955 175.147 180.267 175.543 180.651 175.795C181.035 176.047 181.431 176.173 181.839 176.173C182.115 176.173 182.397 176.131 182.685 176.047C182.973 175.963 183.255 175.807 183.531 175.579C183.807 175.351 184.059 175.027 184.287 174.607L184.629 174.751C184.497 175.171 184.275 175.591 183.963 176.011C183.663 176.419 183.273 176.755 182.793 177.019C182.313 177.283 181.749 177.415 181.101 177.415C180.285 177.415 179.565 177.235 178.941 176.875C178.317 176.515 177.831 175.981 177.483 175.273C177.135 174.553 176.961 173.677 176.961 172.645C176.961 171.553 177.141 170.635 177.501 169.891C177.873 169.147 178.383 168.583 179.031 168.199C179.679 167.803 180.417 167.605 181.245 167.605ZM192.189 167.605C192.693 167.605 193.095 167.671 193.395 167.803C193.707 167.935 193.959 168.103 194.151 168.307C194.367 168.535 194.517 168.829 194.601 169.189C194.697 169.549 194.745 170.035 194.745 170.647V175.489C194.745 175.993 194.835 176.335 195.015 176.515C195.207 176.695 195.525 176.785 195.969 176.785V177.163C195.753 177.151 195.417 177.139 194.961 177.127C194.517 177.103 194.085 177.091 193.665 177.091C193.221 177.091 192.789 177.103 192.369 177.127C191.949 177.139 191.637 177.151 191.433 177.163V176.785C191.817 176.785 192.087 176.695 192.243 176.515C192.399 176.335 192.477 175.993 192.477 175.489V170.035C192.477 169.711 192.447 169.423 192.387 169.171C192.327 168.907 192.207 168.703 192.027 168.559C191.847 168.403 191.589 168.325 191.253 168.325C190.857 168.325 190.503 168.433 190.191 168.649C189.891 168.865 189.651 169.165 189.471 169.549C189.303 169.921 189.219 170.341 189.219 170.809V175.489C189.219 175.993 189.297 176.335 189.453 176.515C189.609 176.695 189.879 176.785 190.263 176.785V177.163C190.059 177.151 189.753 177.139 189.345 177.127C188.937 177.103 188.523 177.091 188.103 177.091C187.659 177.091 187.209 177.103 186.753 177.127C186.297 177.139 185.955 177.151 185.727 177.163V176.785C186.171 176.785 186.483 176.695 186.663 176.515C186.855 176.335 186.951 175.993 186.951 175.489V169.819C186.951 169.279 186.861 168.883 186.681 168.631C186.513 168.367 186.195 168.235 185.727 168.235V167.857C186.111 167.893 186.483 167.911 186.843 167.911C187.287 167.911 187.707 167.893 188.103 167.857C188.511 167.809 188.883 167.743 189.219 167.659V169.459C189.519 168.775 189.933 168.295 190.461 168.019C190.989 167.743 191.565 167.605 192.189 167.605ZM200.08 164.905V167.875H202.384V168.235H200.08V175.399C200.08 175.831 200.158 176.137 200.314 176.317C200.47 176.497 200.692 176.587 200.98 176.587C201.256 176.587 201.508 176.485 201.736 176.281C201.964 176.065 202.168 175.711 202.348 175.219L202.672 175.363C202.492 175.951 202.21 176.443 201.826 176.839C201.454 177.223 200.926 177.415 200.242 177.415C199.834 177.415 199.486 177.361 199.198 177.253C198.922 177.157 198.682 177.013 198.478 176.821C198.214 176.545 198.034 176.215 197.938 175.831C197.854 175.447 197.812 174.937 197.812 174.301V168.235H196.228V167.875H197.812V165.373C198.244 165.361 198.646 165.319 199.018 165.247C199.39 165.175 199.744 165.061 200.08 164.905Z" fill="#25292A"/>
</g>
<defs>
<clipPath id="clip0_1698_5073">
<rect width="678" height="1024" fill="white"/>
</clipPath>
</defs>
</svg>
