<svg width="505" height="634" viewBox="0 0 505 634" fill="none" xmlns="http://www.w3.org/2000/svg">
<path d="M337.838 67.9026C336.305 70.3195 334.158 72.122 331.666 73.4597C329.404 74.7628 326.872 75.6814 324.346 76.4105C317.676 78.2878 309.931 78.7872 304.374 74.648C301.194 72.2713 298.932 68.4766 295.171 67.1333C289.23 65.0264 283.213 70.0094 276.921 70.8131C272.627 71.3872 268.218 69.8544 264.653 67.3227C261.128 64.7565 258.401 61.266 256.065 57.5459C253.493 53.4412 251.196 48.8027 247.017 46.3513C243.297 44.1641 238.773 44.0894 234.444 44.164C229.077 44.319 223.06 44.9332 219.645 49.1069C218.186 50.8693 216.923 53.9005 215.121 55.6629C213.818 56.9661 212.245 57.5804 210.097 56.7365C204.075 54.3598 206.837 47.8439 209.179 44.009C214.661 34.9613 224.783 28.6752 235.443 28.48C239.812 28.3652 244.147 29.2091 248.515 29.3239C253.114 29.4387 257.718 28.7842 262.087 27.3662C266.915 25.7588 271.404 23.3018 276.272 21.8092C285.739 18.8928 297.089 20.4312 303.76 27.7508C305.752 29.9381 307.285 32.5445 309.547 34.4619C313.301 37.6079 318.405 38.3314 323.003 39.8699C328.83 41.7874 334.272 45.3122 337.418 50.5307C340.593 55.7491 341.133 62.7702 337.838 67.9026Z" fill="#3B2645"/>
<path d="M331.66 73.4654C329.398 74.7686 326.867 75.6872 324.341 76.4163C317.67 78.2935 309.925 78.7929 304.368 74.6538C301.188 72.2771 298.926 68.4824 295.165 67.139C289.224 65.0321 283.207 70.0152 276.915 70.8189C272.621 71.393 268.212 69.8601 264.647 67.3284C261.122 64.7622 258.395 61.2718 256.059 57.5517C253.487 53.447 251.19 48.8085 247.011 46.3571C243.291 44.1698 238.767 44.0951 234.439 44.1698C229.071 44.3248 223.054 44.939 219.639 49.1126C218.18 50.8751 216.917 53.9062 215.115 55.6687C211.819 40.8343 230.793 35.8857 241.953 36.4253C249.428 36.81 256.903 39.8353 261.926 45.3983C264.957 48.8083 267.179 53.183 271.243 55.2153C274.998 57.0925 279.447 56.5929 283.586 56.059C290.297 55.1749 297.812 54.6009 303.099 58.8205C307.353 62.2306 309.311 68.2527 314.254 70.5892C319.581 73.0807 326.447 70.3195 331.505 73.3507L331.66 73.4654Z" fill="#2C1C33"/>
<path d="M231.907 349.504C227.079 354.602 221.556 359.51 215.574 364.109C209.787 368.592 203.61 372.772 197.324 376.566C172.673 391.441 131.189 418.32 118.037 427.861C115.66 429.589 114.856 432.769 116.194 435.336C121.447 445.417 126.774 466.428 131.568 489.966C141.075 537.087 148.285 594.364 148.285 594.364C141.574 604.025 124.593 599.806 124.593 599.806C124.593 599.806 102.778 548.161 84.3378 500.586C70.422 464.511 58.458 430.731 59.4971 423.641C61.9886 406.275 118.387 351.95 158.717 314.146C181.45 292.79 199.086 276.727 199.086 275.498C199.086 275.498 204.954 274.695 212.887 276.227C222.624 278.145 235.506 283.627 244.594 298.542C254.715 315.231 247.011 333.361 231.907 349.504Z" fill="#F0C2AE"/>
<path d="M492.956 451.295C493.226 455.05 492.227 458.885 491.039 461.956C489.58 465.825 487.778 468.552 487.778 468.552C487.778 468.552 432.533 472.387 380.355 473.501C338.796 474.345 299.19 473.501 291.141 467.594C280.561 459.849 259.245 413.383 240.651 370.022C237.619 363.047 234.709 356.14 231.907 349.51C218.336 317.344 207.715 291.194 206.452 290.849C206.452 290.849 207.83 284.023 212.893 276.245C218.146 268.081 227.424 258.913 243.297 255.543C274.275 248.987 302.721 292.308 304.294 327.35C304.564 333.981 305.367 341.691 306.441 349.854C310.046 377.267 316.987 409.737 319.857 422.7C320.512 425.651 323.348 427.649 326.339 427.184C338.073 425.421 360.692 426.799 385.458 429.405C433.842 434.543 490.505 444.355 490.505 444.355C492.072 446.502 492.761 448.878 492.956 451.295Z" fill="#F0C2AE"/>
<path d="M185.475 200.075C181.973 180.986 177.237 161.427 172.908 163.769C164.601 168.236 155.611 192.365 149.078 227.051C142.573 261.697 130.386 272.427 130.386 272.427C112.83 273.788 95.2687 275.154 77.7131 276.514C64.2622 277.588 51.2936 281.032 39.6454 272.444C35.7875 269.591 32.0445 266.445 27.5034 264.935C22.9624 263.425 17.3077 263.994 14.3167 267.714C8.04188 275.556 11.2683 291.349 20.9416 293.961C36.6142 298.203 53.4063 299.679 69.5955 301.011C92.9379 302.94 116.642 304.432 140.047 302.744C148.567 302.394 160.927 286.01 171.341 269.344C182.162 252.035 190.837 234.434 190.837 234.434C190.837 234.434 188.667 217.429 185.475 200.075ZM45.9144 280.166C45.7881 280.108 45.7077 280.079 45.5757 279.988C45.6963 280.011 45.8226 280.068 45.9374 280.085L45.9144 280.166Z" fill="#F0C2AE"/>
<path d="M190.837 234.434C190.837 234.434 182.157 252.035 171.341 269.344C173.178 236.122 167.695 212.762 167.695 212.762C165.686 199.805 178.982 199.489 185.475 200.075C188.667 217.429 190.837 234.434 190.837 234.434Z" fill="#472938"/>
<path d="M275.457 268.839C248.119 280.264 225.466 284.058 208.559 284.672C199.741 282.296 198.323 280.108 198.323 280.108C197.404 279.689 194.528 272.634 194.258 271.675C192.651 266.038 188.85 260.905 187.088 255.302C183.523 244.148 183.063 232.109 175.009 222.677C173.166 220.604 171.059 218.727 169.527 216.39C165.422 210.294 165.847 202.36 167.075 195.034C167.15 194.615 167.23 194.15 167.305 193.731C168.723 185.717 167.689 178.512 168.223 170.653C168.608 165.015 173.821 162.949 179.033 161.261C180.032 160.957 183.787 159.728 184.556 159.458C187.737 158.459 190.997 157.581 193.833 156.892C198.053 155.778 201.153 155.089 201.153 155.089L201.842 127.906C201.113 115.179 229.599 109.312 229.599 109.312L231.287 150.755C231.327 151.059 232.9 150.91 235.77 150.64C237.573 150.451 239.875 150.256 242.631 150.026C242.786 149.986 242.935 149.951 243.13 149.986C243.744 149.911 244.319 149.871 244.973 149.831C246.121 149.756 247.31 149.676 248.578 149.601C251.11 149.372 253.751 149.257 256.283 149.486C260.732 149.905 264.601 151.444 266.099 155.968C269.09 165.056 267.328 175.441 266.559 184.684C266.059 190.706 265.944 196.567 266.025 202.475C266.065 204.312 266.099 206.114 266.14 207.957C266.409 214.513 266.829 221.029 267.328 227.585C267.403 228.544 267.443 229.462 267.517 230.421C267.713 232.993 273.04 268.839 275.457 268.839Z" fill="#F0C2AE"/>
<path d="M244.164 190.172C333.061 216.075 344.302 227.08 344.302 227.08C344.009 244.687 343.699 262.3 343.424 279.907C343.211 293.398 345.439 306.625 335.771 317.407C331.936 321.684 327.654 325.788 326.184 331.546C325.191 335.421 326 339.716 328.951 342.414C336.288 349.136 351.96 347.316 355.439 338.062C361.152 322.86 364.194 306.287 367.053 290.27C371.169 267.214 375.395 243.78 375.395 220.323C375.4 186.538 286.612 158.132 263.362 151.272C259.957 150.267 257.316 152.689 254.09 154.176C241.546 159.969 235.358 187.606 244.164 190.172ZM344.055 311.901C343.981 312.01 343.923 312.096 343.849 312.205C343.883 312.096 343.917 311.987 343.952 311.849L344.055 311.901Z" fill="#F0C2AE"/>
<path d="M306.435 349.848C302.485 349.619 298.582 349.722 294.821 350.003C292.829 350.153 290.831 350.308 288.914 350.618C267.753 353.609 250.307 363.46 240.645 370.016C237.613 363.041 234.703 356.135 231.901 349.504C227.073 354.602 221.551 359.51 215.569 364.109C212.962 360.084 209.667 355.98 205.866 351.915C191.526 336.581 170.595 321.936 158.711 314.152C181.445 292.795 199.081 276.733 199.081 275.504C199.081 275.504 204.948 274.7 212.882 276.233C218.135 268.07 227.412 258.901 243.285 255.532C274.263 248.975 302.709 292.296 304.282 327.338C304.558 333.975 305.361 341.679 306.435 349.848Z" fill="#6E683B"/>
<path d="M153.463 609.249C153.504 612.43 151.391 615.266 148.785 617.069C146.178 618.831 143.073 619.715 140.041 620.599C127.963 624.164 117.227 629.917 104.54 632.024C96.9503 633.252 81.3467 635.284 78.9699 624.893C78.9699 624.893 78.9298 624.704 78.8953 624.354C78.7805 623.355 78.7059 621.208 79.699 618.716C81.1572 614.956 85.0667 610.513 94.8435 608.365C96.9504 607.906 98.8161 607.263 100.441 606.523C101.313 606.126 102.14 605.736 102.892 605.26C103.128 605.11 103.351 604.955 103.547 604.8C104.85 603.956 105.923 602.998 106.842 602.039C106.957 601.924 107.072 601.85 107.152 601.735C108.111 600.661 108.914 599.588 109.569 598.439C109.643 598.365 109.724 598.25 109.758 598.17C110.487 596.981 111.061 595.908 111.635 594.834C113.438 591.229 114.741 588.318 118.037 587.779C125.821 586.55 136.861 589.466 136.361 597.366C136.361 597.366 145.949 597.171 147.286 591.579C148.17 588.014 149.818 591.039 150.392 592.957C151.391 596.252 150.851 599.857 151.925 603.268C152.08 603.727 152.229 604.152 152.384 604.611C152.884 606.029 153.383 607.412 153.418 608.865C153.463 608.98 153.463 609.135 153.463 609.249Z" fill="#3B2645"/>
<path d="M502.578 498.296C502.003 500.558 501.16 503.434 499.971 506.27C499.897 506.385 499.856 506.54 499.782 506.689C498.748 509.18 497.365 511.637 495.677 513.475C493.725 515.662 491.308 517.04 488.317 516.965C488.317 516.965 488.128 516.965 487.783 516.925C486.98 516.81 485.407 516.425 483.679 515.432C480.154 513.4 475.974 508.606 476.393 497.412C476.468 495.075 476.279 492.968 475.974 491.085C475.842 490.281 475.664 489.552 475.44 488.863C475.211 488.175 474.981 487.52 474.711 486.912C474.212 485.798 473.638 484.764 473.064 483.88C472.335 482.767 471.646 481.963 470.957 481.199C470.767 480.93 470.532 480.66 470.302 480.436C469.344 479.437 468.442 478.616 467.541 477.789C464.573 475.074 462.018 473.111 462.328 469.815C463.132 461.996 468.77 452.024 476.244 454.481C476.244 454.481 478.506 445.204 473.408 442.443C469.539 440.37 474.711 440.106 476.319 439.911C479.884 439.526 488.283 438.527 488.891 438.453C489.925 438.338 490.998 438.223 492.037 438.338C492.382 438.378 492.692 438.413 493.036 438.493C495.488 439.182 497.175 441.41 498.404 443.666C502.044 450.566 502.773 458.58 503.427 466.325C504.3 476.94 505.224 487.87 502.578 498.296Z" fill="#3B2645"/>
<path d="M222.653 45.915C220.827 43.0963 217.44 42.7921 214.305 42.5223C211.085 42.2468 207.881 42.614 204.822 43.6417C200.608 45.0654 202.336 50.9785 206.636 50.2265C208.984 49.8131 211.429 49.6179 213.806 49.882C216.206 50.1461 218.37 51.4034 220.752 50.5767C222.595 49.9394 223.835 47.7349 222.653 45.915Z" fill="#E88FB9"/>
<path d="M230.139 122.809C221.665 137.528 209.856 142.362 201.423 143.78L201.848 127.906C201.119 115.179 229.605 109.312 229.605 109.312L230.139 122.809Z" fill="#E0855C"/>
<path d="M178.058 100.907C178.058 100.907 165.778 53.3094 200.344 49.9624C247.861 45.3583 252.058 83.558 240.208 101.24C229.347 117.446 178.287 120.535 178.058 100.907Z" fill="#3B2645"/>
<path d="M241.454 91.9683C240.283 84.0459 235.099 87.3527 232.125 90.005C231.643 82.4041 230.374 76.089 227.975 71.7719C220.339 58.0454 190.493 57.0065 178.77 77.0134C176.094 81.5774 175.905 89.6777 176.427 99.1214C178.018 127.711 192.709 136.965 202.043 136.144C210.545 135.398 227.079 130.708 231.293 111.057C235.214 107.784 242.694 100.333 241.454 91.9683Z" fill="#F0C2AE"/>
<path d="M189.763 99.7933C189.763 99.7933 187.381 100.93 187.369 96.5325C187.358 92.5771 189.16 92.9559 189.16 92.9559C189.16 92.9559 190.871 92.7951 190.917 96.2454C190.957 99.6956 189.763 99.7933 189.763 99.7933Z" fill="#3B2645"/>
<path d="M213.152 98.3062C213.152 98.3062 210.769 99.4429 210.758 95.0454C210.746 91.09 212.549 91.4688 212.549 91.4688C212.549 91.4688 214.26 91.3082 214.306 94.7585C214.346 98.2145 213.152 98.3062 213.152 98.3062Z" fill="#3B2645"/>
<path d="M203.381 108.083C202.118 108.009 199.316 109.007 198.61 107.71C198.024 106.631 199.448 99.8278 199.632 98.6624C199.833 97.3937 200.051 96.2455 200.263 95.1203C200.143 95.0514 200.034 94.971 199.907 94.9193C199.626 94.7988 199.356 94.7298 199.086 94.6896C198.323 99.3397 197.91 104.174 197.203 108.583C197.14 108.973 197.456 109.352 197.864 109.306C199.689 109.117 201.503 109.346 203.329 109.197C203.937 109.151 204.029 108.123 203.381 108.083Z" fill="#E0855C"/>
<path d="M191.296 86.3021C189.453 85.5558 186.129 85.6075 185.01 87.5594C184.803 87.9153 185.159 88.3918 185.55 88.3344C186.422 88.2139 187.163 87.7201 188.03 87.5651C188.977 87.4044 189.901 87.5422 190.825 87.7489C191.669 87.9384 192.111 86.6294 191.296 86.3021Z" fill="#3B2645"/>
<path d="M215.867 86.8821C214.639 84.4652 210.247 84.6144 208.513 86.3309C208.117 86.7213 208.45 87.37 208.926 87.4734C210.046 87.7145 211.165 87.2036 212.302 87.2093C213.301 87.2151 214.133 87.5767 215.081 87.8236C215.569 87.9441 216.108 87.3528 215.867 86.8821Z" fill="#3B2645"/>
<path d="M206.957 114.605C205.304 115.609 204.087 116.729 202.054 116.987C200.476 117.188 198.696 116.585 197.249 117.257C197.02 117.36 196.87 117.67 197.054 117.894C198.363 119.496 201.371 119.392 203.231 119.071C205.223 118.721 207.537 117.768 208.398 115.81C208.806 114.886 207.778 114.105 206.957 114.605Z" fill="#E0855C"/>
<path d="M234.134 67.6273C239.422 72.9434 235.685 81.302 233.164 87.0946C232.946 87.594 232.544 88.1854 232.022 88.0419C231.551 86.1761 231.453 84.2357 230.943 82.3814C230.432 80.5271 229.404 78.6843 227.67 77.8519C225.339 76.7266 222.417 77.2662 219.96 76.629C213.961 75.0732 213.812 67.0188 208.427 65.2564C202.588 63.3504 195.464 68.7066 191.996 72.7194C188.024 77.3236 184.792 82.8579 179.481 85.8202C175.888 87.8238 171.685 88.4266 167.581 88.7194C163.694 89.0007 159.67 89.0178 156.036 87.5998C152.936 86.3943 146.81 81.5489 150.318 79.0287C151.994 77.8231 156.328 78.07 158.378 77.628C160.852 77.0941 163.275 76.4166 165.525 75.2454C171.335 72.2143 172.805 67.2426 176.674 62.5696C180.302 58.195 185.825 54.7161 191.227 53.0972C196.555 51.5012 203.105 51.4783 208.438 53.1546C214.69 55.118 220.345 58.4822 225.799 62.0415C228.336 63.6891 231.844 65.3195 234.134 67.6273Z" fill="#3B2645"/>
<path d="M502.578 498.296C502.004 500.558 501.16 503.434 499.971 506.27C499.897 506.385 499.856 506.54 499.782 506.689C498.593 509.066 497.216 511.328 495.677 513.475C493.725 515.662 491.308 517.04 488.317 516.965C488.317 516.965 488.128 516.965 487.783 516.925C486.98 516.81 485.407 516.425 483.679 515.432C506.223 496.683 499.093 463.064 492.037 438.332C492.382 438.373 492.692 438.407 493.036 438.487C495.488 439.176 497.175 441.404 498.404 443.66C502.044 450.561 502.773 458.575 503.427 466.319C504.3 476.94 505.224 487.87 502.578 498.296Z" fill="#D9D9D9"/>
<path d="M484.827 474.029C481.646 475.792 478.805 477.02 476.238 479.741C475.09 480.97 473.936 482.307 472.903 483.691C472.329 482.773 471.64 481.963 470.945 481.2C471.904 479.971 472.937 478.897 473.477 478.249C476.083 475.143 479.844 471.578 484.098 471.423C485.475 471.383 486.015 473.375 484.827 474.029Z" fill="#826B80"/>
<path d="M487.508 480.849C487.203 482.457 485.975 482.841 484.672 483.611C482.984 484.569 481.411 485.603 479.918 486.831C478.54 488.02 477.272 489.627 475.969 491.085C475.854 490.281 475.659 489.552 475.435 488.863C475.205 488.175 474.975 487.52 474.706 486.912C475.704 485.798 476.778 484.805 477.737 483.995C479.769 482.233 484.247 477.967 487.014 479.661C487.439 479.925 487.588 480.39 487.508 480.849Z" fill="#826B80"/>
<path d="M153.463 609.25C153.504 612.43 151.391 615.266 148.785 617.069C146.178 618.831 143.073 619.715 140.041 620.599C127.963 624.164 117.227 629.917 104.54 632.024C96.9503 633.252 81.3467 635.284 78.9699 624.893C78.9699 624.893 78.9298 624.704 78.8953 624.354C78.7805 623.355 78.7059 621.208 79.699 618.716C79.7737 618.831 79.8885 618.986 79.9287 619.135C85.7958 637.655 119.035 625.192 130.844 620.593C138.778 617.447 146.029 612.964 153.423 608.859C153.463 608.98 153.463 609.135 153.463 609.25Z" fill="#D9D9D9"/>
<path d="M115.201 613.848C111.75 613.044 108.604 610.627 105.424 609.054C103.736 608.21 102.048 607.441 100.441 606.523C101.325 606.138 102.14 605.736 102.892 605.26C103.128 605.11 103.352 604.955 103.547 604.8C104.505 605.185 105.424 605.604 106.383 606.029C109.718 607.562 113.898 609.02 116.464 611.666C117.428 612.619 116.469 614.152 115.201 613.848Z" fill="#826B80"/>
<path d="M121.797 608.939C118.042 608.75 114.741 605.908 111.486 604.226C110.108 603.497 108.421 602.843 106.848 602.039C106.962 601.924 107.077 601.85 107.158 601.735C108.116 600.661 108.92 599.588 109.575 598.44C110.803 598.979 111.991 599.628 113.065 600.127C116.515 601.735 121.114 603.233 123.146 606.609C123.714 607.562 122.985 608.98 121.797 608.939Z" fill="#826B80"/>
<path d="M231.907 349.504C227.079 354.602 221.556 359.51 215.574 364.109C212.968 360.084 209.673 355.98 205.872 351.915L231.907 349.504Z" fill="#3B2645"/>
<path d="M294.821 350.003C292.829 350.118 290.831 350.308 288.913 350.618C285.044 320.983 280.325 293.49 261.082 268.19C260.278 267.117 261.926 266.198 262.77 266.887C285.004 284.517 292.863 319.984 294.821 350.003Z" fill="#472938"/>
<path d="M365.308 301.596C360.744 298.29 353.407 297.589 347.97 296.745C345.307 296.332 342.155 296.016 339.761 297.578C337.935 298.772 336.443 301.608 337.746 303.715C339.853 307.125 344.313 307.159 347.85 308.141C351.415 309.128 356.375 309.593 359.326 311.832C365.354 316.419 371.485 306.068 365.308 301.596Z" fill="#3B2645"/>
<path d="M55.5184 274.936C54.0315 270.601 47.0851 269.849 45.9484 274.936C45.0873 278.782 45.1848 282.72 44.6969 286.618C44.2031 290.551 42.6703 294.644 43.187 298.582C43.8989 304.025 50.7764 306.907 54.0717 301.527C56.4312 297.67 56.5747 292.778 56.7412 288.341C56.9019 283.909 56.9709 279.167 55.5184 274.936Z" fill="#3B2645"/>
<path d="M276.841 267.076C240.036 287.973 195.372 279.649 195.372 279.649C194.453 279.23 192.496 273.052 192.226 272.094C190.613 266.456 188.85 260.899 187.088 255.302C183.523 244.147 183.063 232.109 175.009 222.676C173.166 220.604 171.059 218.727 169.527 216.39C165.422 210.293 165.847 202.359 167.075 195.034L179.039 161.261C180.038 160.956 183.793 159.728 184.562 159.458C187.742 158.459 191.003 157.581 193.839 156.892C191.267 168.701 188.316 194.236 204.305 195C222.555 195.844 232.791 168.66 235.782 150.64C237.585 150.45 239.887 150.255 242.642 150.026C242.797 149.985 242.946 149.951 243.142 149.986C243.756 149.911 244.33 149.871 244.984 149.83C246.133 149.756 247.321 149.675 248.59 149.601C247.935 156.231 247.223 168.385 249.204 180.079C251.213 191.963 255.915 203.272 266.151 207.951C266.421 214.507 266.84 221.023 267.339 227.579C267.414 228.538 267.454 229.456 267.529 230.415C267.569 230.874 267.799 232.333 268.218 234.439C269.974 244.073 274.843 267.076 276.841 267.076Z" fill="#E88FB9"/>
<path d="M268.212 234.451C246.741 219.117 249.199 182.043 249.199 180.165C251.191 191.974 255.91 203.284 266.146 207.963C266.415 214.519 266.834 221.035 267.334 227.591C267.409 228.55 267.449 229.468 267.523 230.427C267.558 230.886 267.793 232.338 268.212 234.451Z" fill="#472938"/>
<path d="M117.279 178.409C78.7174 176.216 39.4039 177.8 0.796546 178.483C-0.265515 178.501 -0.265515 180.114 0.796546 180.131C39.4096 180.814 78.7174 182.398 117.279 180.205C118.433 180.142 118.438 178.478 117.279 178.409Z" fill="#E88FB9"/>
<path d="M111.406 192.973C95.6874 191.417 79.1939 192.692 63.441 193.524C62.8439 193.553 62.8439 194.42 63.441 194.454C79.1882 195.292 95.6874 196.561 111.406 195.005C112.715 194.879 112.715 193.099 111.406 192.973Z" fill="#E88FB9"/>
<path d="M479.459 377.663C458.861 376.268 437.935 377.175 417.302 377.25C396.589 377.324 375.83 377.089 355.146 378.335C354.296 378.386 354.296 379.603 355.146 379.655C375.83 380.901 396.589 380.665 417.302 380.74C437.941 380.82 458.861 381.722 479.459 380.327C481.17 380.212 481.175 377.778 479.459 377.663Z" fill="#E88FB9"/>
<path d="M322.142 505.236C299.058 503.899 275.681 504.892 252.557 505.001C230.569 505.104 208.427 504.565 186.479 506.023C185.762 506.069 185.871 507.223 186.56 507.269C209.024 508.79 231.7 508.204 254.204 508.325C276.714 508.44 299.46 509.393 321.941 508.113C323.726 508.004 324.048 505.345 322.142 505.236Z" fill="#E88FB9"/>
<path d="M437.367 1.17641C404.971 -0.316217 372.392 0.527816 339.973 0.55078C307.663 0.573743 274.814 -1.0682 242.579 1.21092C241.385 1.29704 241.385 2.98488 242.579 3.071C274.82 5.34438 307.663 3.70818 339.973 3.73114C372.392 3.7541 404.977 4.59796 437.367 3.10533C438.601 3.03644 438.601 1.23382 437.367 1.17641Z" fill="#E88FB9"/>
<path d="M392.594 18.0431C377.231 15.3392 361.128 16.8432 345.921 19.9146C344.813 20.1385 345.048 22.0617 346.191 21.9182C361.656 19.9146 376.778 20.2131 392.313 20.1327C393.467 20.127 393.811 18.2613 392.594 18.0431Z" fill="#E88FB9"/>
</svg>
