<svg width="456" height="727" viewBox="0 0 456 727" fill="none" xmlns="http://www.w3.org/2000/svg">
<path d="M114.352 244.64C76.753 242.502 38.4206 244.046 0.776668 244.713C-0.258889 244.729 -0.258889 246.302 0.776668 246.319C38.4262 246.985 76.753 248.53 114.352 246.392C115.477 246.33 115.483 244.707 114.352 244.64Z" fill="#E88FB9"/>
<path d="M108.626 258.841C93.2993 257.324 77.2173 258.566 61.8575 259.378C61.2754 259.406 61.2754 260.251 61.8575 260.285C77.2117 261.102 93.2993 262.339 108.626 260.822C109.902 260.699 109.902 258.964 108.626 258.841Z" fill="#E88FB9"/>
<path d="M449.013 433.624C428.928 432.263 408.525 433.148 388.407 433.221C368.211 433.293 347.97 433.064 327.802 434.279C326.974 434.329 326.974 435.515 327.802 435.566C347.97 436.781 368.211 436.551 388.407 436.624C408.531 436.702 428.928 437.581 449.013 436.221C450.681 436.109 450.686 433.736 449.013 433.624Z" fill="#E88FB9"/>
<path d="M214.549 518.098C192.041 516.794 169.248 517.762 146.701 517.869C125.262 517.97 103.672 517.443 82.2723 518.865C81.5726 518.91 81.679 520.035 82.3507 520.08C104.254 521.563 126.365 520.992 148.307 521.11C170.256 521.222 192.433 522.151 214.353 520.903C216.094 520.796 216.408 518.205 214.549 518.098Z" fill="#E88FB9"/>
<path d="M454.567 170.252C422.979 168.796 391.213 169.619 359.603 169.642C328.1 169.664 296.07 168.063 264.64 170.285C263.476 170.369 263.476 172.015 264.64 172.099C296.076 174.316 328.1 172.72 359.603 172.743C391.213 172.765 422.985 173.588 454.567 172.132C455.77 172.065 455.77 170.308 454.567 170.252Z" fill="#E88FB9"/>
<path d="M410.91 186.697C395.931 184.061 380.23 185.528 365.402 188.522C364.321 188.741 364.551 190.616 365.665 190.476C380.745 188.522 395.489 188.813 410.636 188.735C411.761 188.729 412.097 186.91 410.91 186.697Z" fill="#E88FB9"/>
<path d="M273.297 133.564C273.358 134.418 273.521 135.254 273.875 136.063C276.604 142.262 282.449 141.824 280.978 149.887C280.091 154.772 277.008 159.325 272.578 161.65C264.616 165.822 252.976 163.795 248.114 171.353C246.929 173.2 246.345 175.435 244.874 177.063C240.438 181.982 232.285 178.225 225.777 179.466C218.175 180.921 213.149 189.337 205.446 190.107C200.078 190.64 195.159 187.26 189.875 186.148C183.379 184.784 176.742 186.912 170.251 188.299C163.76 189.68 156.36 190.129 151.121 186.058C146.719 182.639 144.978 177.181 142.159 172.594C139.127 167.658 134.411 165.934 131.031 161.527C125.752 154.648 134.012 147.068 136.426 140.886C138.195 136.343 137.252 131.627 138.723 127.011C139.717 123.912 142.693 121.936 145.613 120.459C150.211 118.14 152.491 117.006 154.159 112.238C156.023 106.921 156.472 101.469 158.111 96.1404C160.47 88.6108 165.81 82.6589 171.279 77.1787C178.37 70.0758 188.612 66.9763 198.247 65.421C208.961 63.7421 218.658 66.8977 228.18 72.041C234.795 75.6402 240.814 80.8565 244.037 87.6899C244.896 89.5148 245.621 91.5025 246.62 93.2375C247.429 94.6525 248.406 95.8934 249.832 96.7469C252.431 98.291 255.918 98.1056 258.125 100.149C261.23 102.974 259.866 107.5 261.702 110.857C263.392 113.957 266.351 115.085 268.681 117.528C270.871 119.819 272.443 121.924 273.319 125.102C274.049 127.803 273.1 130.779 273.297 133.564Z" fill="#3B2645"/>
<path d="M232.364 98.757C232.364 98.757 232.869 148.708 257.766 153.89C257.766 153.89 252.521 192.903 234.402 199.922C216.283 206.94 210.443 162.262 210.443 162.262L207.877 128.247L232.364 98.757Z" fill="#25182B"/>
<path d="M327.144 112.137C321.147 89.9752 312.068 68.6047 302.736 47.6778C298.496 38.1155 294.038 28.3286 288.973 19.0303C286.351 14.2295 283.538 9.54095 280.422 5.08267C279.445 3.65648 278.21 2.5728 276.75 1.78109C269.776 -2.08199 258.411 0.579556 254.099 7.44103C251.623 11.4164 252.937 16.8123 255.789 20.4901C256.575 21.5008 257.401 22.3655 258.299 23.1909C260.809 25.5155 263.774 27.3516 266.66 29.2663C269.546 31.2147 271.758 33.5056 273.56 36.0155C278.996 43.7023 280.197 53.4892 282.786 63.1245C287.171 79.7335 291.635 96.3819 296.06 113.036C296.06 113.036 290.697 119.224 282.971 126.607C276.654 132.699 269.815 138.135 263.526 144.21C260.96 146.692 257.867 148.545 254.924 150.566C253.846 151.307 252.785 152.065 251.735 152.84C247.344 156.052 243.071 159.477 238.299 162.133C235.968 163.43 233.526 164.542 230.96 165.294C228.169 166.114 226.26 167.787 223.986 169.618C220.331 172.549 216.703 175.659 213.739 179.309C212.706 180.584 211.745 181.926 210.993 183.386C210.555 184.228 210.257 186.378 209.629 187.018L209.556 187.468C209.067 190.466 216.642 190.803 227.029 189.905C231.005 189.568 235.429 189.04 239.966 188.405C242.33 188.068 244.728 187.692 247.131 187.316C248.293 187.131 249.382 187.018 250.432 186.979C261.533 186.266 266.968 191.555 268.917 194.065C269.518 194.812 269.782 195.34 269.782 195.34C269.782 195.34 302.18 157.242 306.492 151.807C307.357 150.718 308.216 149.668 309.041 148.584C319.985 134.485 329.396 119.521 327.144 112.137Z" fill="#F0C2AE"/>
<path d="M273.111 284.174C273.448 285.336 273.785 286.499 274.161 287.622C266.177 289.834 258.114 291.822 250.011 293.585C248.433 293.961 246.861 294.298 245.289 294.635C238.427 296.134 232.313 296.319 227.366 300.598C226.653 301.199 225.94 301.799 225.266 302.4C223.205 304.163 221.218 305.848 219.118 307.426C217.203 308.885 215.142 310.272 212.778 311.586C203.665 316.685 194.142 324.035 190.206 333.894C188.404 338.392 187.769 341.958 184.732 346.006C183.272 347.954 172.957 356.13 172.957 357.741C172.772 349.19 173.586 341.127 175.057 333.215C176.994 322.788 180.083 312.855 183.418 302.428C183.715 301.53 184.019 300.626 184.316 299.688C184.844 298.11 185.254 296.465 185.591 294.814C188.629 281.013 186.641 264.965 184.726 251.467C184.614 250.529 184.367 249.625 184.198 248.727C182.755 240.9 181.048 233.28 179.021 225.666C178.948 225.369 178.87 225.032 178.797 224.729C178.465 223.415 178.123 222.219 177.786 221.017C176.584 216.665 175.237 212.392 173.625 208.08C170.515 199.607 166.124 190.27 166.579 180.893C166.803 176.283 170.021 173.745 174.114 172.229C177.707 170.898 181.666 170.32 184.878 169.607C185.478 169.472 186.079 169.343 186.641 169.27C186.792 169.197 186.978 169.157 187.129 169.157C188.404 168.893 189.639 168.669 190.728 168.484C191.739 168.298 192.643 168.147 193.469 167.995C193.766 167.922 194.03 167.883 194.294 167.843C196.692 167.428 198.005 167.17 198.005 166.906L192.379 131.958C192.379 131.958 196.366 130.914 201.425 130.425C208.736 129.752 218.186 130.386 219.758 137.624L227.512 163.048C227.512 163.048 227.849 163.048 228.45 163.009C229.427 162.97 234.901 162.784 235.575 162.784C238.237 162.745 241.314 162.745 244.312 162.824C245.098 162.863 245.996 162.936 246.934 162.975C248.473 163.048 250.157 163.087 251.847 163.16C256.569 163.497 261 164.508 262.645 169.124C265.194 176.361 266.098 183.408 269.546 190.612C270.068 191.662 270.568 192.746 271.045 193.835C273.684 199.849 275.43 206.435 273.409 212.544C272.583 215.133 271.028 217.429 269.882 219.894C269.209 221.343 268.647 223.196 268.192 225.369C265.643 237.665 266.85 260.372 271.831 279.626C272.241 281.215 272.662 282.714 273.111 284.174Z" fill="#F0C2AE"/>
<path d="M202.312 176.446C202.273 176.26 202.239 176.069 202.161 175.918C201.863 175.132 201.509 174.39 201.071 173.666C200.291 172.369 199.269 171.19 197.961 170.179C196.838 169.354 195.676 168.568 194.401 167.928C193.985 167.63 164.664 159.601 152.367 157.315C150.267 156.939 148.128 156.569 145.882 156.153C142.322 155.513 138.981 154.766 135.91 153.941C111.535 147.416 102.31 136.018 102.31 136.018C101.67 118.808 101.075 101.592 100.435 84.3827C100.098 75.3089 98.6323 66.3812 100.659 58.1328C101.558 54.382 103.208 50.8221 105.949 47.3689C107.111 45.9427 108.312 44.4829 109.435 43.0174C111.199 40.8051 112.771 38.4412 113.787 35.7797C115.477 31.4281 115.135 25.8805 111.614 22.8035C104.191 16.3182 88.6657 18.8674 85.701 28.1658C84.9879 30.3781 84.3534 32.5511 83.7863 34.7634C82.8486 38.3625 82.0233 42.074 81.2765 45.7125C79.3281 55.5724 78.0141 65.6232 76.8518 75.4493C73.9994 98.2124 71.6019 121.273 72.2757 144.221C72.315 153.183 98.374 170.769 123.125 185.429C126.612 187.49 130.059 189.517 133.439 191.426C149.038 200.388 166.815 206.463 177.051 221.876C177.427 222.438 177.809 222.993 178.14 223.561C178.331 223.897 178.55 224.274 178.775 224.611C179.712 225.997 180.914 227.351 182.374 227.497C182.598 227.536 182.823 227.536 183.048 227.497C184.738 227.272 185.788 225.621 186.647 224.161C192.043 214.655 206.703 190.241 202.312 176.446ZM98.2561 53.2253C98.2168 53.04 98.2561 52.9614 98.3291 52.8491C98.3347 52.967 98.2954 53.0737 98.2561 53.2253Z" fill="#F0C2AE"/>
<path d="M310.833 700.141C310.047 700.517 310.833 708.805 310.872 709.63L310.912 710.04C308.25 710.153 305.588 710.304 302.927 710.602C300.378 710.562 297.789 710.489 295.24 710.225C294.712 710.186 294.263 710.225 293.78 710.225C293.516 705.913 293.067 701.601 292.242 697.401C291.495 693.689 290.782 689.978 290.142 686.3C286.239 665.003 224.256 296.437 224.256 296.437C226.019 296.364 228.265 295.814 230.853 295.123C234.183 294.236 238.052 293.023 242.027 291.788C243.903 291.226 245.812 290.62 247.726 290.064C249.035 289.682 250.276 289.351 251.477 289.053C260.366 286.729 268.339 275.488 271.837 279.643C272.881 280.884 273.898 282.192 274.914 283.618C277.351 286.953 279.788 290.895 282.191 295.168C287.666 304.803 292.989 316.207 297.413 326.741C298.648 329.588 299.777 332.401 300.827 335.062C301.54 336.865 302.214 338.588 302.854 340.273C307.279 351.935 309.85 366.557 311.175 381.93C312.967 402.666 312.489 424.756 311.361 442.825C310.799 451.634 310.047 459.512 309.334 465.846C309.036 468.395 308.733 470.686 308.469 472.668C305.055 497.452 304.494 531.238 310.08 585.871C311.091 595.995 311.804 606.231 312.22 616.282C313.309 642.228 312.635 666.569 311.922 682.28C311.394 693.353 310.833 700.141 310.833 700.141Z" fill="#F0C2AE"/>
<path d="M250.163 291.715C250.163 291.715 250.124 292.349 250.012 293.59C250.012 294.118 249.972 294.753 249.899 295.505C248.737 308.739 218.703 693.392 218.287 697.143C217.838 701.416 217.76 705.728 217.872 710.079C217.383 710.119 216.934 710.108 216.446 710.192C213.885 710.63 211.347 710.978 208.798 711.242C206.137 711.202 203.475 711.281 200.814 711.393V710.983C200.741 710.158 200.814 701.837 199.988 701.534C199.988 701.534 198.826 694.824 197.327 683.874C195.187 668.085 192.301 643.486 191.066 617.163C190.617 607.449 190.392 597.516 190.505 587.69C191.218 532.754 187.652 499.159 182.032 474.785C181.622 472.836 181.094 470.585 180.572 468.075C179.859 464.7 179.112 460.725 178.359 456.261C172.699 423.341 166.192 364.939 175.058 333.232C177.483 324.568 180.757 326.185 183.385 319.245C186.832 309.986 190.286 302.181 193.245 295.999C193.43 295.662 193.593 295.292 193.772 294.949C198.888 285.173 202.133 279.648 202.133 279.648C202.133 279.648 205.21 283.848 214.396 287.296C216.199 287.97 218.259 288.61 220.545 289.211C221.746 289.547 222.981 289.862 224.295 290.109C227.215 290.665 230.225 291.047 233.56 291.344C235.026 291.479 236.525 291.608 238.097 291.681C239.371 291.754 240.685 291.794 242.033 291.794C244.576 291.861 247.277 291.827 250.163 291.715Z" fill="#F0C2AE"/>
<path d="M194.873 716.846C195.979 715.234 197.293 713.628 197.765 712.09C198.568 709.479 197.922 706.683 197.58 703.976C197.478 703.201 197.411 702.381 197.72 701.663C198.208 700.512 199.489 699.95 200.651 699.501C204.441 698.019 208.411 696.514 212.454 696.957C217.473 697.513 220.365 701 220.533 705.784C220.606 707.918 220.331 709.018 221.202 710.967C222.364 713.572 224.374 715.155 224.739 718.221C225.121 721.416 223.543 724.998 220.528 726.121C219.09 726.655 217.513 726.604 215.98 726.543C211.471 726.363 206.968 726.178 202.459 725.998C199.915 725.897 197.203 725.734 195.154 724.218C191.976 721.854 193.172 719.339 194.873 716.846Z" fill="#3B2645"/>
<path d="M290.4 717.003C291.354 715.296 292.522 713.583 292.859 712.005C293.426 709.338 292.534 706.609 291.95 703.942C291.781 703.179 291.641 702.37 291.882 701.629C292.27 700.439 293.488 699.771 294.606 699.209C298.244 697.395 302.068 695.537 306.139 695.621C311.186 695.728 314.381 698.94 314.977 703.69C315.241 705.807 315.061 706.93 316.105 708.794C317.498 711.281 319.643 712.679 320.277 715.706C320.94 718.856 319.693 722.562 316.79 723.954C315.409 724.617 313.831 724.701 312.298 724.779C307.795 724.998 303.286 725.223 298.783 725.442C296.239 725.566 293.522 725.65 291.349 724.325C287.957 722.247 288.923 719.636 290.4 717.003Z" fill="#3B2645"/>
<path d="M224.452 153.02C212.268 155.367 202.049 152.571 195.181 149.454L193.228 137.416L201.42 130.442C208.775 129.763 218.18 130.386 219.753 137.64L224.452 153.02Z" fill="#E0855C"/>
<path d="M232.975 106.101C231.156 97.0276 228.983 89.4081 225.333 85.7471C209.314 69.6828 181.318 77.9984 177.46 92.8668C176.208 97.6901 176.629 104.248 178.157 111.874C174.411 111.806 167.589 112.839 170.245 121.784C172.463 129.241 178.707 129.819 183.176 129.162C191.739 148.399 209.331 148.865 217.815 147.444C226.855 145.928 238.489 133.558 232.975 106.101Z" fill="#F0C2AE"/>
<path d="M220.516 110.004C220.516 110.004 223.054 110.492 221.982 106.326C221.021 102.581 219.404 103.378 219.404 103.378C219.404 103.378 217.742 103.642 218.551 106.927C219.359 110.211 220.516 110.004 220.516 110.004Z" fill="#3B2645"/>
<path d="M198.005 114.344C198.005 114.344 200.543 114.833 199.471 110.666C198.511 106.921 196.894 107.718 196.894 107.718C196.894 107.718 195.232 107.982 196.04 111.267C196.849 114.546 198.005 114.344 198.005 114.344Z" fill="#3B2645"/>
<path d="M209.662 121.2C210.841 120.818 213.733 121.076 214.086 119.673C214.378 118.505 211.358 112.413 210.897 111.363C210.397 110.212 209.909 109.178 209.432 108.168C209.527 108.078 209.611 107.971 209.718 107.887C209.954 107.702 210.195 107.572 210.437 107.471C212.306 111.688 213.879 116.158 215.631 120.161C215.782 120.515 215.58 120.947 215.181 121.009C213.401 121.279 211.745 121.941 209.976 122.244C209.392 122.345 209.055 121.397 209.662 121.2Z" fill="#E0855C"/>
<path d="M215.748 97.6059C217.315 96.4493 220.47 95.68 222.009 97.2522C222.29 97.5385 222.071 98.0776 221.689 98.1225C220.836 98.2235 220.016 97.9316 219.151 98.0046C218.213 98.0832 217.377 98.4369 216.546 98.8637C215.793 99.2511 215.058 98.1169 215.748 97.6059Z" fill="#3B2645"/>
<path d="M192.632 104.192C193.199 101.604 197.399 100.66 199.46 101.862C199.931 102.137 199.774 102.833 199.347 103.047C198.348 103.552 197.163 103.339 196.085 103.625C195.136 103.872 194.446 104.422 193.603 104.889C193.171 105.124 192.52 104.698 192.632 104.192Z" fill="#3B2645"/>
<path d="M207.871 128.252C209.684 128.803 211.111 129.555 213.098 129.302C214.642 129.106 216.175 128.101 217.714 128.376C217.955 128.421 218.174 128.673 218.056 128.932C217.214 130.773 214.339 131.414 212.498 131.56C210.527 131.722 208.101 131.385 206.804 129.746C206.192 128.977 206.978 127.983 207.871 128.252Z" fill="#E0855C"/>
<path d="M179.6 80.5701L170.559 90.43C170.065 96.0674 169.049 101.39 170.79 106.786C171.351 108.533 172.115 110.307 173.541 111.464C174.771 112.463 176.607 112.839 177.982 112.154C178.201 112.042 178.409 111.907 178.6 111.744C179.852 110.666 180.021 108.819 180.054 107.168C180.127 104.018 180.054 100.84 180.577 97.7294C181.132 94.4278 182.677 90.7837 184.889 88.257C187.432 85.3484 191.638 84.669 194.827 82.7319C197.056 81.3787 198.348 78.414 200.397 77.3303C202.868 76.0276 207.826 78.0097 210.336 78.6386C214.418 79.6605 219.78 81.0811 222.762 84.276C226.226 87.9874 230.482 94.0572 232.363 98.7513C232.571 99.2623 234.199 102.227 234.716 102.435C237.546 103.586 235.805 93.0353 235.951 91.48C236.367 87.0161 235.311 82.4005 232.891 78.6217C228.927 72.4396 222.694 69.9972 215.709 69.3234C211.936 68.964 208.943 69.8905 205.176 70.2218C200.307 70.6485 194.945 71.1875 190.532 73.7704C186.809 75.9602 183.378 78.3915 179.6 80.5701Z" fill="#3B2645"/>
<path d="M311.361 442.83C290.4 450.966 270.299 455.582 251.854 457.906C250.955 452.505 244.167 411.746 241.578 396.788C240.455 410.814 237.227 453.111 236.777 459.333C213.268 460.871 193.166 458.844 178.354 456.256C174.94 436.306 171.189 406.945 170.74 379.836C170.476 362.289 171.605 345.714 175.052 333.226C177.001 322.799 180.078 312.866 183.413 302.439C183.71 301.541 184.014 300.637 184.311 299.699C184.839 298.122 185.249 296.476 185.586 294.826C188.36 294.899 191.1 294.938 193.761 294.938C210.37 294.899 225.295 293.551 238.086 291.676C241.46 291.187 244.649 290.626 247.721 290.064C248.058 290.025 248.322 289.991 248.546 289.912C258.406 288.11 266.655 286.049 273.106 284.174C273.707 283.989 274.308 283.798 274.909 283.613C276.823 286.201 278.693 289.199 280.608 292.389C281.136 293.287 283.797 298.049 284.622 299.553C289.232 308.178 293.623 317.78 297.408 326.741C298.609 329.588 299.771 332.401 300.822 335.062C301.535 336.865 302.208 338.589 302.849 340.273C307.273 351.935 309.845 366.557 311.17 381.93C312.961 402.666 312.484 424.756 311.361 442.83Z" fill="#3B2645"/>
<path d="M441.437 310.087C437.349 274.69 363.815 254.213 268.12 259.502C268.417 261.978 268.794 264.488 269.17 267.003C278.395 266.515 287.43 266.29 296.245 266.29C372.44 266.29 430.864 283.725 433.974 310.952C437.91 345.186 353.091 384.261 248.737 396.26C196.692 402.256 147.044 400.982 108.908 392.7C72.6463 384.828 50.748 371.178 48.9512 355.237C47.1151 339.335 65.302 321.075 98.8626 305.14C123.159 293.59 153.569 284.107 187.169 277.357C187.13 274.808 187.017 272.293 186.793 269.744C152.143 276.644 120.761 286.47 95.6339 298.391C58.4742 316.016 39.2374 336.528 41.489 356.102C43.7406 375.715 67.138 391.313 107.336 400.05C130.132 405.002 156.91 407.473 185.821 407.473C206.221 407.473 227.709 406.237 249.607 403.722C358.841 391.161 441.633 351.789 441.633 313.164C441.628 312.114 441.549 311.098 441.437 310.087Z" fill="#6E683B"/>
<path d="M284.622 299.548C268.945 305.775 241.836 314.921 215.553 316.157C175.282 318.071 170.779 380.016 170.779 380.016C170.482 362.278 171.604 345.703 175.052 333.221C177 322.794 180.078 312.861 183.413 302.434C183.71 301.535 184.014 300.631 184.311 299.694C184.839 298.116 185.249 296.471 185.586 294.82C188.36 294.893 191.1 294.932 193.761 294.932C210.37 294.893 225.295 293.545 238.086 291.67C241.46 291.181 244.649 290.62 247.721 290.058C248.058 290.019 248.322 289.986 248.546 289.907L280.608 292.383C281.135 293.287 283.797 298.049 284.622 299.548Z" fill="#25182B"/>
<path d="M309.036 148.584C308.211 149.673 307.346 150.723 306.487 151.807C304.05 154.845 271.764 193.054 271.051 193.841C272.326 196.839 273.376 199.916 273.898 202.993C274.499 206.216 274.426 209.445 273.41 212.555C272.584 215.144 271.085 217.468 269.883 219.905C269.243 221.365 268.642 223.207 268.193 225.38C264.673 242.393 267.705 260.367 276.223 275.555C279.76 281.855 287.071 293.63 277.542 297.723C269.305 301.26 257.94 302.664 249.108 304.388C241.983 305.775 234.223 306.785 226.12 307.201C223.835 307.352 221.471 307.426 219.107 307.426C209.281 307.426 200 305.909 190.331 304.444C181.875 303.164 181.189 299.974 181.734 291.137C183.065 269.463 179.404 247.503 171.116 227.435C167.405 218.451 162.638 211.348 155.574 204.745C148.92 198.529 141.318 195.918 133.423 191.449C130.049 189.534 126.601 187.513 123.108 185.452L135.894 153.952C138.971 154.777 142.306 155.53 145.866 156.164C148.117 156.574 150.251 156.95 152.351 157.327C159.549 158.68 193.335 165.502 197.495 165.799C197.759 167.299 200.421 172.251 201.055 173.672C201.431 174.57 201.881 175.508 202.291 176.445C207.428 187.659 214.666 201.005 220.404 202.246C223.852 202.999 225.84 197.445 227.002 189.91C227.676 185.486 227.979 180.988 228.164 176.524C228.277 174.199 228.35 171.875 228.389 169.55C228.428 167.299 227.867 165.311 227.754 163.065C227.754 163.065 236.003 160.252 236.755 159.915C248.642 154.626 276.616 132.727 282.949 126.618L309.036 148.584Z" fill="#E88FB9"/>
<path d="M298.121 162.082C295.723 164.969 271.759 193.054 271.045 193.841L263.656 179.028C263.656 179.028 280.383 173.368 298.121 162.082Z" fill="#472938"/>
<path d="M219.534 222.151C215.39 225.009 211.617 227.699 206.597 228.844C201.588 229.99 197.023 228.586 192.093 229.069C191.773 229.102 191.549 229.484 191.813 229.743C199.359 237.07 215.839 231.292 221.274 223.892C222.027 222.87 220.55 221.444 219.534 222.151Z" fill="#472938"/>
</svg>
