<svg width="20" height="21" viewBox="0 0 20 21" fill="none" xmlns="http://www.w3.org/2000/svg">
<path d="M17.5001 6.30859C17.4834 6.30859 17.4584 6.30859 17.4334 6.30859C13.0251 5.86692 8.62505 5.70026 4.26672 6.14192L2.56672 6.30859C2.21672 6.34192 1.90839 6.09192 1.87505 5.74192C1.84172 5.39192 2.09172 5.09192 2.43339 5.05859L4.13339 4.89192C8.56672 4.44192 13.0584 4.61692 17.5584 5.05859C17.9001 5.09192 18.1501 5.40026 18.1167 5.74192C18.0917 6.06692 17.8167 6.30859 17.5001 6.30859Z" fill="#F36B6B"/>
<path d="M7.08338 5.4667C7.05005 5.4667 7.01672 5.4667 6.97505 5.45837C6.64172 5.40003 6.40838 5.07503 6.46672 4.7417L6.65005 3.65003C6.78338 2.85003 6.96671 1.7417 8.90838 1.7417H11.0917C13.0417 1.7417 13.225 2.8917 13.35 3.65837L13.5334 4.7417C13.5917 5.08337 13.3584 5.40837 13.025 5.45837C12.6834 5.5167 12.3584 5.28337 12.3084 4.95003L12.125 3.8667C12.0084 3.1417 11.9834 3.00003 11.1 3.00003H8.91672C8.03338 3.00003 8.01672 3.1167 7.89172 3.85837L7.70005 4.9417C7.65005 5.25003 7.38338 5.4667 7.08338 5.4667Z" fill="#F36B6B"/>
<path d="M12.675 19.6583H7.325C4.41666 19.6583 4.3 18.05 4.20833 16.75L3.66666 8.35835C3.64166 8.01668 3.90833 7.71668 4.25 7.69168C4.6 7.67501 4.89166 7.93335 4.91666 8.27501L5.45833 16.6667C5.55 17.9333 5.58333 18.4083 7.325 18.4083H12.675C14.425 18.4083 14.4583 17.9333 14.5417 16.6667L15.0833 8.27501C15.1083 7.93335 15.4083 7.67501 15.75 7.69168C16.0917 7.71668 16.3583 8.00835 16.3333 8.35835L15.7917 16.75C15.7 18.05 15.5833 19.6583 12.675 19.6583Z" fill="#F36B6B"/>
<path d="M11.3834 15.0752H8.6084C8.26673 15.0752 7.9834 14.7919 7.9834 14.4502C7.9834 14.1085 8.26673 13.8252 8.6084 13.8252H11.3834C11.7251 13.8252 12.0084 14.1085 12.0084 14.4502C12.0084 14.7919 11.7251 15.0752 11.3834 15.0752Z" fill="#F36B6B"/>
<path d="M12.0834 11.7417H7.91675C7.57508 11.7417 7.29175 11.4584 7.29175 11.1167C7.29175 10.775 7.57508 10.4917 7.91675 10.4917H12.0834C12.4251 10.4917 12.7084 10.775 12.7084 11.1167C12.7084 11.4584 12.4251 11.7417 12.0834 11.7417Z" fill="#F36B6B"/>
</svg>
