<svg width="32" height="33" viewBox="0 0 32 33" fill="none" xmlns="http://www.w3.org/2000/svg">
<path d="M16 30.8332C8.09329 30.8332 1.66663 24.4065 1.66663 16.4998C1.66663 8.59317 8.09329 2.1665 16 2.1665C23.9066 2.1665 30.3333 8.59317 30.3333 16.4998C30.3333 18.3665 29.9866 20.1532 29.2933 21.8332C29.1733 22.1132 28.9466 22.3265 28.6533 22.4065C28.3599 22.4998 28.0533 22.4465 27.8 22.2732C26.2266 21.1932 24.1066 21.2732 22.6133 22.4465C21.5866 23.2599 20.9866 24.4998 20.9866 25.8198C20.9866 26.6065 21.1999 27.3798 21.6133 28.0465C21.6533 28.1131 21.68 28.1532 21.72 28.1932C21.9333 28.4332 22.0133 28.7665 21.9466 29.0865C21.8799 29.4065 21.6533 29.6599 21.3466 29.7799C19.6533 30.4865 17.8533 30.8332 16 30.8332ZM16 4.1665C9.19996 4.1665 3.66663 9.69984 3.66663 16.4998C3.66663 23.2998 9.19996 28.8332 16 28.8332C17.2 28.8332 18.3733 28.6598 19.5066 28.3132C19.1733 27.5398 19 26.6998 19 25.8332C19 23.8865 19.8666 22.0865 21.3733 20.8865C23.1866 19.4465 25.7333 19.1132 27.8133 20.0065C28.1466 18.8865 28.3199 17.6998 28.3199 16.4865C28.3333 9.69982 22.8 4.1665 16 4.1665Z" fill="#8D9A9B"/>
<path d="M14.5065 21.9266C13.9865 21.9266 13.4931 21.8066 13.0664 21.5533C12.0798 20.9799 11.5065 19.82 11.5065 18.3533V14.6466C11.5065 13.1799 12.0798 12.02 13.0664 11.4467C14.0664 10.8733 15.3598 10.9667 16.6265 11.7L19.8265 13.5533C21.0931 14.2866 21.8131 15.3666 21.8131 16.5C21.8131 17.6333 21.0931 18.7267 19.8265 19.4467L16.6265 21.2999C15.9065 21.7133 15.1865 21.9266 14.5065 21.9266ZM14.5198 13.0733C14.3465 13.0733 14.1998 13.1133 14.0664 13.18C13.7064 13.3933 13.5065 13.9266 13.5065 14.6466V18.3533C13.5065 19.0733 13.7064 19.6199 14.0664 19.8199C14.4264 20.0199 14.9865 19.9399 15.6265 19.5666L18.8265 17.7133C19.4531 17.3533 19.8131 16.8999 19.8131 16.4866C19.8131 16.0733 19.4531 15.6333 18.8265 15.26L15.6265 13.4066C15.2131 13.1933 14.8398 13.0733 14.5198 13.0733Z" fill="#8D9A9B"/>
<path d="M25.3333 32.1667C23.12 32.1667 21.04 30.9933 19.92 29.0867C19.32 28.1267 19 26.9933 19 25.8333C19 23.8867 19.8667 22.0866 21.3733 20.8866C22.4933 19.9933 23.9067 19.5 25.3333 19.5C28.8267 19.5 31.6667 22.34 31.6667 25.8333C31.6667 26.9933 31.3467 28.1267 30.7467 29.1C30.4133 29.66 29.9866 30.1667 29.48 30.5933C28.3733 31.6067 26.8933 32.1667 25.3333 32.1667ZM25.3333 21.5C24.3467 21.5 23.4133 21.8333 22.6267 22.46C21.6 23.2733 21 24.5133 21 25.8333C21 26.62 21.2133 27.3933 21.6267 28.06C22.4 29.3666 23.8267 30.1667 25.3333 30.1667C26.3867 30.1667 27.4 29.78 28.1733 29.0867C28.52 28.7933 28.8133 28.4467 29.0267 28.0733C29.4533 27.3933 29.6667 26.62 29.6667 25.8333C29.6667 23.4467 27.72 21.5 25.3333 21.5Z" fill="#E88FB9"/>
<path d="M27.333 26.8066H23.3463C22.7996 26.8066 22.3463 26.3533 22.3463 25.8066C22.3463 25.26 22.7996 24.8066 23.3463 24.8066H27.333C27.8796 24.8066 28.333 25.26 28.333 25.8066C28.333 26.3533 27.8796 26.8066 27.333 26.8066Z" fill="#E88FB9"/>
<path d="M25.3334 28.8465C24.7867 28.8465 24.3334 28.3932 24.3334 27.8465V23.8599C24.3334 23.3132 24.7867 22.8599 25.3334 22.8599C25.88 22.8599 26.3334 23.3132 26.3334 23.8599V27.8465C26.3334 28.4065 25.88 28.8465 25.3334 28.8465Z" fill="#E88FB9"/>
</svg>
